<?xml version="1.0" encoding="UTF-8"?>
<svg width="13px" height="13px" viewBox="0 0 13 13" version="1.1" xmlns="http://www.w3.org/2000/svg" xmlns:xlink="http://www.w3.org/1999/xlink">
    <!-- Generator: Sketch 43.2 (39069) - http://www.bohemiancoding.com/sketch -->
    <title></title>
    <desc>Created with Sketch.</desc>
    <defs></defs>
    <g id="Mockups" stroke="none" stroke-width="1" fill="none" fill-rule="evenodd">
        <g id="Desktop-HD-Copy-5" transform="translate(-1275.000000, -542.000000)" fill="#6B69FE">
            <path d="M1281.92857,544.428571 C1281.92857,544.312499 1281.88616,544.212054 1281.80134,544.127232 C1281.71652,544.04241 1281.61607,544 1281.5,544 C1281.38393,544 1281.28348,544.04241 1281.19866,544.127232 C1281.11384,544.212054 1281.07143,544.312499 1281.07143,544.428571 C1281.07143,544.544643 1281.11384,544.645089 1281.19866,544.729911 C1281.28348,544.814733 1281.38393,544.857143 1281.5,544.857143 C1281.61607,544.857143 1281.71652,544.814733 1281.80134,544.729911 C1281.88616,544.645089 1281.92857,544.544643 1281.92857,544.428571 Z M1287.5,550.642857 L1287.5,553 C1287.5,553.098215 1287.45536,553.165178 1287.36607,553.200893 C1287.33036,553.209821 1287.30357,553.214286 1287.28571,553.214286 C1287.22768,553.214286 1287.17634,553.194197 1287.1317,553.154018 L1286.50893,552.53125 C1285.97768,553.169646 1285.26675,553.675221 1284.37612,554.047991 C1283.48549,554.420761 1282.52679,554.607143 1281.5,554.607143 C1280.47321,554.607143 1279.51451,554.420761 1278.62388,554.047991 C1277.73325,553.675221 1277.02232,553.169646 1276.49107,552.53125 L1275.8683,553.154018 C1275.82812,553.194197 1275.77679,553.214286 1275.71429,553.214286 C1275.69643,553.214286 1275.66964,553.209821 1275.63393,553.200893 C1275.54464,553.165178 1275.5,553.098215 1275.5,553 L1275.5,550.642857 C1275.5,550.580357 1275.52009,550.529018 1275.56027,550.488839 C1275.60045,550.448661 1275.65179,550.428571 1275.71429,550.428571 L1278.07143,550.428571 C1278.16964,550.428571 1278.23661,550.473214 1278.27232,550.5625 C1278.30804,550.647322 1278.29241,550.725446 1278.22545,550.796875 L1277.5558,551.466518 C1277.85491,551.87277 1278.2779,552.2154 1278.82478,552.49442 C1279.37165,552.773439 1279.97768,552.957589 1280.64286,553.046875 L1280.64286,548.714286 L1279.35714,548.714286 C1279.24107,548.714286 1279.14063,548.671875 1279.0558,548.587054 C1278.97098,548.502232 1278.92857,548.401786 1278.92857,548.285714 L1278.92857,547.428571 C1278.92857,547.312499 1278.97098,547.212054 1279.0558,547.127232 C1279.14063,547.04241 1279.24107,547 1279.35714,547 L1280.64286,547 L1280.64286,545.908482 C1280.38393,545.756696 1280.17634,545.550225 1280.02009,545.289062 C1279.86384,545.0279 1279.78571,544.741073 1279.78571,544.428571 C1279.78571,543.955355 1279.95312,543.551341 1280.28795,543.216518 C1280.62277,542.881695 1281.02678,542.714286 1281.5,542.714286 C1281.97322,542.714286 1282.37723,542.881695 1282.71205,543.216518 C1283.04688,543.551341 1283.21429,543.955355 1283.21429,544.428571 C1283.21429,544.741073 1283.13616,545.0279 1282.97991,545.289062 C1282.82366,545.550225 1282.61607,545.756696 1282.35714,545.908482 L1282.35714,547 L1283.64286,547 C1283.75893,547 1283.85937,547.04241 1283.9442,547.127232 C1284.02902,547.212054 1284.07143,547.312499 1284.07143,547.428571 L1284.07143,548.285714 C1284.07143,548.401786 1284.02902,548.502232 1283.9442,548.587054 C1283.85937,548.671875 1283.75893,548.714286 1283.64286,548.714286 L1282.35714,548.714286 L1282.35714,553.046875 C1283.02232,552.957589 1283.62835,552.773439 1284.17522,552.49442 C1284.7221,552.2154 1285.14509,551.87277 1285.4442,551.466518 L1284.77455,550.796875 C1284.70759,550.725446 1284.69196,550.647322 1284.72768,550.5625 C1284.76339,550.473214 1284.83036,550.428571 1284.92857,550.428571 L1287.28571,550.428571 C1287.34821,550.428571 1287.39955,550.448661 1287.43973,550.488839 C1287.47991,550.529018 1287.5,550.580357 1287.5,550.642857 Z" id=""></path>
        </g>
    </g>
</svg>