<?xml version="1.0" encoding="UTF-8" standalone="no"?>
<svg width="12px" height="13px" viewBox="0 0 12 13" version="1.1" xmlns="http://www.w3.org/2000/svg" xmlns:xlink="http://www.w3.org/1999/xlink">
    <!-- Generator: Sketch 3.7.2 (28276) - http://www.bohemiancoding.com/sketch -->
    <title></title>
    <desc>Created with Sketch.</desc>
    <defs></defs>
    <g id="Page-1" stroke="none" stroke-width="1" fill="none" fill-rule="evenodd" fill-opacity="0.54">
        <g id="cb-icon-new-sprite" transform="translate(0.000000, -699.000000)" fill="#000000">
            <path d="M11.3571429,702.285714 C11.5357152,702.285714 11.6874994,702.348214 11.8125,702.473214 C11.9375006,702.598215 12,702.749999 12,702.928571 L12,711.071429 C12,711.250001 11.9375006,711.401785 11.8125,711.526786 C11.6874994,711.651786 11.5357152,711.714286 11.3571429,711.714286 L4.92857143,711.714286 C4.74999911,711.714286 4.59821491,711.651786 4.47321429,711.526786 C4.34821366,711.401785 4.28571429,711.250001 4.28571429,711.071429 L4.28571429,709.142857 L0.642857143,709.142857 C0.464284821,709.142857 0.312500625,709.080358 0.1875,708.955357 C0.062499375,708.830357 0,708.678572 0,708.5 L0,704 C0,703.821428 0.0446424107,703.625001 0.133928571,703.410714 C0.223214732,703.196428 0.330356518,703.026786 0.455357143,702.901786 L3.1875,700.169643 C3.31250063,700.044642 3.48214179,699.9375 3.69642857,699.848214 C3.91071536,699.758928 4.10714196,699.714286 4.28571429,699.714286 L7.07142857,699.714286 C7.25000089,699.714286 7.40178509,699.776785 7.52678571,699.901786 C7.65178634,700.026786 7.71428571,700.178571 7.71428571,700.357143 L7.71428571,702.553571 C8.01785866,702.374999 8.30357009,702.285714 8.57142857,702.285714 L11.3571429,702.285714 L11.3571429,702.285714 Z M7.71428571,703.712054 L5.71205357,705.714286 L7.71428571,705.714286 L7.71428571,703.712054 L7.71428571,703.712054 Z M3.42857143,701.140625 L1.42633929,703.142857 L3.42857143,703.142857 L3.42857143,701.140625 L3.42857143,701.140625 Z M4.74107143,705.473214 L6.85714286,703.357143 L6.85714286,700.571429 L4.28571429,700.571429 L4.28571429,703.357143 C4.28571429,703.535715 4.22321491,703.687499 4.09821429,703.8125 C3.97321366,703.937501 3.82142946,704 3.64285714,704 L0.857142857,704 L0.857142857,708.285714 L4.28571429,708.285714 L4.28571429,706.571429 C4.28571429,706.392856 4.3303567,706.19643 4.41964286,705.982143 C4.50892902,705.767856 4.6160708,705.598215 4.74107143,705.473214 L4.74107143,705.473214 L4.74107143,705.473214 Z M11.1428571,703.142857 L8.57142857,703.142857 L8.57142857,705.928571 C8.57142857,706.107144 8.5089292,706.258928 8.38392857,706.383929 C8.25892795,706.508929 8.10714375,706.571429 7.92857143,706.571429 L5.14285714,706.571429 L5.14285714,710.857143 L11.1428571,710.857143 L11.1428571,703.142857 Z" id=""></path>
        </g>
    </g>
</svg>