<?xml version="1.0" encoding="UTF-8" standalone="no"?>
<svg width="13px" height="14px" viewBox="0 0 13 14" version="1.1" xmlns="http://www.w3.org/2000/svg" xmlns:xlink="http://www.w3.org/1999/xlink">
    <!-- Generator: Sketch 3.7.2 (28276) - http://www.bohemiancoding.com/sketch -->
    <title></title>
    <desc>Created with Sketch.</desc>
    <defs></defs>
    <g id="Page-1" stroke="none" stroke-width="1" fill="none" fill-rule="evenodd">
        <path d="M6.42857143,0.214285714 C7.5948719,0.214285714 8.67047499,0.501671233 9.65541295,1.07645089 C10.6403509,1.65123055 11.420198,2.43107766 11.9949777,3.41601562 C12.5697573,4.40095359 12.8571429,5.47655667 12.8571429,6.64285714 C12.8571429,7.80915762 12.5697573,8.8847607 11.9949777,9.86969866 C11.420198,10.8546366 10.6403509,11.6344837 9.65541295,12.2092634 C8.67047499,12.7840431 7.5948719,13.0714286 6.42857143,13.0714286 C5.26227095,13.0714286 4.18666787,12.7840431 3.20172991,12.2092634 C2.21679195,11.6344837 1.43694484,10.8546366 0.862165179,9.86969866 C0.287385519,8.8847607 0,7.80915762 0,6.64285714 C0,5.47655667 0.287385519,4.40095359 0.862165179,3.41601562 C1.43694484,2.43107766 2.21679195,1.65123055 3.20172991,1.07645089 C4.18666787,0.501671233 5.26227095,0.214285714 6.42857143,0.214285714 L6.42857143,0.214285714 Z M7.5,10.6523438 L7.5,9.06194196 C7.5,8.98381657 7.47488864,8.91824803 7.42466518,8.86523438 C7.37444171,8.81222072 7.3130584,8.78571429 7.24051339,8.78571429 L5.63337054,8.78571429 C5.56082553,8.78571429 5.49665206,8.81361579 5.44084821,8.86941964 C5.38504436,8.92522349 5.35714286,8.98939696 5.35714286,9.06194196 L5.35714286,10.6523438 C5.35714286,10.7248888 5.38504436,10.7890622 5.44084821,10.8448661 C5.49665206,10.9006699 5.56082553,10.9285714 5.63337054,10.9285714 L7.24051339,10.9285714 C7.3130584,10.9285714 7.37444171,10.902065 7.42466518,10.8490513 C7.47488864,10.7960377 7.5,10.7304691 7.5,10.6523438 L7.5,10.6523438 Z M7.48325893,7.77287946 L7.63392857,2.57477679 C7.63392857,2.50781217 7.60602706,2.45758945 7.55022321,2.42410714 C7.49441936,2.37946406 7.42745575,2.35714286 7.34933036,2.35714286 L5.5078125,2.35714286 C5.42968711,2.35714286 5.36272349,2.37946406 5.30691964,2.42410714 C5.25111579,2.45758945 5.22321429,2.50781217 5.22321429,2.57477679 L5.36551339,7.77287946 C5.36551339,7.82868331 5.3934149,7.87751095 5.44921875,7.91936384 C5.5050226,7.96121673 5.57198622,7.98214286 5.65011161,7.98214286 L7.19866071,7.98214286 C7.2767861,7.98214286 7.34235465,7.96121673 7.3953683,7.91936384 C7.44838196,7.87751095 7.47767854,7.82868331 7.48325893,7.77287946 L7.48325893,7.77287946 Z" id="" fill="#F2A944"></path>
    </g>
</svg>