<?xml version="1.0" encoding="UTF-8" standalone="no"?>
<svg width="13px" height="13px" viewBox="0 0 13 13" version="1.1" xmlns="http://www.w3.org/2000/svg" xmlns:xlink="http://www.w3.org/1999/xlink">
    <!-- Generator: Sketch 3.7.2 (28276) - http://www.bohemiancoding.com/sketch -->
    <title></title>
    <desc>Created with Sketch.</desc>
    <defs></defs>
    <g id="Page-1" stroke="none" stroke-width="1" fill="none" fill-rule="evenodd">
        <g id="Desktop-HD" transform="translate(-379.000000, -408.000000)" fill="#F2A944">
            <path d="M392,413.054688 C392,413.169271 391.932292,413.29427 391.796875,413.429688 L388.960938,416.195312 L389.632812,420.101562 C389.638021,420.138021 389.640625,420.190104 389.640625,420.257812 C389.640625,420.367188 389.613282,420.459635 389.558594,420.535156 C389.503906,420.610677 389.42448,420.648438 389.320312,420.648438 C389.221354,420.648438 389.117188,420.617188 389.007812,420.554688 L385.5,418.710938 L381.992188,420.554688 C381.877604,420.617188 381.773438,420.648438 381.679688,420.648438 C381.570312,420.648438 381.488282,420.610677 381.433594,420.535156 C381.378906,420.459635 381.351562,420.367188 381.351562,420.257812 C381.351562,420.226562 381.356771,420.17448 381.367188,420.101562 L382.039062,416.195312 L379.195312,413.429688 C379.065104,413.289062 379,413.164063 379,413.054688 C379,412.861978 379.145832,412.742188 379.4375,412.695312 L383.359375,412.125 L385.117188,408.570312 C385.216146,408.35677 385.343749,408.25 385.5,408.25 C385.656251,408.25 385.783854,408.35677 385.882812,408.570312 L387.640625,412.125 L391.5625,412.695312 C391.854168,412.742188 392,412.861978 392,413.054688 L392,413.054688 Z" id=""></path>
        </g>
    </g>
</svg>