<?xml version="1.0" encoding="UTF-8"?>
<svg width="81px" height="34px" viewBox="0 0 81 34" version="1.1" xmlns="http://www.w3.org/2000/svg" xmlns:xlink="http://www.w3.org/1999/xlink">
    <!-- Generator: Sketch 42 (36781) - http://www.bohemiancoding.com/sketch -->
    <title>Group 2</title>
    <desc>Created with Sketch.</desc>
    <defs>
        <polygon id="path-1" points="26.8528 27 0.0628 27 0.0628 0.2097 26.8528 0.2097"></polygon>
        <polygon id="path-3" points="26.8528 27 0.0628 27 0.0628 0.2097 26.8528 0.2097"></polygon>
    </defs>
    <g id="Page-1" stroke="none" stroke-width="1" fill="none" fill-rule="evenodd" opacity="0.800000012">
        <g id="Group-2" transform="translate(0.000000, -1.000000)">
            <g id="icon-uptime">
                <g id="Home-Page-Versions">
                    <g id="Desktop-HD-Copy-23">
                        <g id="Group-3">
                            <g id="99uptime">
                                <g id="Page-1">
                                    <g id="Group">
                                        <g id="Group-3" transform="translate(11.000000, 7.821800)">
                                            <g id="Fill-1-Clipped">
                                                <g>
                                                    <mask id="mask-2" fill="white">
                                                        <use xlink:href="#path-1"></use>
                                                    </mask>
                                                    <g id="path-1"></g>
                                                    <path d="M26.8528,13.6047 C26.8528,21.0027 20.8558,27.0007 13.4578,27.0007 C6.0598,27.0007 0.0628,21.0027 0.0628,13.6047 C0.0628,6.2077 6.0598,0.2097 13.4578,0.2097 C20.8558,0.2097 26.8528,6.2077 26.8528,13.6047" id="Fill-1" fill="#FFFFFF" fill-rule="nonzero" mask="url(#mask-2)"></path>
                                                </g>
                                            </g>
                                        </g>
                                        <g id="Group-6" transform="translate(11.000000, 7.821800)" fill-rule="nonzero" fill="#646464">
                                            <path d="M13.4578,0.2101 C6.0598,0.2101 0.0628,6.2071 0.0628,13.6051 C0.0628,21.0031 6.0598,27.0001 13.4578,27.0001 C20.8558,27.0001 26.8528,21.0031 26.8528,13.6051 C26.8528,6.2071 20.8558,0.2101 13.4578,0.2101 M13.4578,2.7101 C19.4658,2.7101 24.3528,7.5981 24.3528,13.6051 C24.3528,19.6121 19.4658,24.5001 13.4578,24.5001 C7.4508,24.5001 2.5628,19.6121 2.5628,13.6051 C2.5628,7.5981 7.4508,2.7101 13.4578,2.7101" id="Fill-4"></path>
                                        </g>
                                        <path d="M24.4578,10.5319 C30.4658,10.5319 35.3528,15.4199 35.3528,21.4269 C35.3528,27.4339 30.4658,32.3219 24.4578,32.3219 C18.4508,32.3219 13.5628,27.4339 13.5628,21.4269 C13.5628,15.4199 18.4508,10.5319 24.4578,10.5319" id="Fill-7" fill="#ECECFF" fill-rule="nonzero"></path>
                                        <path d="M13.5627,21.4265 C13.5627,27.4345 18.4507,32.3225 24.4577,32.3225 L24.4577,10.5315 C18.4507,10.5315 13.5627,15.4195 13.5627,21.4265" id="Fill-9" fill="#FFFFFF" fill-rule="nonzero"></path>
                                        <path d="M23.7698,22.364 C23.7698,22.736 24.0718,23.038 24.4448,23.038 C24.8168,23.038 25.1198,22.736 25.1198,22.364 C25.1198,21.991 24.8168,21.689 24.4448,21.689 C24.0718,21.689 23.7698,21.991 23.7698,22.364" id="Fill-11" fill="#646464" fill-rule="nonzero"></path>
                                        <path d="M24.4446,22.0378 C24.2656,22.0378 24.1196,22.1838 24.1196,22.3638 C24.1196,22.5428 24.2656,22.6888 24.4446,22.6888 C24.6236,22.6888 24.7696,22.5428 24.7696,22.3638 C24.7696,22.1838 24.6236,22.0378 24.4446,22.0378 M24.4446,24.0378 C23.5216,24.0378 22.7696,23.2868 22.7696,22.3638 C22.7696,21.4398 23.5216,20.6888 24.4446,20.6888 C25.3676,20.6888 26.1196,21.4398 26.1196,22.3638 C26.1196,23.2868 25.3676,24.0378 24.4446,24.0378" id="Fill-13" fill="#646464" fill-rule="nonzero"></path>
                                        <path d="M24.5652,23.364 C24.3792,23.364 24.1922,23.312 24.0282,23.208 L19.9482,20.613 C19.4822,20.316 19.3452,19.698 19.6412,19.232 C19.9382,18.766 20.5562,18.628 21.0222,18.926 L24.5252,21.153 L29.7042,17.357 C30.1502,17.031 30.7762,17.128 31.1022,17.572 C31.4282,18.018 31.3322,18.643 30.8872,18.97 L25.1562,23.171 C24.9812,23.299 24.7732,23.364 24.5652,23.364" id="Fill-15" fill="#646464" fill-rule="nonzero"></path>
                                        <path d="M7.7483,13.6452 L7.7483,16.3712 L10.0063,16.3712 C10.2823,15.5852 10.6063,14.8232 11.0003,14.1012 L11.0003,13.6452 L7.7483,13.6452 Z" id="Fill-17" fill="#ECECFF" fill-rule="nonzero"></path>
                                        <path d="M9.7029,17.3366 L7.7479,17.3366 L7.7479,19.7506 C7.7479,20.0176 7.5329,20.2326 7.2659,20.2326 C6.9989,20.2326 6.7829,20.0176 6.7829,19.7506 L6.7829,17.3366 L4.1789,17.3366 C3.9119,17.3366 3.6969,17.1196 3.6969,16.8536 C3.6969,16.5866 3.9119,16.3706 4.1789,16.3706 L6.7829,16.3706 L6.7829,13.6456 L4.1789,13.6456 C3.9119,13.6456 3.6969,13.4296 3.6969,13.1626 C3.6969,12.8956 3.9119,12.6796 4.1789,12.6796 L6.7829,12.6796 L6.7829,10.3996 C6.7829,10.1336 6.9989,9.9166 7.2659,9.9166 C7.5329,9.9166 7.7479,10.1336 7.7479,10.3996 L7.7479,12.6796 L10.9999,12.6796 L10.9999,10.3996 C10.9999,10.1336 11.2159,9.9166 11.4829,9.9166 C11.7499,9.9166 11.9659,10.1336 11.9659,10.3996 L11.9659,12.5796 C13.0759,11.0166 14.4669,9.6686 16.0709,8.6146 L1.9309,8.6146 L1.9309,21.9516 C1.9309,22.2736 2.1929,22.5356 2.5139,22.5356 L9.1879,22.5356 C9.1619,22.1676 9.1319,21.8016 9.1319,21.4266 C9.1319,20.0086 9.3409,18.6406 9.7029,17.3366" id="Fill-19" fill="#FFFFFF" fill-rule="nonzero"></path>
                                        <path d="M11.4832,9.9167 C11.2162,9.9167 11.0002,10.1337 11.0002,10.3997 L11.0002,12.6797 L7.7492,12.6797 L7.7492,10.3997 C7.7492,10.1337 7.5322,9.9167 7.2662,9.9167 C6.9992,9.9167 6.7832,10.1337 6.7832,10.3997 L6.7832,12.6797 L4.1792,12.6797 C3.9122,12.6797 3.6962,12.8957 3.6962,13.1627 C3.6962,13.4297 3.9122,13.6457 4.1792,13.6457 L6.7832,13.6457 L6.7832,16.3707 L4.1792,16.3707 C3.9122,16.3707 3.6962,16.5867 3.6962,16.8537 C3.6962,17.1197 3.9122,17.3367 4.1792,17.3367 L6.7832,17.3367 L6.7832,19.7507 C6.7832,20.0177 6.9992,20.2327 7.2662,20.2327 C7.5322,20.2327 7.7492,20.0177 7.7492,19.7507 L7.7492,17.3367 L9.7032,17.3367 C9.7942,17.0097 9.8952,16.6877 10.0062,16.3707 L7.7492,16.3707 L7.7492,13.6457 L11.0002,13.6457 L11.0002,14.1017 C11.2902,13.5717 11.6182,13.0687 11.9652,12.5797 L11.9652,10.3997 C11.9652,10.1337 11.7502,9.9167 11.4832,9.9167" id="Fill-21" fill="#646464" fill-rule="nonzero"></path>
                                        <g id="Group-25" transform="translate(0.000000, 0.821800)" fill-rule="nonzero" fill="#646464">
                                            <path d="M21.0549,1.8136 L18.3919,1.8136 L18.3919,1.1436 C18.3919,0.6106 17.9599,0.1776 17.4269,0.1776 C16.8929,0.1776 16.4609,0.6106 16.4609,1.1436 L16.4609,1.8136 L7.1079,1.8136 L7.1079,1.1436 C7.1079,0.6106 6.6759,0.1776 6.1429,0.1776 C5.6099,0.1776 5.1779,0.6106 5.1779,1.1436 L5.1779,1.8136 L2.5139,1.8136 C1.1279,1.8136 -9.99999975e-05,2.9426 -9.99999975e-05,4.3286 L-9.99999975e-05,6.8276 L-9.99999975e-05,21.1296 C-9.99999975e-05,22.5166 1.1279,23.6446 2.5139,23.6446 L9.4369,23.6446 C9.3099,23.0156 9.2359,22.3686 9.1879,21.7136 L2.5139,21.7136 C2.1929,21.7136 1.9309,21.4526 1.9309,21.1296 L1.9309,7.7936 L16.0709,7.7936 C17.3649,6.9426 18.7959,6.2916 20.3209,5.8616 C20.7539,5.7406 21.1909,5.6336 21.6379,5.5496 C22.2689,5.4326 22.9139,5.3616 23.5689,5.3246 L23.5689,4.3286 C23.5689,2.9426 22.4409,1.8136 21.0549,1.8136" id="Fill-23"></path>
                                        </g>
                                    </g>
                                </g>
                            </g>
                        </g>
                    </g>
                </g>
            </g>
            <g id="icon-uptime-hover" transform="translate(43.000000, 0.000000)">
                <g id="Home-Page-Versions">
                    <g id="Desktop-HD-Copy-24">
                        <g id="Group-3">
                            <g id="99uptime">
                                <g id="Page-1">
                                    <g id="Group">
                                        <g id="Group-3" transform="translate(11.000000, 7.821800)">
                                            <g id="Fill-1-Clipped">
                                                <g>
                                                    <mask id="mask-4" fill="white">
                                                        <use xlink:href="#path-3"></use>
                                                    </mask>
                                                    <g id="path-1"></g>
                                                    <path d="M26.8528,13.6047 C26.8528,21.0027 20.8558,27.0007 13.4578,27.0007 C6.0598,27.0007 0.0628,21.0027 0.0628,13.6047 C0.0628,6.2077 6.0598,0.2097 13.4578,0.2097 C20.8558,0.2097 26.8528,6.2077 26.8528,13.6047" id="Fill-1" fill="#FFFFFF" fill-rule="nonzero" mask="url(#mask-4)"></path>
                                                </g>
                                            </g>
                                        </g>
                                        <g id="Group-6" transform="translate(11.000000, 7.821800)" fill-rule="nonzero" fill="#7864FF">
                                            <path d="M13.4578,0.2101 C6.0598,0.2101 0.0628,6.2071 0.0628,13.6051 C0.0628,21.0031 6.0598,27.0001 13.4578,27.0001 C20.8558,27.0001 26.8528,21.0031 26.8528,13.6051 C26.8528,6.2071 20.8558,0.2101 13.4578,0.2101 M13.4578,2.7101 C19.4658,2.7101 24.3528,7.5981 24.3528,13.6051 C24.3528,19.6121 19.4658,24.5001 13.4578,24.5001 C7.4508,24.5001 2.5628,19.6121 2.5628,13.6051 C2.5628,7.5981 7.4508,2.7101 13.4578,2.7101" id="Fill-4"></path>
                                        </g>
                                        <path d="M24.4578,10.5319 C30.4658,10.5319 35.3528,15.4199 35.3528,21.4269 C35.3528,27.4339 30.4658,32.3219 24.4578,32.3219 C18.4508,32.3219 13.5628,27.4339 13.5628,21.4269 C13.5628,15.4199 18.4508,10.5319 24.4578,10.5319" id="Fill-7" fill="#ECECFF" fill-rule="nonzero"></path>
                                        <path d="M13.5627,21.4265 C13.5627,27.4345 18.4507,32.3225 24.4577,32.3225 L24.4577,10.5315 C18.4507,10.5315 13.5627,15.4195 13.5627,21.4265" id="Fill-9" fill="#FFFFFF" fill-rule="nonzero"></path>
                                        <path d="M23.7698,22.364 C23.7698,22.736 24.0718,23.038 24.4448,23.038 C24.8168,23.038 25.1198,22.736 25.1198,22.364 C25.1198,21.991 24.8168,21.689 24.4448,21.689 C24.0718,21.689 23.7698,21.991 23.7698,22.364" id="Fill-11" fill="#646464" fill-rule="nonzero"></path>
                                        <path d="M24.5652,23.364 C24.3792,23.364 24.1922,23.312 24.0282,23.208 L19.9482,20.613 C19.4822,20.316 19.3452,19.698 19.6412,19.232 C19.9382,18.766 20.5562,18.628 21.0222,18.926 L24.5252,21.153 L29.7042,17.357 C30.1502,17.031 30.7762,17.128 31.1022,17.572 C31.4282,18.018 31.3322,18.643 30.8872,18.97 L25.1562,23.171 C24.9812,23.299 24.7732,23.364 24.5652,23.364" id="Fill-15" fill="#7864FF" fill-rule="nonzero"></path>
                                        <path d="M24.4446,22.0378 C24.2656,22.0378 24.1196,22.1838 24.1196,22.3638 C24.1196,22.5428 24.2656,22.6888 24.4446,22.6888 C24.6236,22.6888 24.7696,22.5428 24.7696,22.3638 C24.7696,22.1838 24.6236,22.0378 24.4446,22.0378 M24.4446,24.0378 C23.5216,24.0378 22.7696,23.2868 22.7696,22.3638 C22.7696,21.4398 23.5216,20.6888 24.4446,20.6888 C25.3676,20.6888 26.1196,21.4398 26.1196,22.3638 C26.1196,23.2868 25.3676,24.0378 24.4446,24.0378" id="Fill-13" fill="#8F7FFB" fill-rule="nonzero"></path>
                                        <path d="M7.7483,13.6452 L7.7483,16.3712 L10.0063,16.3712 C10.2823,15.5852 10.6063,14.8232 11.0003,14.1012 L11.0003,13.6452 L7.7483,13.6452 Z" id="Fill-17" fill="#ECECFF" fill-rule="nonzero"></path>
                                        <path d="M9.7029,17.3366 L7.7479,17.3366 L7.7479,19.7506 C7.7479,20.0176 7.5329,20.2326 7.2659,20.2326 C6.9989,20.2326 6.7829,20.0176 6.7829,19.7506 L6.7829,17.3366 L4.1789,17.3366 C3.9119,17.3366 3.6969,17.1196 3.6969,16.8536 C3.6969,16.5866 3.9119,16.3706 4.1789,16.3706 L6.7829,16.3706 L6.7829,13.6456 L4.1789,13.6456 C3.9119,13.6456 3.6969,13.4296 3.6969,13.1626 C3.6969,12.8956 3.9119,12.6796 4.1789,12.6796 L6.7829,12.6796 L6.7829,10.3996 C6.7829,10.1336 6.9989,9.9166 7.2659,9.9166 C7.5329,9.9166 7.7479,10.1336 7.7479,10.3996 L7.7479,12.6796 L10.9999,12.6796 L10.9999,10.3996 C10.9999,10.1336 11.2159,9.9166 11.4829,9.9166 C11.7499,9.9166 11.9659,10.1336 11.9659,10.3996 L11.9659,12.5796 C13.0759,11.0166 14.4669,9.6686 16.0709,8.6146 L1.9309,8.6146 L1.9309,21.9516 C1.9309,22.2736 2.1929,22.5356 2.5139,22.5356 L9.1879,22.5356 C9.1619,22.1676 9.1319,21.8016 9.1319,21.4266 C9.1319,20.0086 9.3409,18.6406 9.7029,17.3366" id="Fill-19" fill="#ECECFF" fill-rule="nonzero"></path>
                                        <path d="M11.4832,9.9167 C11.2162,9.9167 11.0002,10.1337 11.0002,10.3997 L11.0002,12.6797 L7.7492,12.6797 L7.7492,10.3997 C7.7492,10.1337 7.5322,9.9167 7.2662,9.9167 C6.9992,9.9167 6.7832,10.1337 6.7832,10.3997 L6.7832,12.6797 L4.1792,12.6797 C3.9122,12.6797 3.6962,12.8957 3.6962,13.1627 C3.6962,13.4297 3.9122,13.6457 4.1792,13.6457 L6.7832,13.6457 L6.7832,16.3707 L4.1792,16.3707 C3.9122,16.3707 3.6962,16.5867 3.6962,16.8537 C3.6962,17.1197 3.9122,17.3367 4.1792,17.3367 L6.7832,17.3367 L6.7832,19.7507 C6.7832,20.0177 6.9992,20.2327 7.2662,20.2327 C7.5322,20.2327 7.7492,20.0177 7.7492,19.7507 L7.7492,17.3367 L9.7032,17.3367 C9.7942,17.0097 9.8952,16.6877 10.0062,16.3707 L7.7492,16.3707 L7.7492,13.6457 L11.0002,13.6457 L11.0002,14.1017 C11.2902,13.5717 11.6182,13.0687 11.9652,12.5797 L11.9652,10.3997 C11.9652,10.1337 11.7502,9.9167 11.4832,9.9167" id="Fill-21" fill="#7864FF" fill-rule="nonzero"></path>
                                        <g id="Group-25" transform="translate(0.000000, 0.821800)" fill-rule="nonzero" fill="#7864FF">
                                            <path d="M21.0549,1.8136 L18.3919,1.8136 L18.3919,1.1436 C18.3919,0.6106 17.9599,0.1776 17.4269,0.1776 C16.8929,0.1776 16.4609,0.6106 16.4609,1.1436 L16.4609,1.8136 L7.1079,1.8136 L7.1079,1.1436 C7.1079,0.6106 6.6759,0.1776 6.1429,0.1776 C5.6099,0.1776 5.1779,0.6106 5.1779,1.1436 L5.1779,1.8136 L2.5139,1.8136 C1.1279,1.8136 -9.99999975e-05,2.9426 -9.99999975e-05,4.3286 L-9.99999975e-05,6.8276 L-9.99999975e-05,21.1296 C-9.99999975e-05,22.5166 1.1279,23.6446 2.5139,23.6446 L9.4369,23.6446 C9.3099,23.0156 9.2359,22.3686 9.1879,21.7136 L2.5139,21.7136 C2.1929,21.7136 1.9309,21.4526 1.9309,21.1296 L1.9309,7.7936 L16.0709,7.7936 C17.3649,6.9426 18.7959,6.2916 20.3209,5.8616 C20.7539,5.7406 21.1909,5.6336 21.6379,5.5496 C22.2689,5.4326 22.9139,5.3616 23.5689,5.3246 L23.5689,4.3286 C23.5689,2.9426 22.4409,1.8136 21.0549,1.8136" id="Fill-23"></path>
                                        </g>
                                    </g>
                                </g>
                            </g>
                        </g>
                    </g>
                </g>
            </g>
        </g>
    </g>
</svg>