<?xml version="1.0" encoding="UTF-8"?>
<svg width="76px" height="34px" viewBox="0 0 76 34" version="1.1" xmlns="http://www.w3.org/2000/svg" xmlns:xlink="http://www.w3.org/1999/xlink">
    <!-- Generator: Sketch 42 (36781) - http://www.bohemiancoding.com/sketch -->
    <title>Group</title>
    <desc>Created with Sketch.</desc>
    <defs>
        <polygon id="path-1" points="0.5951 0.081 6.3711 0.081 6.3711 4.4516 0.5951 4.4516"></polygon>
        <polygon id="path-3" points="15.6749785 32 0 32 0 0.738 31.349957 0.738 31.349957 32"></polygon>
        <polygon id="path-5" points="0.5951 0.081 6.3711 0.081 6.3711 4.4516 0.5951 4.4516"></polygon>
        <polygon id="path-7" points="15.6749785 32 0 32 0 0.738 31.349957 0.738 31.349957 32"></polygon>
    </defs>
    <g id="Page-1" stroke="none" stroke-width="1" fill="none" fill-rule="evenodd" opacity="0.799999952">
        <g id="Group" transform="translate(0.000000, -1.000000)">
            <g id="icon-support">
                <g id="Home-Page-Versions">
                    <g id="Desktop-HD-Copy-23">
                        <g id="Group-6">
                            <g id="support24">
                                <g id="Page-1">
                                    <g id="Desktop-HD-Copy-5">
                                        <g id="Page-1">
                                            <path d="M13.8446,9.4666 C15.9276,7.0186 19.0246,5.4576 22.4836,5.4576 C28.7386,5.4576 33.8266,10.5456 33.8266,16.8006 C33.8266,20.0566 32.4406,22.9876 30.2366,25.0576 L31.7716,26.5946 C34.3696,24.1296 35.9996,20.6556 35.9996,16.8006 C35.9996,9.3476 29.9366,3.2836 22.4836,3.2836 C18.6296,3.2836 15.1566,4.9136 12.6926,7.5096 L12.7506,7.5686 C13.2936,8.1126 13.6436,8.7716 13.8446,9.4666" id="Fill-1" fill="#646464" fill-rule="nonzero"></path>
                                            <path d="M22.4833,5.4578 C19.0243,5.4578 15.9273,7.0188 13.8443,9.4668 C14.2903,11.0118 13.9163,12.7578 12.6883,13.9888 L11.2433,15.4318 C12.0413,16.8338 13.0743,18.4628 14.8013,20.1868 C16.5313,21.9188 18.1633,22.9518 19.5583,23.7468 L21.0003,22.3068 C21.4323,21.8708 21.9593,21.5328 22.5353,21.3038 L22.5353,5.4598 C22.5173,5.4598 22.5013,5.4578 22.4833,5.4578" id="Fill-3" fill="#FFFFFF" fill-rule="nonzero"></path>
                                            <path d="M22.535,5.4597 L22.535,21.3037 C23.081,21.0857 23.672,20.9657 24.273,20.9657 C25.475,20.9657 26.591,21.4147 27.414,22.2307 L30.237,25.0577 C32.44,22.9867 33.827,20.0567 33.827,16.8007 C33.827,10.5637 28.766,5.4877 22.535,5.4597" id="Fill-5" fill="#ECECFF" fill-rule="nonzero"></path>
                                            <path d="M20.6136,4.3709 C20.6036,4.3109 20.5946,3.1419 20.5946,3.1419 C20.5946,2.5119 21.1066,1.9999 21.7366,1.9999 L23.2296,1.9999 C23.8606,1.9999 24.3716,2.5119 24.3716,3.1419 L24.3716,4.1879 C24.3716,4.2069 24.3666,4.2239 24.3656,4.2419 C23.1176,4.0969 21.8516,4.1389 20.6136,4.3709" id="Fill-7" fill="#646464" fill-rule="nonzero"></path>
                                            <g id="Group-11" transform="translate(19.000000, 0.918800)">
                                                <g id="Fill-9-Clipped">
                                                    <g>
                                                        <mask id="mask-2" fill="white">
                                                            <use xlink:href="#path-1"></use>
                                                        </mask>
                                                        <g id="path-1"></g>
                                                        <path d="M2.5951,2.2226 L2.5951,2.3026 C3.1841,2.2436 3.7791,2.2246 4.3711,2.2456 L4.3711,2.2226 C4.3711,2.1446 4.3071,2.0806 4.2291,2.0806 L2.7371,2.0806 C2.6581,2.0806 2.5951,2.1446 2.5951,2.2226 M1.6141,4.4516 C1.4091,4.4516 1.2081,4.3896 1.0391,4.2706 C0.8181,4.1156 0.6691,3.8776 0.6261,3.6116 C0.6131,3.5266 0.6041,3.4756 0.5951,2.2306 C0.5951,1.0416 1.5561,0.0806 2.7371,0.0806 L4.2291,0.0806 C5.4101,0.0806 6.3711,1.0416 6.3711,2.2226 L6.3711,3.2686 C6.3711,3.3146 6.3661,3.3916 6.3591,3.4376 C6.2841,3.9746 5.7961,4.3836 5.2511,4.3156 C4.0921,4.1816 2.9291,4.2226 1.7991,4.4346 C1.7371,4.4466 1.6751,4.4516 1.6141,4.4516" id="Fill-9" fill="#646464" fill-rule="nonzero" mask="url(#mask-2)"></path>
                                                    </g>
                                                </g>
                                            </g>
                                            <path d="M23.1532,16.8006 C23.1532,17.1706 22.8532,17.4706 22.4832,17.4706 C22.1132,17.4706 21.8132,17.1706 21.8132,16.8006 C21.8132,16.4306 22.1132,16.1306 22.4832,16.1306 C22.8532,16.1306 23.1532,16.4306 23.1532,16.8006" id="Fill-12" fill="#646464" fill-rule="nonzero"></path>
                                            <path d="M22.4833,16.4705 C22.3013,16.4705 22.1533,16.6185 22.1533,16.8005 C22.1533,16.9825 22.3013,17.1305 22.4833,17.1305 C22.6653,17.1305 22.8133,16.9825 22.8133,16.8005 C22.8133,16.6185 22.6653,16.4705 22.4833,16.4705 M22.4833,18.4705 C21.5623,18.4705 20.8133,17.7215 20.8133,16.8005 C20.8133,15.8795 21.5623,15.1305 22.4833,15.1305 C23.4043,15.1305 24.1533,15.8795 24.1533,16.8005 C24.1533,17.7215 23.4043,18.4705 22.4833,18.4705" id="Fill-14" fill="#646464" fill-rule="nonzero"></path>
                                            <path d="M27.8021,19.9207 C27.6781,19.9207 27.5521,19.8977 27.4291,19.8487 L22.1101,17.7087 C21.7311,17.5567 21.4831,17.1897 21.4831,16.7807 L21.4831,9.1267 C21.4831,8.5737 21.9311,8.1267 22.4831,8.1267 C23.0351,8.1267 23.4831,8.5737 23.4831,9.1267 L23.4831,16.1057 L28.1761,17.9927 C28.6881,18.1987 28.9361,18.7807 28.7301,19.2937 C28.5731,19.6847 28.1981,19.9207 27.8021,19.9207" id="Fill-16" fill="#646464" fill-rule="nonzero"></path>
                                            <g id="Group-20" transform="translate(0.000000, 2.918800)">
                                                <g id="Fill-18-Clipped">
                                                    <g>
                                                        <mask id="mask-4" fill="white">
                                                            <use xlink:href="#path-3"></use>
                                                        </mask>
                                                        <g id="path-3"></g>
                                                        <path d="M25.787,20.954 C25.399,20.57 24.862,20.358 24.273,20.358 C23.654,20.358 23.054,20.6 22.634,21.023 L19.956,23.698 L19.234,23.297 C17.647,22.416 15.467,21.206 13.168,18.903 C10.859,16.599 9.65,14.414 8.765,12.818 L8.371,12.115 L11.051,9.438 C11.935,8.551 11.965,7.136 11.117,6.284 L6.167,1.338 C5.783,0.954 5.247,0.738 4.657,0.738 C4.038,0.738 3.441,0.983 3.017,1.407 L1.801,2.627 L1.688,2.816 C1.235,3.395 0.867,4.049 0.588,4.758 C0.33,5.436 0.171,6.079 0.098,6.725 C-0.541,12.026 1.904,16.892 8.536,23.525 C16.398,31.387 22.968,32 24.796,32 C25.107,32 25.297,31.979 25.35,31.976 C26.026,31.894 26.671,31.731 27.321,31.48 C28.023,31.204 28.676,30.837 29.256,30.386 L29.531,30.168 L30.667,29.051 C31.552,28.167 31.581,26.755 30.73,25.904 L25.787,20.954 Z" id="Fill-18" fill="#646464" fill-rule="nonzero" mask="url(#mask-4)"></path>
                                                    </g>
                                                </g>
                                            </g>
                                        </g>
                                    </g>
                                </g>
                            </g>
                        </g>
                    </g>
                </g>
            </g>
            <g id="icon-support-hover" transform="translate(40.000000, 0.000000)">
                <g id="Home-Page-Versions">
                    <g id="Desktop-HD-Copy-24">
                        <g id="Group-6">
                            <g id="support24">
                                <g id="Page-1">
                                    <g id="Desktop-HD-Copy-5">
                                        <g id="Page-1">
                                            <path d="M13.8446,9.4666 C15.9276,7.0186 19.0246,5.4576 22.4836,5.4576 C28.7386,5.4576 33.8266,10.5456 33.8266,16.8006 C33.8266,20.0566 32.4406,22.9876 30.2366,25.0576 L31.7716,26.5946 C34.3696,24.1296 35.9996,20.6556 35.9996,16.8006 C35.9996,9.3476 29.9366,3.2836 22.4836,3.2836 C18.6296,3.2836 15.1566,4.9136 12.6926,7.5096 L12.7506,7.5686 C13.2936,8.1126 13.6436,8.7716 13.8446,9.4666" id="Fill-1" fill="#7864FF" fill-rule="nonzero"></path>
                                            <path d="M22.4833,5.4578 C19.0243,5.4578 15.9273,7.0188 13.8443,9.4668 C14.2903,11.0118 13.9163,12.7578 12.6883,13.9888 L11.2433,15.4318 C12.0413,16.8338 13.0743,18.4628 14.8013,20.1868 C16.5313,21.9188 18.1633,22.9518 19.5583,23.7468 L21.0003,22.3068 C21.4323,21.8708 21.9593,21.5328 22.5353,21.3038 L22.5353,5.4598 C22.5173,5.4598 22.5013,5.4578 22.4833,5.4578" id="Fill-3" fill="#FFFFFF" fill-rule="nonzero"></path>
                                            <path d="M22.535,5.4597 L22.535,21.3037 C23.081,21.0857 23.672,20.9657 24.273,20.9657 C25.475,20.9657 26.591,21.4147 27.414,22.2307 L30.237,25.0577 C32.44,22.9867 33.827,20.0567 33.827,16.8007 C33.827,10.5637 28.766,5.4877 22.535,5.4597" id="Fill-5" fill="#ECECFF" fill-rule="nonzero"></path>
                                            <path d="M20.6136,4.3709 C20.6036,4.3109 20.5946,3.1419 20.5946,3.1419 C20.5946,2.5119 21.1066,1.9999 21.7366,1.9999 L23.2296,1.9999 C23.8606,1.9999 24.3716,2.5119 24.3716,3.1419 L24.3716,4.1879 C24.3716,4.2069 24.3666,4.2239 24.3656,4.2419 C23.1176,4.0969 21.8516,4.1389 20.6136,4.3709" id="Fill-7" fill="#A295F8" fill-rule="nonzero"></path>
                                            <g id="Group-11" transform="translate(19.000000, 0.918800)">
                                                <g id="Fill-9-Clipped">
                                                    <g>
                                                        <mask id="mask-6" fill="white">
                                                            <use xlink:href="#path-5"></use>
                                                        </mask>
                                                        <g id="path-1"></g>
                                                        <path d="M2.5951,2.2226 L2.5951,2.3026 C3.1841,2.2436 3.7791,2.2246 4.3711,2.2456 L4.3711,2.2226 C4.3711,2.1446 4.3071,2.0806 4.2291,2.0806 L2.7371,2.0806 C2.6581,2.0806 2.5951,2.1446 2.5951,2.2226 M1.6141,4.4516 C1.4091,4.4516 1.2081,4.3896 1.0391,4.2706 C0.8181,4.1156 0.6691,3.8776 0.6261,3.6116 C0.6131,3.5266 0.6041,3.4756 0.5951,2.2306 C0.5951,1.0416 1.5561,0.0806 2.7371,0.0806 L4.2291,0.0806 C5.4101,0.0806 6.3711,1.0416 6.3711,2.2226 L6.3711,3.2686 C6.3711,3.3146 6.3661,3.3916 6.3591,3.4376 C6.2841,3.9746 5.7961,4.3836 5.2511,4.3156 C4.0921,4.1816 2.9291,4.2226 1.7991,4.4346 C1.7371,4.4466 1.6751,4.4516 1.6141,4.4516" id="Fill-9" fill="#7864FF" fill-rule="nonzero" mask="url(#mask-6)"></path>
                                                    </g>
                                                </g>
                                            </g>
                                            <path d="M23.1532,16.8006 C23.1532,17.1706 22.8532,17.4706 22.4832,17.4706 C22.1132,17.4706 21.8132,17.1706 21.8132,16.8006 C21.8132,16.4306 22.1132,16.1306 22.4832,16.1306 C22.8532,16.1306 23.1532,16.4306 23.1532,16.8006" id="Fill-12" fill="#646464" fill-rule="nonzero"></path>
                                            <path d="M22.4833,16.4705 C22.3013,16.4705 22.1533,16.6185 22.1533,16.8005 C22.1533,16.9825 22.3013,17.1305 22.4833,17.1305 C22.6653,17.1305 22.8133,16.9825 22.8133,16.8005 C22.8133,16.6185 22.6653,16.4705 22.4833,16.4705 M22.4833,18.4705 C21.5623,18.4705 20.8133,17.7215 20.8133,16.8005 C20.8133,15.8795 21.5623,15.1305 22.4833,15.1305 C23.4043,15.1305 24.1533,15.8795 24.1533,16.8005 C24.1533,17.7215 23.4043,18.4705 22.4833,18.4705" id="Fill-14" fill="#7864FF" fill-rule="nonzero"></path>
                                            <path d="M27.8021,19.9207 C27.6781,19.9207 27.5521,19.8977 27.4291,19.8487 L22.1101,17.7087 C21.7311,17.5567 21.4831,17.1897 21.4831,16.7807 L21.4831,9.1267 C21.4831,8.5737 21.9311,8.1267 22.4831,8.1267 C23.0351,8.1267 23.4831,8.5737 23.4831,9.1267 L23.4831,16.1057 L28.1761,17.9927 C28.6881,18.1987 28.9361,18.7807 28.7301,19.2937 C28.5731,19.6847 28.1981,19.9207 27.8021,19.9207" id="Fill-16" fill="#7864FF" fill-rule="nonzero"></path>
                                            <g id="Group-20" transform="translate(0.000000, 2.918800)">
                                                <g id="Fill-18-Clipped">
                                                    <g>
                                                        <mask id="mask-8" fill="white">
                                                            <use xlink:href="#path-7"></use>
                                                        </mask>
                                                        <g id="path-3"></g>
                                                        <path d="M25.787,20.954 C25.399,20.57 24.862,20.358 24.273,20.358 C23.654,20.358 23.054,20.6 22.634,21.023 L19.956,23.698 L19.234,23.297 C17.647,22.416 15.467,21.206 13.168,18.903 C10.859,16.599 9.65,14.414 8.765,12.818 L8.371,12.115 L11.051,9.438 C11.935,8.551 11.965,7.136 11.117,6.284 L6.167,1.338 C5.783,0.954 5.247,0.738 4.657,0.738 C4.038,0.738 3.441,0.983 3.017,1.407 L1.801,2.627 L1.688,2.816 C1.235,3.395 0.867,4.049 0.588,4.758 C0.33,5.436 0.171,6.079 0.098,6.725 C-0.541,12.026 1.904,16.892 8.536,23.525 C16.398,31.387 22.968,32 24.796,32 C25.107,32 25.297,31.979 25.35,31.976 C26.026,31.894 26.671,31.731 27.321,31.48 C28.023,31.204 28.676,30.837 29.256,30.386 L29.531,30.168 L30.667,29.051 C31.552,28.167 31.581,26.755 30.73,25.904 L25.787,20.954 Z" id="Fill-18" fill="#7864FF" fill-rule="nonzero" mask="url(#mask-8)"></path>
                                                    </g>
                                                </g>
                                            </g>
                                        </g>
                                    </g>
                                </g>
                            </g>
                        </g>
                    </g>
                </g>
            </g>
        </g>
    </g>
</svg>