<?xml version="1.0" encoding="UTF-8" standalone="no"?>
<svg width="33px" height="29px" viewBox="0 0 33 29" version="1.1" xmlns="http://www.w3.org/2000/svg" xmlns:xlink="http://www.w3.org/1999/xlink" xmlns:sketch="http://www.bohemiancoding.com/sketch/ns">
    <!-- Generator: Sketch 3.4.2 (15855) - http://www.bohemiancoding.com/sketch -->
    <title>“</title>
    <desc>Created with Sketch.</desc>
    <defs></defs>
    <g id="final" stroke="none" stroke-width="1" fill="none" fill-rule="evenodd" sketch:type="MSPage">
        <g id="Desktop-HD-Copy-25" sketch:type="MSArtboardGroup" transform="translate(-283.000000, -4032.000000)" fill-opacity="0.24" fill="#000000">
            <g id="Group" sketch:type="MSLayerGroup" transform="translate(70.000000, 3358.000000)">
                <g id="Bitmap-+-MATT-FIEDLER,-FOUNDE-+-“Chargebee-has-been-" transform="translate(213.000000, 674.000000)" sketch:type="MSShapeGroup">
                    <path d="M26.2,28.8 C29.8,28.8 32.6,26 32.6,22.6 C32.6,19.2 29.8,16.4 26.4,16.4 C25.4,16.4 24.5,16.7 24.3,16.7 C24.3,9.6 29.7,5.2 30.8,4.3 C31.6,3.6 31.8,2.6 31.2,2 L29.8,0.6 C29.1,-0.1 28.3,-0.1 27.4,0.6 C24.5,3.3 18.7,9.9 18.7,18.9 C18.7,26.6 22.8,28.8 26.2,28.8 L26.2,28.8 Z M7.5,28.8 C11.1,28.8 14,26 14,22.6 C14,19.2 11.1,16.4 7.8,16.4 C6.7,16.4 5.9,16.7 5.6,16.7 C5.7,9.6 11.1,5.2 12.1,4.3 C13,3.6 13.1,2.6 12.6,2 L11.1,0.6 C10.5,-0.1 9.7,-0.1 8.8,0.6 C5.9,3.3 0.1,9.9 0.1,18.9 C0.1,26.6 4.1,28.8 7.5,28.8 L7.5,28.8 Z" id="“"></path>
                </g>
            </g>
        </g>
    </g>
</svg>