<?xml version="1.0" encoding="UTF-8" standalone="no"?>
<svg width="363px" height="43px" viewBox="0 0 363 43" version="1.1" xmlns="http://www.w3.org/2000/svg" xmlns:xlink="http://www.w3.org/1999/xlink" xmlns:sketch="http://www.bohemiancoding.com/sketch/ns">
    <!-- Generator: Sketch 3.4.2 (15855) - http://www.bohemiancoding.com/sketch -->
    <title>Group</title>
    <desc>Created with Sketch.</desc>
    <defs></defs>
    <g id="Page-1" stroke="none" stroke-width="1" fill="none" fill-rule="evenodd" sketch:type="MSPage">
        <g id="Desktop-HD-Copy-24" sketch:type="MSArtboardGroup" transform="translate(-459.000000, -1337.000000)" fill="#39394F">
            <g id="Group-+-Lorem-ipsum-dolor-si-+-Line" sketch:type="MSLayerGroup" transform="translate(378.000000, 1337.000000)">
                <g id="Group" transform="translate(81.000000, 0.000000)" sketch:type="MSShapeGroup">
                    <g id="php-plain" transform="translate(0.000000, 8.000000)">
                        <path d="M28,0.0176129032 C12.7625806,0.0176129032 0.40916129,6.27787097 0.40916129,14 C0.40916129,21.722129 12.7625806,27.9823871 28,27.9823871 C43.2374194,27.9823871 55.5908387,21.722129 55.5908387,14 C55.5908387,6.27787097 43.2374194,0.0176129032 28,0.0176129032 L28,0.0176129032 Z M20.8207097,16.724129 C20.1622581,17.340129 19.4310968,17.5943871 18.625871,17.8563226 C17.8206452,18.1187097 16.7959355,18.0645161 15.5499355,18.0645161 L12.726,18.0645161 L11.9433548,22.5806452 L8.64612903,22.5806452 L11.5883871,7.22580645 L17.9290323,7.22580645 C19.8366452,7.22580645 21.2280645,7.77451613 22.1028387,8.77574194 C22.9776129,9.77696774 23.2404516,11.1981935 22.8918065,12.9924516 C22.7477419,13.7317419 22.5052258,14.4190968 22.1629032,15.0314839 C21.820129,15.6443226 21.3725806,16.2165161 20.8207097,16.724129 L20.8207097,16.724129 Z M30.4450323,18.0645161 L31.746129,11.5522581 C31.8942581,10.7899355 31.8400645,10.2236129 31.5830968,9.94677419 C31.3256774,9.66948387 30.7783226,9.48387097 29.9414839,9.48387097 L27.3266452,9.48387097 L25.6416774,18.0645161 L22.3701935,18.0645161 L25.3124516,3.16129032 L28.5839355,3.16129032 L27.8017419,7.22580645 L30.716,7.22580645 C32.55,7.22580645 33.8145161,7.59387097 34.5104516,8.23335484 C35.2063871,8.87283871 35.4150323,9.74896774 35.1368387,11.1814839 L33.768,18.0645161 L30.4450323,18.0645161 L30.4450323,18.0645161 Z M48.6265161,13.0163871 C48.4829032,13.7556774 48.2399355,14.4312903 47.8980645,15.0432258 C47.5557419,15.6560645 47.1086452,16.2165161 46.5563226,16.724129 C45.897871,17.340129 45.1662581,17.5943871 44.3614839,17.8563226 C43.5567097,18.1187097 42.5310968,18.0645161 41.2850968,18.0645161 L38.4611613,18.0645161 L37.6789677,22.5806452 L34.3817419,22.5806452 L37.3235484,7.22580645 L43.6646452,7.22580645 C45.5722581,7.22580645 46.9636774,7.77451613 47.838,8.77574194 C48.711871,9.77696774 48.9751613,11.2225806 48.6265161,13.0163871 L48.6265161,13.0163871 Z M42.4150323,9.48387097 L40.1565161,9.48387097 L38.9249677,15.8064516 L40.9310323,15.8064516 C42.2596774,15.8064516 43.2505161,15.6754839 43.9008387,15.1741935 C44.5520645,14.6738065 44.9905806,13.8970323 45.2186452,12.726 C45.4372258,11.6010323 45.337871,10.7235484 44.9205806,10.2610968 C44.5028387,9.79864516 43.6678065,9.48387097 42.4150323,9.48387097 L42.4150323,9.48387097 Z M16.679871,9.48387097 L14.4209032,9.48387097 L13.1893548,15.8064516 L15.1949677,15.8064516 C16.5240645,15.8064516 17.5144516,15.6754839 18.1652258,15.1741935 C18.816,14.6738065 19.2549677,13.8970323 19.4825806,12.726 C19.7011613,11.6010323 19.6018065,10.7235484 19.1845161,10.2610968 C18.7672258,9.79864516 17.9326452,9.48387097 16.679871,9.48387097 L16.679871,9.48387097 Z" id="Shape"></path>
                    </g>
                    <g id="ruby-plain" transform="translate(98.000000, 4.000000)">
                        <path d="M10.2024,32.0406 C18.4422,33.1656 26.5356,34.2705 34.7898,35.397 C31.9776,30.7152 29.2377,26.1531 26.4759,21.5538 L10.2024,32.0406 L10.2024,32.0406 Z M37.1154,6.1257 C36.3891,7.2165 35.6613,8.3064 34.9359,9.3978 C32.4447,13.1457 29.9538,16.8936 27.465,20.6433 C27.3264,20.8521 27.1467,21.0177 27.342,21.3396 C29.7468,25.3107 32.1327,29.2935 34.5246,33.2727 C34.902,33.9012 35.2836,34.5273 35.7717,35.1303 C36.2553,25.4724 36.7386,15.8142 37.2219,6.1563 L37.1154,6.1257 L37.1154,6.1257 Z M4.2867,18.5076 C4.3992,18.6141 4.68,18.6762 4.8108,18.6117 C7.1175,17.478 9.4389,16.3695 11.6952,15.1425 C12.4311,14.7426 12.9969,14.0256 13.6308,13.4442 C15.7299,11.5191 17.8257,9.5901 19.9206,7.6608 C20.0487,7.5423 20.2005,7.4277 20.277,7.2783 C21.0294,5.8077 21.7689,4.3296 22.5345,2.8089 C21.6216,2.4657 20.7561,2.13 19.8798,1.8246 C19.761,1.7832 19.5738,1.8654 19.4451,1.9371 C17.4168,3.0702 15.3504,4.143 13.3866,5.3787 C12.4041,5.997 11.6037,6.9081 10.7337,7.7016 C9.3315,8.9814 7.9311,10.2642 6.5493,11.5662 C6.1827,11.9118 5.8485,12.3066 5.5629,12.7224 C4.6179,14.0985 3.7011,15.4944 2.7423,16.9299 C3.2781,17.484 3.7653,18.0138 4.2867,18.5076 L4.2867,18.5076 Z M12.7173,16.6263 C11.5698,21.474 10.4292,26.2944 9.2505,31.2732 C14.7774,27.7119 20.1768,24.2328 25.5405,20.7771 C21.2721,19.3956 17.0175,18.0183 12.7173,16.6263 L12.7173,16.6263 Z M35.7066,6.1725 C31.0368,6.9528 26.4786,7.7142 21.8616,8.4855 C23.4342,12.3108 24.9753,16.0593 26.5602,19.9143 C29.6265,15.3066 32.6322,10.7913 35.7066,6.1725 L35.7066,6.1725 Z M12.9099,15.6348 C17.115,16.9998 21.2364,18.3378 25.4775,19.7148 C23.9025,15.8778 22.3815,12.1749 20.829,8.3937 C18.1845,10.8114 15.5796,13.1934 12.9099,15.6348 L12.9099,15.6348 Z M4.4604,21.3345 C2.9691,24.8994 1.5285,28.3431 0.0618,31.8489 C2.8806,31.7655 5.613,31.6848 8.4393,31.6014 C7.1124,28.1778 5.8116,24.8214 4.4604,21.3345 L4.4604,21.3345 Z M8.5383,29.1633 L8.6421,29.1405 C9.648,24.9582 10.6683,20.8047 11.6952,16.4589 C9.4044,17.6496 7.2192,18.7851 4.9743,19.9521 C6.12,22.9299 7.3416,26.0712 8.5383,29.1633 L8.5383,29.1633 Z M34.0164,5.4942 C32.6787,5.1399 31.341,4.7844 30.0027,4.4325 C28.0791,3.9267 26.154,3.4272 24.2316,2.9169 C23.9913,2.853 23.8176,2.8113 23.6763,3.1008 C22.9968,4.4928 22.2963,5.8743 21.606,7.2612 C21.5847,7.3041 21.5892,7.3596 21.5727,7.4673 C25.7385,6.8361 29.8764,6.2088 34.0137,5.5818 L34.0164,5.4942 L34.0164,5.4942 Z M26.2557,2.328 L37.1586,5.3442 C36.5334,3.5625 35.9535,1.9104 35.3571,0.2112 L26.2716,2.2257 L26.2557,2.328 L26.2557,2.328 Z M9.4626,32.8437 C8.1123,32.688 6.726,32.8311 5.3565,32.8548 C4.2315,32.8737 3.1065,32.9166 1.9815,32.9517 C1.8657,32.9553 1.7502,32.9787 1.6347,33.1035 C10.9356,33.9633 20.2362,34.8231 29.5368,35.6835 L29.5557,35.5593 C26.5743,35.1522 23.5926,34.7451 20.6112,34.3383 C16.896,33.831 13.1871,33.273 9.4626,32.8437 L9.4626,32.8437 Z M0.2457,28.6398 C1.4442,25.8588 2.6376,23.076 3.8409,20.2971 C3.9612,20.0184 3.9519,19.8291 3.7164,19.6047 C3.213,19.1256 2.7453,18.6093 2.1951,18.0369 C1.4514,21.7089 0.726,25.29 0,28.8708 L0.0813,28.9089 C0.1368,28.8198 0.2046,28.7355 0.2457,28.6398 L0.2457,28.6398 Z M23.8677,1.5939 C25.8888,1.0725 27.9393,0.6648 29.9778,0.21 C30.1098,0.1803 30.2388,0.1368 30.3687,0.0996 L30.3486,-2.10942375e-15 C27.4773,0.3861 24.6063,0.7725 21.5904,1.1784 C22.4127,1.5375 23.0463,1.8057 23.8677,1.5939 L23.8677,1.5939 Z" id="Shape"></path>
                    </g>
                    <g id="python-plain" transform="translate(178.000000, 3.000000)">
                        <path d="M13.9709057,18.2264666 L22.5491325,18.2264666 C24.9370562,18.2264666 26.818094,16.2059837 26.818094,13.8080576 L26.818094,5.63022059 C26.818094,3.30260543 24.8670395,1.55395218 22.5361883,1.16562407 C21.0611298,0.919977126 19.536942,0.8081857 18.0683557,0.815246211 C16.6003577,0.822012534 15.240621,0.947042418 14.0070908,1.16562407 C10.3723986,1.80724802 9.75519222,3.15168701 9.75519222,5.63022059 L9.75519222,8.81245178 L18.2866431,8.81245178 L18.2866431,9.98920363 L6.45322653,9.98920363 C3.95733586,9.98920363 1.7715193,11.4919157 1.08812066,14.3464215 C0.299402736,17.6177917 0.264394369,19.6179756 1.08812066,23.0337921 C1.69856069,25.5761644 3.15626204,27.3462934 5.6524469,27.3462934 L8.57844038,27.3462934 L8.57844038,23.5077289 C8.57844038,20.6726395 11.0578565,18.2264666 13.9709057,18.2264666 L13.9709057,18.2264666 Z M13.4301883,6.72077537 C12.5399755,6.72077537 11.8186266,5.99148341 11.8186266,5.08950312 C11.8186266,4.18369838 12.5396813,3.4476401 13.4301883,3.4476401 C14.317165,3.4476401 15.0420441,4.18369838 15.0420441,5.08950312 C15.0417499,5.99148341 14.3168708,6.72077537 13.4301883,6.72077537 L13.4301883,6.72077537 Z M35.4322118,14.3464215 C34.8150054,11.8611216 33.6367826,9.98920363 31.1373617,9.98920363 L27.9948459,9.98920363 L27.9948459,13.8080576 C27.9948459,16.7646466 25.407757,19.1090305 22.5491325,19.1090305 L13.9709057,19.1090305 C11.6209323,19.1090305 9.75519222,21.2642515 9.75519222,23.6177552 L9.75519222,31.7961805 C9.75519222,34.1232073 11.73949,35.4923581 14.0097385,36.1601648 C16.7286237,36.9594735 19.3033567,37.1039198 22.556193,36.1601648 C24.7181804,35.5338386 26.818094,34.2741257 26.818094,31.7961805 L26.818094,28.5230453 L18.2866431,28.5230453 L18.2866431,27.3462934 L31.1373617,27.3462934 C33.6332524,27.3462934 34.5637689,25.6470637 35.4322118,23.0334979 C36.3286025,20.343149 36.2900639,17.7972463 35.4322118,14.3464215 L35.4322118,14.3464215 Z M23.0895558,30.7050374 C23.9800628,30.7050374 24.7014117,31.4343293 24.7014117,32.336898 C24.7014117,33.2418202 23.980357,33.9781727 23.0895558,33.9781727 C22.2025791,33.9781727 21.4779942,33.2421144 21.4779942,32.336898 C21.4779942,31.4343293 22.2025791,30.7050374 23.0895558,30.7050374 L23.0895558,30.7050374 Z" id="Shape"></path>
                    </g>
                    <g id="java-plain" transform="translate(257.000000, 0.000000)">
                        <path d="M10.2524324,32.6478691 C3.79496048,34.4520044 14.1813558,38.1790478 22.4039328,34.6562398 C21.057056,34.1326974 20.0910596,33.5287394 20.0910596,33.5287394 C16.4245803,34.2218611 14.7237404,34.2763687 11.3954103,33.8961612 C8.64849486,33.5815647 10.2524324,32.6478691 10.2524324,32.6478691 L10.2524324,32.6478691 Z M21.4194308,29.1284258 C16.5595035,30.0634672 13.7523606,30.0335217 10.1969153,29.6667728 C7.44764465,29.3824583 9.24740586,28.0500496 9.24740586,28.0500496 C2.13550595,30.410701 13.2066113,33.0893137 23.1465151,30.1819036 C22.0900092,29.8097712 21.4194308,29.1284258 21.4194308,29.1284258 L21.4194308,29.1284258 Z M25.2278991,8.74694614 C25.2282356,8.74694614 10.850334,12.336711 17.7169495,20.2497385 C19.7438258,22.5831361 17.1853319,24.681007 17.1853319,24.681007 C17.1853319,24.681007 22.3295736,22.025947 19.9675763,18.6996357 C17.7606902,15.5990936 16.0689349,14.0587484 25.2278991,8.74694614 L25.2278991,8.74694614 Z M28.5918947,36.0492126 C-5.73546317,-0.366258612 29.7792862,37.0283311 27.2837116,37.7850451 C22.538856,39.2224315 7.53108843,39.6558008 3.36260057,37.8425809 C1.86532307,37.1905081 4.67448484,36.2864217 5.55838326,36.095645 C6.47996598,35.8961202 7.00620014,35.9324586 7.00620014,35.9324586 C5.34001628,34.7591987 -3.76511327,38.2372565 2.38247263,39.2348808 C19.1455878,41.9521871 32.9393829,38.0111508 28.5918947,36.0492126 L28.5918947,36.0492126 Z M22.8305728,25.8431635 C23.6364109,25.2933766 24.7494432,24.8159302 24.7494432,24.8159302 C24.7494432,24.8159302 21.5785796,25.3828768 18.4194923,25.6483492 C14.5521423,25.9727032 10.4038424,26.0366319 8.32144907,25.7580374 C3.39153672,25.0988988 11.0242873,23.2856789 11.0242873,23.2856789 C11.0242873,23.2856789 8.05934139,23.0851447 4.41473243,24.848231 C0.103919087,26.9326432 15.0777035,27.8828256 22.8305728,25.8431635 L22.8305728,25.8431635 Z M24.7178154,30.938954 C24.6814769,31.0365294 24.5603489,31.1462176 24.5603489,31.1462176 C35.0826768,28.3801236 31.2139809,21.3957446 26.182792,23.1635415 C25.7413475,23.3196621 25.5098583,23.6827098 25.5098583,23.6827098 C25.5098583,23.6827098 25.7887894,23.5703299 26.4109166,23.4404537 C28.9542695,22.9105184 32.5982056,26.8451618 24.7178154,30.938954 L24.7178154,30.938954 Z M15.8256693,23.2096374 C14.2732113,19.7006246 9.00885086,16.630701 15.8280246,11.2452125 C24.3308785,4.53370819 19.9679128,0.167714286 19.9679128,0.167714286 C21.7276344,7.10162322 13.7597628,9.19612939 10.8836442,13.514345 C8.92507061,16.4567476 11.84493,19.6185267 15.8256693,23.2096374 L15.8256693,23.2096374 Z M25.0024663,40.6211242 C18.5466768,41.8364425 10.5835157,41.6947899 5.86187637,40.9151962 C5.86187637,40.9151962 6.82888211,41.7159873 11.7991705,42.0359673 C19.3615995,42.5194702 30.9777812,41.7667938 31.2523381,38.1881324 C31.2526746,38.1881324 30.7240852,39.5447667 25.0024663,40.6211242 L25.0024663,40.6211242 Z" id="Shape"></path>
                    </g>
                    <g id="nodejs-plain" transform="translate(331.000000, 4.000000)">
                        <path d="M30.2984262,8.06577049 L17.272623,0.510196721 C16.452,0.0427868852 15.3770164,0.0427868852 14.5499016,0.510196721 L1.42229508,8.06577049 C0.575704918,8.55295082 0,9.46859016 0,10.4479672 L0,25.5390492 C0,26.5184262 0.587803279,27.4343607 1.43468852,27.9241967 L4.89570492,29.8977049 C6.55613115,30.7156721 7.01616393,30.7156721 7.77157377,30.7156721 C10.2307869,30.7156721 11.5079016,29.2287541 11.5079016,26.6352787 L11.5079016,11.7365902 C11.5081967,11.5261967 11.6395082,11.2131148 11.4326557,11.2131148 L9.77370492,11.2131148 C9.56360656,11.2131148 9.14754098,11.5261967 9.14754098,11.7362951 L9.14754098,26.6349836 C9.14754098,27.784623 8.08052459,28.9286557 6.13711475,27.9569508 L2.56013115,25.887541 C2.43560656,25.8196721 2.36065574,25.6830492 2.36065574,25.5390492 L2.36065574,10.4479672 C2.36065574,10.3057377 2.49727869,10.162918 2.62357377,10.0900328 L15.7187213,2.54744262 C15.8411803,2.47809836 16.0143934,2.47809836 16.1362623,2.54744262 L29.1089508,10.0882623 C29.2331803,10.162918 29.2134098,10.3013115 29.2134098,10.4479672 L29.2134098,25.5390492 C29.2134098,25.6830492 29.2405574,25.8232131 29.1180984,25.8925574 L16.0952459,33.4395738 C15.9837049,33.5065574 15.8385246,33.5065574 15.7160656,33.4395738 L12.376623,31.4480656 C12.276,31.3896393 12.1547213,31.3686885 12.0579344,31.4226885 C11.1299016,31.9488197 10.9575738,32.0187541 10.087082,32.320623 C9.87255738,32.3952787 9.55622951,32.5248197 10.2074754,32.8898361 L14.5740984,35.4729836 C14.9919344,35.7149508 15.4673115,35.8406557 15.9453443,35.8406557 C16.4298689,35.8406557 16.9040656,35.7149508 17.3221967,35.4729836 L30.2987213,27.9241967 C31.1459016,27.4308197 31.5740656,26.5184262 31.5740656,25.5390492 L31.5740656,10.4479672 C31.5737705,9.46859016 31.1456066,8.55531148 30.2984262,8.06577049 L30.2984262,8.06577049 Z M19.9850164,23.1477049 C16.5245902,23.1477049 15.7626885,22.1931148 15.508623,20.4724918 C15.4785246,20.2871803 15.321541,20.0655738 15.1326885,20.0655738 L13.4418689,20.0655738 C13.2326557,20.0655738 13.0641639,20.3193443 13.0641639,20.5276721 C13.0641639,22.7307541 14.2621967,25.4000656 19.9850164,25.4000656 C24.127377,25.4000656 26.5027869,23.7903934 26.5027869,20.9416721 C26.5027869,18.1171475 24.5944918,17.3759016 20.5769508,16.8441639 C16.5160328,16.3074098 16.1035082,16.0362295 16.1035082,15.0848852 C16.1035082,14.3005574 16.4528852,13.2544918 19.4597705,13.2544918 C22.1461967,13.2544918 23.1364918,13.831082 23.544,15.642 C23.5791148,15.8122623 23.734623,15.9344262 23.9101967,15.9344262 L25.6080984,15.9344262 C25.7125574,15.9344262 25.812,15.8922295 25.8851803,15.8175738 C25.9562951,15.7373115 25.9934754,15.6366885 25.9843279,15.5286885 C25.7208197,12.4099672 23.6493443,10.9566885 19.4594754,10.9566885 C15.732,10.9566885 13.5088525,12.5306557 13.5088525,15.1689836 C13.5088525,18.0306885 15.721082,18.8215082 19.2989508,19.1753115 C23.5791148,19.594918 23.9119672,20.2204918 23.9119672,21.0623607 C23.9119672,22.5247869 22.7381311,23.1477049 19.9850164,23.1477049 L19.9850164,23.1477049 Z" id="Shape"></path>
                    </g>
                </g>
            </g>
        </g>
    </g>
</svg>