<?xml version="1.0" encoding="UTF-8"?>
<svg width="79px" height="34px" viewBox="0 0 79 34" version="1.1" xmlns="http://www.w3.org/2000/svg" xmlns:xlink="http://www.w3.org/1999/xlink">
    <!-- Generator: Sketch 42 (36781) - http://www.bohemiancoding.com/sketch -->
    <title>Group</title>
    <desc>Created with Sketch.</desc>
    <defs>
        <polygon id="path-1" points="8.32125167e-16 23.4416 8.32125167e-16 0.966 24.2647 0.966 24.2647 23.4416 0 23.4416"></polygon>
        <polygon id="path-3" points="22.895 26.9997 22.895 0.5457 0.1977 0.5457 0.1977 26.9997"></polygon>
        <polygon id="path-5" points="8.32125167e-16 23.4416 8.32125167e-16 0.966 24.2647 0.966 24.2647 23.4416 0 23.4416"></polygon>
        <polygon id="path-7" points="22.895 26.9997 22.895 0.5457 0.1977 0.5457 0.1977 26.9997"></polygon>
    </defs>
    <g id="Page-1" stroke="none" stroke-width="1" fill="none" fill-rule="evenodd" opacity="0.800000012">
        <g id="Group" transform="translate(0.000000, -1.000000)">
            <g id="icon-pci">
                <g id="Home-Page-Versions">
                    <g id="Desktop-HD-Copy-23">
                        <g id="Group-5">
                            <g id="pci">
                                <g id="Page-1">
                                    <g id="Desktop-HD-Copy-5">
                                        <g id="Page-1">
                                            <path d="M15.4676,10.1045 L4.5296,10.1045 C4.2536,10.1045 4.0296,9.8805 4.0296,9.6045 C4.0296,9.3285 4.2536,9.1045 4.5296,9.1045 L15.4676,9.1045 C15.7436,9.1045 15.9676,9.3285 15.9676,9.6045 C15.9676,9.8805 15.7436,10.1045 15.4676,10.1045 L15.4676,10.1045 Z M10.5386,12.4795 L7.5336,12.4795 C7.2576,12.4795 7.0336,12.2555 7.0336,11.9795 C7.0336,11.7035 7.2576,11.4795 7.5336,11.4795 L10.5386,11.4795 C10.8156,11.4795 11.0386,11.7035 11.0386,11.9795 C11.0386,12.2555 10.8156,12.4795 10.5386,12.4795 L10.5386,12.4795 Z M4.0296,11.9795 C4.0296,11.7035 4.2536,11.4795 4.5296,11.4795 L5.9676,11.4795 C6.2436,11.4795 6.4676,11.7035 6.4676,11.9795 C6.4676,12.2555 6.2436,12.4795 5.9676,12.4795 L4.5296,12.4795 C4.2536,12.4795 4.0296,12.2555 4.0296,11.9795 L4.0296,11.9795 Z M8.8506,14.8545 L4.5296,14.8545 C4.2536,14.8545 4.0296,14.6305 4.0296,14.3545 C4.0296,14.0785 4.2536,13.8545 4.5296,13.8545 L8.8506,13.8545 C9.1266,13.8545 9.3506,14.0785 9.3506,14.3545 C9.3506,14.6305 9.1266,14.8545 8.8506,14.8545 L8.8506,14.8545 Z M1.9996,7.1655 L1.9996,20.8825 C1.9996,21.2095 2.2666,21.4755 2.5936,21.4755 L12.3076,21.4755 C12.2426,20.8665 12.1976,20.2535 12.1976,19.6345 L12.1976,14.8545 L10.5386,14.8545 C10.2626,14.8545 10.0386,14.6305 10.0386,14.3545 C10.0386,14.0785 10.2626,13.8545 10.5386,13.8545 L12.1976,13.8545 L12.1976,11.8715 L22.2646,7.5685 L22.2646,7.1655 L1.9996,7.1655 Z" id="Fill-1" fill="#ECECFF" fill-rule="nonzero"></path>
                                            <g id="Group-5" transform="translate(0.000000, 0.034400)">
                                                <g id="Fill-3-Clipped">
                                                    <g>
                                                        <mask id="mask-2" fill="white">
                                                            <use xlink:href="#path-1"></use>
                                                        </mask>
                                                        <g id="path-1"></g>
                                                        <path d="M21.6717,0.9656 L2.5937,0.9656 C1.1637,0.9656 -0.0003,2.1286 -0.0003,3.5596 L-0.0003,6.1306 L-0.0003,20.8486 C-0.0003,22.2776 1.1637,23.4416 2.5937,23.4416 L12.6367,23.4416 C12.4877,22.7826 12.3787,22.1156 12.3077,21.4416 L2.5937,21.4416 C2.2667,21.4416 1.9997,21.1756 1.9997,20.8486 L1.9997,7.1306 L22.2647,7.1306 L22.2647,7.5336 L23.2077,7.1306 L23.5767,6.9726 C23.7017,6.9196 23.8257,6.8956 23.9497,6.8526 C24.0557,6.8166 24.1597,6.7796 24.2647,6.7506 L24.2647,6.1306 L24.2647,3.5596 C24.2647,2.1286 23.1017,0.9656 21.6717,0.9656" id="Fill-3" fill="#646464" fill-rule="nonzero" mask="url(#mask-2)"></path>
                                                    </g>
                                                </g>
                                            </g>
                                            <path d="M15.4676,9.1045 L4.5296,9.1045 C4.2536,9.1045 4.0296,9.3285 4.0296,9.6045 C4.0296,9.8805 4.2536,10.1045 4.5296,10.1045 L15.4676,10.1045 C15.7436,10.1045 15.9676,9.8805 15.9676,9.6045 C15.9676,9.3285 15.7436,9.1045 15.4676,9.1045" id="Fill-6" fill="#646464" fill-rule="nonzero"></path>
                                            <path d="M11.0389,11.9795 C11.0389,11.7035 10.8149,11.4795 10.5389,11.4795 L7.5339,11.4795 C7.2579,11.4795 7.0339,11.7035 7.0339,11.9795 C7.0339,12.2555 7.2579,12.4795 7.5339,12.4795 L10.5389,12.4795 C10.8149,12.4795 11.0389,12.2555 11.0389,11.9795" id="Fill-8" fill="#646464" fill-rule="nonzero"></path>
                                            <path d="M4.5301,12.4795 L5.9671,12.4795 C6.2441,12.4795 6.4671,12.2555 6.4671,11.9795 C6.4671,11.7035 6.2441,11.4795 5.9671,11.4795 L4.5301,11.4795 C4.2541,11.4795 4.0301,11.7035 4.0301,11.9795 C4.0301,12.2555 4.2541,12.4795 4.5301,12.4795" id="Fill-10" fill="#646464" fill-rule="nonzero"></path>
                                            <path d="M4.5301,14.8545 L8.8501,14.8545 C9.1271,14.8545 9.3501,14.6305 9.3501,14.3545 C9.3501,14.0785 9.1271,13.8545 8.8501,13.8545 L4.5301,13.8545 C4.2541,13.8545 4.0301,14.0785 4.0301,14.3545 C4.0301,14.6305 4.2541,14.8545 4.5301,14.8545" id="Fill-12" fill="#646464" fill-rule="nonzero"></path>
                                            <path d="M10.5389,14.8545 L12.1979,14.8545 L12.1979,13.8545 L10.5389,13.8545 C10.2629,13.8545 10.0389,14.0785 10.0389,14.3545 C10.0389,14.6305 10.2629,14.8545 10.5389,14.8545" id="Fill-14" fill="#646464" fill-rule="nonzero"></path>
                                            <path d="M4.8221,4.2812 C4.8221,4.7352 4.4531,5.1032 3.9991,5.1032 C3.5441,5.1032 3.1761,4.7352 3.1761,4.2812 C3.1761,3.8262 3.5441,3.4582 3.9991,3.4582 C4.4531,3.4582 4.8221,3.8262 4.8221,4.2812" id="Fill-16" fill="#FFFFFF" fill-rule="nonzero"></path>
                                            <path d="M7.6131,4.2812 C7.6131,4.7352 7.2451,5.1032 6.7911,5.1032 C6.3361,5.1032 5.9671,4.7352 5.9671,4.2812 C5.9671,3.8262 6.3361,3.4582 6.7911,3.4582 C7.2451,3.4582 7.6131,3.8262 7.6131,4.2812" id="Fill-18" fill="#FFFFFF" fill-rule="nonzero"></path>
                                            <g id="Group-22" transform="translate(14.000000, 8.034400)">
                                                <g id="Fill-20-Clipped">
                                                    <g>
                                                        <mask id="mask-4" fill="white">
                                                            <use xlink:href="#path-3"></use>
                                                        </mask>
                                                        <g id="path-3"></g>
                                                        <path d="M11.5467,0.5457 L11.5387,0.5457 C11.1317,0.5467 10.7327,0.6537 10.3627,0.8127 L0.1977,5.1567 L0.1977,11.6007 C0.1977,14.9597 1.2837,18.1927 3.3377,20.9527 C5.3717,23.6867 8.2127,25.7797 11.5467,26.9997 C14.8807,25.7797 17.7217,23.6867 19.7557,20.9527 C21.8097,18.1927 22.8957,14.9597 22.8957,11.6007 L22.8957,5.1567 L12.7297,0.8127 C12.3597,0.6537 11.9617,0.5467 11.5547,0.5457 L11.5467,0.5457 Z" id="Fill-20" fill="#646464" fill-rule="nonzero" mask="url(#mask-4)"></path>
                                                    </g>
                                                </g>
                                            </g>
                                            <path d="M23.9647,12.8916 L17.1837,15.7896 L17.1837,20.1346 C17.1837,22.5086 17.9497,24.7926 19.4017,26.7426 C20.5807,28.3276 22.1417,29.6066 23.9647,30.4916 L23.9647,12.8916 Z" id="Fill-23" fill="#FFFFFF" fill-rule="nonzero"></path>
                                        </g>
                                    </g>
                                </g>
                            </g>
                        </g>
                    </g>
                </g>
            </g>
            <g id="icon-pci-hover" transform="translate(42.000000, 0.000000)">
                <g id="Home-Page-Versions">
                    <g id="Desktop-HD-Copy-24">
                        <g id="Group-5">
                            <g id="pci">
                                <g id="Page-1">
                                    <g id="Desktop-HD-Copy-5">
                                        <g id="Page-1">
                                            <path d="M15.4676,10.1045 L4.5296,10.1045 C4.2536,10.1045 4.0296,9.8805 4.0296,9.6045 C4.0296,9.3285 4.2536,9.1045 4.5296,9.1045 L15.4676,9.1045 C15.7436,9.1045 15.9676,9.3285 15.9676,9.6045 C15.9676,9.8805 15.7436,10.1045 15.4676,10.1045 L15.4676,10.1045 Z M10.5386,12.4795 L7.5336,12.4795 C7.2576,12.4795 7.0336,12.2555 7.0336,11.9795 C7.0336,11.7035 7.2576,11.4795 7.5336,11.4795 L10.5386,11.4795 C10.8156,11.4795 11.0386,11.7035 11.0386,11.9795 C11.0386,12.2555 10.8156,12.4795 10.5386,12.4795 L10.5386,12.4795 Z M4.0296,11.9795 C4.0296,11.7035 4.2536,11.4795 4.5296,11.4795 L5.9676,11.4795 C6.2436,11.4795 6.4676,11.7035 6.4676,11.9795 C6.4676,12.2555 6.2436,12.4795 5.9676,12.4795 L4.5296,12.4795 C4.2536,12.4795 4.0296,12.2555 4.0296,11.9795 L4.0296,11.9795 Z M8.8506,14.8545 L4.5296,14.8545 C4.2536,14.8545 4.0296,14.6305 4.0296,14.3545 C4.0296,14.0785 4.2536,13.8545 4.5296,13.8545 L8.8506,13.8545 C9.1266,13.8545 9.3506,14.0785 9.3506,14.3545 C9.3506,14.6305 9.1266,14.8545 8.8506,14.8545 L8.8506,14.8545 Z M1.9996,7.1655 L1.9996,20.8825 C1.9996,21.2095 2.2666,21.4755 2.5936,21.4755 L12.3076,21.4755 C12.2426,20.8665 12.1976,20.2535 12.1976,19.6345 L12.1976,14.8545 L10.5386,14.8545 C10.2626,14.8545 10.0386,14.6305 10.0386,14.3545 C10.0386,14.0785 10.2626,13.8545 10.5386,13.8545 L12.1976,13.8545 L12.1976,11.8715 L22.2646,7.5685 L22.2646,7.1655 L1.9996,7.1655 Z" id="Fill-1" fill="#ECECFF" fill-rule="nonzero"></path>
                                            <g id="Group-5" transform="translate(0.000000, 0.034400)">
                                                <g id="Fill-3-Clipped">
                                                    <g>
                                                        <mask id="mask-6" fill="white">
                                                            <use xlink:href="#path-5"></use>
                                                        </mask>
                                                        <g id="path-1"></g>
                                                        <path d="M21.6717,0.9656 L2.5937,0.9656 C1.1637,0.9656 -0.0003,2.1286 -0.0003,3.5596 L-0.0003,6.1306 L-0.0003,20.8486 C-0.0003,22.2776 1.1637,23.4416 2.5937,23.4416 L12.6367,23.4416 C12.4877,22.7826 12.3787,22.1156 12.3077,21.4416 L2.5937,21.4416 C2.2667,21.4416 1.9997,21.1756 1.9997,20.8486 L1.9997,7.1306 L22.2647,7.1306 L22.2647,7.5336 L23.2077,7.1306 L23.5767,6.9726 C23.7017,6.9196 23.8257,6.8956 23.9497,6.8526 C24.0557,6.8166 24.1597,6.7796 24.2647,6.7506 L24.2647,6.1306 L24.2647,3.5596 C24.2647,2.1286 23.1017,0.9656 21.6717,0.9656" id="Fill-3" fill="#7864FF" fill-rule="nonzero" mask="url(#mask-6)"></path>
                                                    </g>
                                                </g>
                                            </g>
                                            <path d="M15.4676,9.1045 L4.5296,9.1045 C4.2536,9.1045 4.0296,9.3285 4.0296,9.6045 C4.0296,9.8805 4.2536,10.1045 4.5296,10.1045 L15.4676,10.1045 C15.7436,10.1045 15.9676,9.8805 15.9676,9.6045 C15.9676,9.3285 15.7436,9.1045 15.4676,9.1045" id="Fill-6" fill="#7864FF" fill-rule="nonzero"></path>
                                            <path d="M11.0389,11.9795 C11.0389,11.7035 10.8149,11.4795 10.5389,11.4795 L7.5339,11.4795 C7.2579,11.4795 7.0339,11.7035 7.0339,11.9795 C7.0339,12.2555 7.2579,12.4795 7.5339,12.4795 L10.5389,12.4795 C10.8149,12.4795 11.0389,12.2555 11.0389,11.9795" id="Fill-8" fill="#7864FF" fill-rule="nonzero"></path>
                                            <path d="M4.5301,12.4795 L5.9671,12.4795 C6.2441,12.4795 6.4671,12.2555 6.4671,11.9795 C6.4671,11.7035 6.2441,11.4795 5.9671,11.4795 L4.5301,11.4795 C4.2541,11.4795 4.0301,11.7035 4.0301,11.9795 C4.0301,12.2555 4.2541,12.4795 4.5301,12.4795" id="Fill-10" fill="#7864FF" fill-rule="nonzero"></path>
                                            <path d="M4.5301,14.8545 L8.8501,14.8545 C9.1271,14.8545 9.3501,14.6305 9.3501,14.3545 C9.3501,14.0785 9.1271,13.8545 8.8501,13.8545 L4.5301,13.8545 C4.2541,13.8545 4.0301,14.0785 4.0301,14.3545 C4.0301,14.6305 4.2541,14.8545 4.5301,14.8545" id="Fill-12" fill="#7864FF" fill-rule="nonzero"></path>
                                            <path d="M10.5389,14.8545 L12.1979,14.8545 L12.1979,13.8545 L10.5389,13.8545 C10.2629,13.8545 10.0389,14.0785 10.0389,14.3545 C10.0389,14.6305 10.2629,14.8545 10.5389,14.8545" id="Fill-14" fill="#7864FF" fill-rule="nonzero"></path>
                                            <path d="M4.8221,4.2812 C4.8221,4.7352 4.4531,5.1032 3.9991,5.1032 C3.5441,5.1032 3.1761,4.7352 3.1761,4.2812 C3.1761,3.8262 3.5441,3.4582 3.9991,3.4582 C4.4531,3.4582 4.8221,3.8262 4.8221,4.2812" id="Fill-16" fill="#FFFFFF" fill-rule="nonzero"></path>
                                            <path d="M7.6131,4.2812 C7.6131,4.7352 7.2451,5.1032 6.7911,5.1032 C6.3361,5.1032 5.9671,4.7352 5.9671,4.2812 C5.9671,3.8262 6.3361,3.4582 6.7911,3.4582 C7.2451,3.4582 7.6131,3.8262 7.6131,4.2812" id="Fill-18" fill="#FFFFFF" fill-rule="nonzero"></path>
                                            <g id="Group-22" transform="translate(14.000000, 8.034400)">
                                                <g id="Fill-20-Clipped">
                                                    <g>
                                                        <mask id="mask-8" fill="white">
                                                            <use xlink:href="#path-7"></use>
                                                        </mask>
                                                        <g id="path-3"></g>
                                                        <path d="M11.5467,0.5457 L11.5387,0.5457 C11.1317,0.5467 10.7327,0.6537 10.3627,0.8127 L0.1977,5.1567 L0.1977,11.6007 C0.1977,14.9597 1.2837,18.1927 3.3377,20.9527 C5.3717,23.6867 8.2127,25.7797 11.5467,26.9997 C14.8807,25.7797 17.7217,23.6867 19.7557,20.9527 C21.8097,18.1927 22.8957,14.9597 22.8957,11.6007 L22.8957,5.1567 L12.7297,0.8127 C12.3597,0.6537 11.9617,0.5467 11.5547,0.5457 L11.5467,0.5457 Z" id="Fill-20" fill="#7864FF" fill-rule="nonzero" mask="url(#mask-8)"></path>
                                                    </g>
                                                </g>
                                            </g>
                                            <path d="M23.9647,12.8916 L17.1837,15.7896 L17.1837,20.1346 C17.1837,22.5086 17.9497,24.7926 19.4017,26.7426 C20.5807,28.3276 22.1417,29.6066 23.9647,30.4916 L23.9647,12.8916 Z" id="Fill-23" fill="#FFFFFF" fill-rule="nonzero"></path>
                                        </g>
                                    </g>
                                </g>
                            </g>
                        </g>
                    </g>
                </g>
            </g>
        </g>
    </g>
</svg>