<svg xmlns="http://www.w3.org/2000/svg" width="982" height="650" xmlns:xlink="http://www.w3.org/1999/xlink"><title>PAYMENTS</title><style>._floating{ -webkit-animation-name: _Floatingx; -webkit-animation-duration: 3s; -webkit-animation-iteration-count: infinite; -webkit-animation-timing-function: ease-in-out; -moz-animation-name: _Floating; -moz-animation-duration: 3s; -moz-animation-iteration-count: infinite; -moz-animation-timing-function: ease-in-out; } @-webkit-keyframes _Floatingx{ from {-webkit-transform:translate(0, 0);} 65% {-webkit-transform:translate(0, 6px);} to {-webkit-transform: translate(0, 0); } } @-moz-keyframes Floating{ from {-moz-transform:translate(0, 0);} 65% {-moz-transform:translate(0, 6px);} to {-moz-transform: translate(0, 0);} }</style> <desc>Created with Sketch.</desc><defs><path id="path-1" d="M0 .7h981.53V650H0"/><path id="path-3" d="M0 .7h981.53V650H0"/></defs><g id="final" fill="none"><g id="Desktop-HD-Copy-25"><g id="Page-1"><path id="Fill-1" fill="#E6FBFF" d="M5.57 468.32s28.67 46.3 48.7 63.8c20.04 17.53 79.53 46.95 113.07 39.63 33.55-7.32 55.07-13.48 85.44-5.17 30.36 8.3 32.88 13.5 86.44 14.37 0 0 12.3 6.17 39.45 5.52 27.16-.64 90.7-7.67 128.16 1.12 37.44 8.8 67.33 17.63 88 30.72 20.65 13.08 42.48 2 42.48 2s60.66 14.15 107.3 12.58c46.65-1.56 46.7-9.77 46.7-26.06s-49.9-21.52-46.7-25c3.2-3.48 64.1-5.03 37.14-36-26.98-31-84.58-43.56-103.55-59.84-48.3-41.43 48.98-32.84-13.23-57.86-25.33-10.2-96.4-38.9-95.16-38.4 0 0-87.5 9.9-113.33 19.64 0 0-18.76 7-76.03 7.94L358 402.14 120.16 438.5 30.6 450.53l-25.04 7.15v10.64z"/><path id="Fill-3" fill="#E1F9FF" d="M530.37 38.82c.8-1.1 3.82-1.64 5.2-1.88 5.1-.87 10.4-.2 15.2 1.66 11.9 4.6 20.44 15.72 20.68 24.5.16 5.44-.8 12.06-4.2 16.57-1.3 1.74-3.28 3.2-5.53 3.65-1.35.26-5.22.54-5.43-1.47-.17-1.45 2.25-2.24 3.04-3.1 1.6-1.76 5-7.34 1.78-9.17-1.7-.97-6.27 1.48-7.58.07-1.15-1.24 2.96-3.34 3.8-3.87 4.62-2.9 2.3-7.06-1.65-9.15-5.23-2.75-10.9-.45-16.02-2.63-1.18-.5-2.36-1.66-1.97-2.88.17-.5.56-.9.97-1.23.94-.8 8.4-3.18 5.42-4.26-1.57-.57-15.8-3.95-13.73-6.82"/><path id="Fill-5" fill="#D4F3FF" d="M13.93 463.95l15.15-.72 54.64-2.54 35.46-3 1.43-.27-.43-18.93s224.5-34.42 228.14-34.46c3.64-.05 7.74-1.25 7.74-1.25l1.95-1.08L377.6 416l2.84 1.32s59.5-4.05 69.37-6.64 14.8-2.8 14.8-2.8v-.92s27.84-6.3 46.53-9.52c18.7-3.24 58.68-7.7 58.68-7.7l16.73 16.36 2.24 31.52 1.22 36.2s1.05 4.68-5.52 9.2c-6.57 4.5-17.63 12.04-18.35 12.63-.73.58-5.3 6.22.77 7.14s74.55 2 74.55 2 42.04 11.65 56.3 17.74c14.23 6.1 56 20.34 60.76 34.6 4.76 14.23-1.5 20.06-39.2 9.07-37.7-10.97-71.32-20.47-75.4-12.87-4.1 7.6 26.3 12 34.84 22.14 8.55 10.14 5.32 28.2-34.85 12.04-40.18-16.13-110.37-30.37-147.45-32.27s-100.23 10.44-145.57 0c-45.35-10.45-95.08-22.8-137.64-16.15s-148.1 6.43-199.3-75.13"/><path id="Fill-7" fill="#000" d="M22.1 114.23c.14 0 .14-.56 0-.56s-.13.56 0 .56"/><path id="Fill-9" fill="#000" d="M27.17 104.1c-3.65 54.16-2.33 109.03.2 163.2.04 1.26.94 1.26.92-.02-.97-54.25-2.12-108.32-.2-162.56.05-1-.82-2.23-.93-.6"/><path id="Fill-11" fill="#000" d="M13.46 184.83c.58 44.5 2.77 89.1 4.72 133.58.07 1.53 1.2 1.53 1.16-.02-1.26-44.5-2.3-89.14-4.94-133.58-.08-1.3-.96-1.32-.94.03"/><path id="Fill-13" fill="#000" d="M72.74 12c36.58-2.32 73.15-4.57 109.8-5.9 36.6-1.33 73.3-1.34 109.9-3.24.25-.02.23-1.35-.05-1.36-36.6-.6-73.36 1.45-109.9 3C145.9 6 109.25 7.44 72.67 9.54c-.54.03-.45 2.5.06 2.46"/><path id="Fill-15" fill="#000" d="M182.05 6.57c0-.12.02-.25.02-.38.03-.36.04-1.2-.4-1.34-.16-.05-.3-.1-.47-.15-.1.02-.16.08-.2.16-1.46 2.04-.3 6.28-.2 8.5.25 5.36.3 10.77.86 16.1.1 1.1.7.55.7-.26 0-1.87-.55-22.2-.64-22.23-.13-.35-.27-.7-.4-1.04v.4c-.02.84.66 1.45.73.24"/><path id="Fill-17" fill="#000" d="M184.1 35.4c-1.3-2.53-4.4-2.72-6.42-.8-2.34 2.23-2.35 6.54-1.85 9.48.1.6.5.62.53 0 .13-2.6-.3-5.74 2.03-7.54 1.38-1.08 4.2-1.6 5.4.04.33.45.42-.95.3-1.17"/><path id="Fill-19" fill="#E6E7E8" d="M180.04 35.4s1.55 6.78-.07 9.8c-1.63 3.03.8 1.96 3.95 2.14 3.14.18 13.8.72 14 2.76.18 2.05-12.86 1.7-13.9 2.23-1.05.53 8.74 3.34 8.74 3.36 0 0-6.92 2.3-14.05 2.56-7.13.27-31.45-3.13-31.45-3.13s15.18-8.8 21.2-9.8 7.73 1.53 7.56-4.1c-.16-5.64 4.04-5.82 4.04-5.82"/><path id="Fill-21" fill="#000" d="M174.46 43.68c-10.08.77-19.18 4.63-27.34 10.53-.4.3-.38 1.72.15 1.88 18.6 5.66 37.62 3.04 56.38-.4.3-.07.25-1.12-.03-1.08-18.78 2.45-37.9 5.14-56.4-.43.05.63.1 1.25.15 1.88 8.18-5.95 17.2-9.27 27.12-11.06.35-.08.3-1.35-.04-1.32"/><path id="Fill-23" fill="#000" d="M184.08 37.8c-.4 2.23-.5 5.12.68 7.15.2.34.26-.6.25-.68-.45-2.15-.94-4.04-.75-6.28 0-.14-.12-.5-.17-.2"/><path id="Fill-25" fill="#000" d="M185.48 45.76c5.28-.78 10.47-.6 15.63.8 1.36.36 2.7.77 4.02 1.2.88.3 1.76.6 2.63.95l.35 3.47c-.84 1.32-4.35 1.95-5.76 2.9-.28.18-.17 1.43.17 1.25 2.76-1.46 9.4-3.3 6.63-7.8-1.54-2.5-6.2-3.44-8.87-4.03-5-1.1-9.88-.77-14.8.48-.2.05-.17.8.02.78"/><path id="Fill-27" fill="#000" d="M162 51.34c-.66.17-1.33.3-2 .45-.32.07-.3 1.18.04 1.2 3.36.18 6.74.5 10.1.4.27-.02.26-.96-.02-1-3.34-.43-6.74-.46-10.1-.6l.08 1.18c.63-.27 1.27-.53 1.92-.8.23-.08.17-.9-.02-.84"/><path id="Fill-29" fill="#000" d="M175.06 59.5c-2.86 1.24-2.92 5.3-1.86 7.8 1.37 3.2 5.02 5.4 8.5 5 3.3-.37 5.37-2.96 5.72-6.13.3-2.73-.57-6.32-3.48-7.28-.48-.17-.46 1.25-.12 1.46 4.4 2.67 3.3 9.13-1.9 9.94-1.92.3-3.96-.3-5.56-1.4-2.4-1.65-4.6-6-1.07-7.66.43-.2.28-1.97-.24-1.74"/><path id="Fill-31" fill="#000" d="M18.06 382.8c.18 11.96.88 23.87 2.48 35.74.18 1.34.9.3.82-.55-1.14-11.73-2.03-23.45-2.3-35.23-.03-1.42-1.02-1.4-1 .02"/><path id="Fill-33" fill="#000" d="M28.1 297.48c.08-8.34 1.18-16.64 1.27-24.95-.5 0-1 .03-1.5.04-.17 17.07-1.83 35.46 1.07 52.34.3 1.83 1.27.45 1.12-.74-2.27-16.77-.73-34.72-.7-51.63 0-2.12-1.5-2.1-1.5.04-.03 8.3-.2 16.6-.25 24.92 0 .68.5.67.5-.02"/><path id="Fill-35" fill="#000" d="M359.44 323.27c-.38 3.86-.33 7.76.48 11.56.1.48.27-.1.24-.32-.56-3.72-.9-7.4-.65-11.17.02-.1-.04-.2-.06-.06"/><path id="Fill-37" fill="#000" d="M303.36 94.76c.14 0 .13-.6-.02-.6-.14 0-.13.6.02.6"/><path id="Fill-39" fill="#000" d="M303.35 94.5c.02 0 .02-.1 0-.1-.03 0-.02.1 0 .1"/><path id="Fill-41" fill="#000" d="M306.34 95.3c10.6 1.7 22.3-.98 33-1.4 11.15-.47 22.32-.78 33.48-1.33.36-.02.32-1.5-.03-1.48-11.18.32-22.34.88-33.5 1.3-10.66.4-22.62-1.38-33 1.22-.42.1-.4 1.63.04 1.7"/><path id="Fill-43" fill="#000" d="M387.15 91.43c17.16 2 34.88.5 52.07-.5.13 0 .1-.55-.02-.53-17.46 1.37-34.65-.13-52.1-.45-.32 0-.32 1.44.05 1.48"/><path id="Fill-45" fill="#000" d="M301.35 96.55c-1.16 18.36-.8 36.92-.56 55.3.23 18.4.47 36.98 2.13 55.32.1 1.06.83.57.8-.26-.55-18.36-1.77-36.7-2.1-55.07-.34-18.37.32-36.73.23-55.1 0-.6-.46-1.02-.5-.18"/><path id="Fill-47" fill="#000" d="M307.14 211.87c7 1.9 15.13.77 22.35.58 7.9-.2 15.8-.5 23.7-.66 15.3-.34 30.82-.1 46.03-1.78.37-.04.33-1.36-.04-1.37-15.3-.6-30.75.5-46.05.84-7.44.14-14.9.14-22.33.14-7.62 0-16.36-1.1-23.7 1.03-.34.1-.3 1.1.02 1.2"/><path id="Fill-49" fill="#000" d="M422.62 208.8c2.52-.25 5.03-.5 7.55-.75.17 0 .14-.6-.02-.6-2.5.27-5.03.53-7.54.8-.15 0-.12.56.02.54"/><path id="Fill-51" fill="#000" d="M403.7 209.93c3.57-.1 7.15-.04 10.63-.8.27-.06.25-.98-.02-1-3.56-.13-7.1.6-10.6 1.14-.18.03-.16.66 0 .66"/><path id="Fill-53" fill="#000" d="M431.54 98.8c-4.58 34.67-8.14 69.77-9.63 104.72-.04 1.24 1.07 2.74 1.23.74 2.76-35.1 5.3-70.14 8.66-105.18 0-.2-.2-.75-.26-.3"/><path id="Fill-55" fill="#000" d="M370.78 114.8c-1.93 18.25-3.08 36.62-3.72 54.96 0 .53.45 1.2.5.32 1.18-18.37 2.4-36.76 3.4-55.15.02-.22-.14-.52-.18-.14"/><path id="Fill-57" fill="#000" d="M366.7 179.74v1.52c0 .16.1.15.1 0v-1.52c0-.16-.1-.16-.1 0"/><path id="Fill-59" fill="#000" d="M309.52 121.5c-1.73 23.33-2.97 46.96-1.6 70.33.02.6.4.58.4 0 .66-23.35.5-46.7 1.6-70.05 0-.43-.35-.98-.4-.27"/><path id="Fill-61" fill="#000" d="M318.24 153.26c7.04-5.43 14-10.9 20.7-16.72.23-.2.1-1.17-.12-1-7.1 5.52-13.86 11.38-20.63 17.3-.1.08-.05.5.04.42"/><path id="Fill-63" fill="#000" d="M320.84 161.95c2.8-2.1 5.55-4.22 8.22-6.5.28-.23.2-1.6-.18-1.36-2.87 1.76-5.6 3.67-8.35 5.64-.56.4-.2 2.58.3 2.2"/><path id="Fill-65" fill="#000" d="M335.82 149.63l2.26-2.26c.04-.04 0-.2-.02-.16-.76.76-1.5 1.52-2.27 2.27-.04.04 0 .2.02.16"/><path id="Fill-67" fill="#000" d="M327.55 173.3c8.16-5.48 16.13-11.3 23.4-17.9.25-.24.1-1.37-.15-1.17-7.66 6.3-15.27 12.6-23.35 18.38-.16.12-.07.8.1.7"/><path id="Fill-69" fill="#000" d="M378.16 150.13c7.3-3.46 14.1-8.32 20.37-13.4.35-.3.15-1.85-.2-1.6-6.7 4.78-13.6 9.17-20.32 13.9-.23.16-.18 1.26.16 1.1"/><path id="Fill-71" fill="#000" d="M380.26 158.65c5.07-3.14 10.14-6.27 15.2-9.4.27-.17.1-1.16-.13-1-5.04 3.32-10.1 6.65-15.13 9.98-.1.06-.06.48.06.42"/><path id="Fill-73" fill="#000" d="M399.96 146.14c2.5-1.28 5-2.56 7.52-3.84.24-.12.13-1.08-.12-.95-2.5 1.28-5.02 2.56-7.52 3.84-.24.1-.13 1.07.12.94"/><path id="Fill-75" fill="#000" d="M384.9 163.94c4.3-2.75 8.62-5.46 12.84-8.33.44-.28.23-2.06-.24-1.78-4.34 2.66-8.6 5.46-12.86 8.23-.48.3-.22 2.2.26 1.9"/><path id="Fill-77" fill="#000" d="M335.1 150.9c.85-1.52 2.15-2.28 3.75-2.82.4-.13.4-1.5-.03-1.47-1.74.15-3.27 1.5-4.06 3-.17.3-.2.7-.1 1.04.06.15.27.6.45.26"/><path id="Fill-79" fill="#000" d="M606.76 506.93c-.5-.02-1.07-.13-1.54.07-.13.05-.1.58.02.63.47.2 1.03.1 1.54.07.2 0 .18-.76-.02-.77"/><path id="Fill-81" fill="#000" d="M549.42 387.63c1.5-.27 3.02-.54 4.53-.8.13-.03.1-.4 0-.4-1.52.24-3.03.47-4.54.7-.15.03-.1.52.02.5"/><path id="Fill-83" fill="#000" d="M539.6 303.55s0-.05 0-.05c-.02 0-.02.05 0 .05"/><path id="Fill-85" fill="#000" d="M477.95 345.83c6.37 5.85 19.43 8.2 26.65 2.24 3.36-2.78 6.1-8.6 2.22-12.2-5.2-4.83-8.85 3.16-8.48 7.53.8 9.42 11.87 12.86 19.84 12.54.3-.02.3-1.07-.03-1.07-4.83-.05-9.66-.53-13.8-3.32-1.53-1-2.86-2.25-3.97-3.73.33-3.94.67-7.87 1-11.8 4.88-2.1 6.52.87 4.95 8.92-1 1.54-2.35 2.6-4.03 3.14-7.62 3.55-18.2 1.84-24.23-3.68-.24-.22-.46 1.12-.12 1.43"/><path id="Fill-87" fill="#000" d="M464.02 354.4c.08 0 .07-.25 0-.25-.08 0-.08.26 0 .26"/><path id="Fill-89" fill="#C5E3FC" d="M551.08 484.06c-3.16 6.93-2.44 13.7.2 20.63 1.05 2.78 2.16 5.65 4.2 7.84 5.03 5.4 13.55 5.18 20.34 5.9 4.97.55 9.95 1.1 14.46 2.8 7.83 2.94 16.94.08 24.97-.64 11.92-1.07 23.9-.5 35.8-1.54 1.4-.13 2.96-.36 3.86-1.46.6-.74.8-1.73.83-2.7.25-6.44-5.3-9.52-9.2-13.7-4.23-4.52-1.03 4.87-7.43 3.73-5.1-.9-2.02 1.44-6.65-1.07-5.03-2.72-26.48-3.08-32.47-1.07-2.13.7-5.1 0-7.34.33-4.32.63-10.95-10.54-13.06-13.26-3.15-4.05-11.6-19.07-17.85-15.5-4 2.3-8.64 5.3-10.65 9.7"/><path id="Fill-91" fill="#E6E7E8" d="M596.54 342.03s-.63 31.3-1.7 36.78c-1.1 5.5 7.62 103.2 7.36 106.05-.26 2.83 28.23 8 30.37 9.33 2.13 1.34 4.54 10.43 4.54 10.43l-68.14-1.8s-2.82-5.1 1.72-6.9c4.55-1.8 17.7-9.28 19.3-12.3s-3.6-99.03-4.3-104.8c-.73-5.74-1.2-13.88-1.2-13.88s4.63-3.43 6.15-24.43l5.9 1.53z"/><path id="Fill-93" fill="#E6E7E8" d="M600.74 313.88s-1.9 7.58 0 10.74 3.9.96 5.4 3.5c1.5 2.5-1.52 12.37-1.52 12.37s-5.9 3.43-14 0c.3-2.7-1.9-23.6-4.1-26.62h14.22z"/><path id="Fill-95" fill="#000" d="M584.2 357.52c.4 39.9 2.5 80.58 8.2 120.1.1.6.53.34.5-.17-3.14-40.02-6.48-79.82-8.13-119.94-.04-.9-.6-.9-.58.02"/><path id="Fill-97" fill="#000" d="M599.23 388.32c-1.55 29.86.46 59.27 5.92 88.64.15.8.6.2.5-.33-5.23-28.93-7.18-58.6-5.9-87.97.02-.55-.47-1.24-.52-.34"/><path id="Fill-99" fill="#000" d="M587.06 480.4c-4.1 2.8-8.22 5.58-12.33 8.37-3.23 2.2-7.36 4.2-10.03 7.05-1.82 1.96-2.72 5.7-.03 7.3.44.26.36-1.2.2-1.4-3.2-4.1 7.95-9.74 10.1-11.22 4.1-2.86 8.2-5.7 12.3-8.56.36-.26.14-1.77-.2-1.53"/><path id="Fill-101" fill="#000" d="M606.96 481.3c7.13 2.02 14.12 4.44 20.9 7.4 5.6 2.45 12.5 5.22 14.03 11.86.16.74.46 0 .44-.37-.24-5.45-3.53-8.63-8.2-11.2-8.28-4.52-18.15-7.17-27.22-9.46-.33-.08-.46 1.6.04 1.75"/><path id="Fill-103" fill="#000" d="M565.4 503.64c13.23.18 26.45.45 39.66.87 13.1.43 26.54 2.2 39.63 1.42.47-.03.44-1.9-.05-1.97-12.97-1.92-26.56-1.15-39.64-1.44-13.2-.28-26.4-.48-39.63-.56-.4 0-.4 1.7.04 1.7"/><path id="Fill-105" fill="#000" d="M572.14 499.98c4.77-3.3 9.9-5.8 15.3-7.9.36-.15.2-1.55-.1-1.46-5.57 1.74-10.66 4.5-15.4 7.88-.35.26-.14 1.7.2 1.48"/><path id="Fill-107" fill="#000" d="M566.33 284.85c-6.33-2.53-11.8 6.2-14.1 10.92-3.2 6.54-3.97 13.84-3.48 21.02.05.66.5.67.48-.02-.14-6.65.75-13.07 3.67-19.1 2.2-4.56 7.1-13.34 13.3-11.1.5.2.57-1.56.13-1.73"/><path id="Fill-109" fill="#000" d="M567.9 379.68c8.9-3.67 15.74-10.57 19.4-19.44.16-.38-.18-1.76-.48-1.04-3.58 8.8-10.35 15.62-19.08 19.32-.32.14-.22 1.32.17 1.16"/><path id="Fill-111" fill="#000" d="M554.84 293.57c8.1-.74 12 11.9 13.76 17.78.33 1.1.7-.4.56-.9-1.6-6.23-5.68-19.86-14.36-18.74-.53.08-.44 1.92.04 1.87"/><path id="Fill-113" fill="#000" d="M557.5 347.38c1.92-1.6 3.98-3.08 5.64-4.93 1.7-1.88 2.85-4.08 3.85-6.38.04-.13-.06-.65-.18-.38-2.2 4.68-5.54 7.56-9.43 10.83-.2.18-.07 1 .1.85"/><path id="Fill-115" fill="#000" d="M565.7 363.2c4.56-5.57 7.36-11.96 8.45-19.06.12-.74-.66-2.8-.92-1.22-1.15 6.88-3.82 13.2-7.92 18.86-.24.35-.02 1.94.4 1.4"/><path id="Fill-117" fill="#000" d="M566.23 285.7c10.3 5.12 13 16.5 15.2 26.94 2.25 10.6 2.9 21.5 1.9 32.28-.08.87.63 1.9.8.52 1.58-11.4.67-23.04-1.8-34.25-2.27-10.4-5.04-21.97-16.06-25.97-.14-.05-.15.42-.04.48"/><path id="Fill-119" fill="#000" d="M587.28 315.54c3.45 15.64 3 31.4-1.25 46.84-.13.5.32 1.72.58.77 4.4-15.9 4.7-32.16 1.07-48.23-.17-.76-.47.27-.4.62"/><path id="Fill-121" fill="#000" d="M587.28 313.87c8.8.44 17.62 1.25 26.42 1.6.43 0 .4-1.5-.04-1.6-8.63-1.72-17.67-1.7-26.4-.77-.2.03-.2.76.02.77"/><path id="Fill-123" fill="#000" d="M600.25 340.17c.47 18.32-.07 36.62-1.34 54.9-.04.68.56 1.5.65.4 1.52-18.4 1.8-36.85 1.1-55.3-.03-.6-.4-.6-.4 0"/><path id="Fill-125" fill="#000" d="M568.48 321.17c-3.46-.8-3.25 6.45-3.06 8.38.46 4.47 2.5 8.96 6.46 11.33.7.42.64-1.97.2-2.38-1.77-1.67-3.3-3.47-4.33-5.7-.86-1.9-2.77-9.37.77-9.93.5-.08.42-1.6-.04-1.7"/><path id="Fill-127" fill="#000" d="M557.13 306.9c-5 5.8-6.53 16.13.6 20.97.2.13.28-.65.08-.8-6.65-4.88-5.33-14.1-.6-19.9.06-.05 0-.37-.07-.27"/><path id="Fill-129" fill="#000" d="M558.46 305.85c2.77 5.8 7.1 10.76 9.9 16.52.23.47.37-.47.27-.7-2.75-5.83-7.1-10.8-9.9-16.6-.23-.5-.4.53-.27.78"/><path id="Fill-131" fill="#000" d="M557.42 346.84c-3.57 5.6 1.05 16.52 7.27 18.2.24.08.32-1-.04-1.1-5.84-1.6-10.15-11.72-7.18-16.87.04-.06 0-.32-.06-.23"/><path id="Fill-133" fill="#000" d="M549.63 348.56c1.35 6.87 4.03 13.28 7.93 19.1 2.43 3.62 6.02 8.92 10.63 9.96.4.1.44-1.42.05-1.57-10-3.6-16.27-18.65-18.2-27.92-.14-.63-.48.1-.42.43"/><path id="Fill-135" fill="#000" d="M580.36 299.8c2 5.84 3.46 11.78 4.48 17.87.1.67.42.15.36-.27-.94-6.26-2.5-12.37-4.58-18.35-.17-.5-.34.5-.26.74"/><path id="Fill-137" fill="#000" d="M563.35 292.04c3.8.07 7.1 14.02 7.78 16.34 2.02 6.8 4.1 14.1 3.93 21.25 0 .5.42.82.44.14.32-8.15-2.15-16.68-4.66-24.34-.72-2.22-3.73-14.28-7.5-14-.17.02-.16.6 0 .6"/><path id="Fill-139" fill="#000" d="M572.84 363.74c8.5-14.6 9.17-31.05 4.83-47.12-.1-.4-.27.14-.22.33 4.1 15.9 3.6 32-4.7 46.42-.07.1 0 .5.1.37"/><path id="Fill-141" fill="#000" d="M581.26 344.37c-.7 8.2-2.16 18.74-8.5 24.64-.28.27-.07 1.38.16 1.17 6.63-6.17 7.97-17.08 8.63-25.62.02-.3-.24-.67-.3-.18"/><path id="Fill-143" fill="#000" d="M585.42 316.45c3.16 13.55 3.78 27.13 2.4 40.95-.04.47.34 1.02.45.28 1.9-14.1.94-28.2-2.35-42.02-.23-.96-.6.34-.5.8"/><path id="Fill-145" fill="#000" d="M586.53 319.46c3.76.57 7.56.66 11.32-.03.26-.05.2-.94-.02-.9-3.8.5-7.5.67-11.32.2-.17-.03-.2.7.03.73"/><path id="Fill-147" fill="#000" d="M587.25 325.02c3.03.9 6.06.83 9.04-.2.4-.13.2-1.4-.04-1.3-2.96 1.08-6 1.22-9.03.4-.23-.06-.3 1 .02 1.1"/><path id="Fill-149" fill="#000" d="M589.56 334.76c3.53.02 7.04.05 10.57-.04.3 0 .3-1.14-.03-1.15-3.52-.1-7.04-.06-10.57-.04-.33 0-.32 1.23.03 1.23"/><path id="Fill-151" fill="#000" d="M590.63 339.43c2.64.4 5.56 1.17 8.25.98 1.14-.07 2.1-.66 3.12-1.1.23-.1.15-1.03-.07-.97-1.07.3-2.08.67-3.2.72-2.68.1-5.5-.55-8.13-.93-.32-.05-.37 1.25.03 1.3"/><path id="Fill-153" fill="#000" d="M589.6 340.83c7.1 3.96 15.4 2.5 20.55-3.8.18-.23 0-1.37-.22-1.15-5.32 5.08-13.58 6.57-20.2 3.26-.45-.23-.57 1.45-.14 1.7"/><path id="Fill-155" fill="#000" d="M612.95 332.76c.07 0 .07-.25 0-.25-.08 0-.08.26 0 .26"/><path id="Fill-157" fill="#000" d="M615.2 328.13c.02 0 .02-.05 0-.05 0 0 0 .05 0 .05"/><path id="Fill-159" fill="#000" d="M612.38 319.6c-.7 6.8-1.68 13.7-1.78 20.53 0 .33.33.88.43.28 1.14-6.7 1.33-13.68 1.84-20.46.04-.53-.4-1.2-.5-.33"/><path id="Fill-161" fill="#000" d="M613.07 320.55c0-.25 0-.5-.02-.75 0-.23-.2-.4-.2-.07-.02.25-.02.5-.03.74 0 .38.27.57.25.08"/><path id="Fill-163" fill="#000" d="M613 318.94c-.62 7.03-1.33 14.06-1.8 21.1-.02.44.34 1 .42.27.73-7 1.23-14.06 1.8-21.1.02-.43-.34-.97-.4-.26"/><path id="Fill-165" fill="#000" d="M598.5 341.88c2 10.8 1.23 21.28-1.85 31.78-.12.4.33 1.95.62 1.08 3.63-10.97 4.08-22.24 1.84-33.55-.18-1.02-.7.18-.6.68"/><path id="Fill-167" fill="#000" d="M551.52 298.3c-5.65 16.82-6.03 33.3-1.95 50.54.25 1.07.68-.37.57-.87-3.88-16.7-3.37-32.56 1.7-48.92.07-.24-.14-1.3-.32-.76"/><path id="Fill-169" fill="#000" d="M554.68 357.63c1.6 4.26 3.7 8.43 7.67 10.9.24.16.3-.73.1-.9-3.75-2.74-5.9-6.33-7.55-10.58-.15-.4-.3.4-.22.58"/><path id="Fill-171" fill="#000" d="M540.95 282.8c-5.98 5.2-9.25 12.28-9.88 20.14-.06.85.66 1.9.78.52.7-7.52 4-14.2 9.24-19.6.2-.22.06-1.24-.15-1.06"/><path id="Fill-173" fill="#000" d="M534.98 274.88c-5.55 4.52-9.33 10.36-11.24 17.25-.1.34.22 1.75.42 1.04 2-6.88 5.7-13 10.86-17.97.07-.06.03-.37-.04-.32"/><path id="Fill-175" fill="#000" d="M593.18 278.75c3 6.32 4.7 12.94 5.17 19.92.05.7.5.7.47 0-.36-7.3-2.15-14.26-5.32-20.86-.3-.6-.46.66-.32.95"/><path id="Fill-177" fill="#000" d="M600.1 271.97c7.58 7.47 8.17 18.2 8.46 28.24.03 1 .67 1 .65 0-.23-10.45-.98-21.77-9-29.4-.18-.16-.35.93-.1 1.17"/><path id="Fill-179" fill="#000" d="M540.52 490.2c3 2.14 6.4 3.92 9.68 5.58.55.28.62-1.42.17-1.7-3.08-1.94-6.34-4-9.7-5.42-.54-.24-.5 1.3-.15 1.54"/><path id="Fill-181" fill="#000" d="M539 474.08c6.55 2.87 12.76 6.3 18.7 10.27.36.22.5-1.07.14-1.32-5.92-3.93-12.17-7.2-18.73-9.94-.32-.15-.38.86-.1.98"/><path id="Fill-183" fill="#000" d="M566.87 481.7c1.75.76 3.5 1.52 5.28 2.23.23.1.26-.6.07-.68-1.74-.8-3.5-1.56-5.28-2.3-.24-.1-.3.66-.07.75"/><path id="Fill-185" fill="#000" d="M620.52 515c5.88.72 11.26 2.63 16.54 5.28.3.15.34-.8.1-.95-5.1-3.12-10.77-4.8-16.67-5.5-.33-.03-.36 1.1.02 1.16"/><path id="Fill-187" fill="#000" d="M643.86 514.12c1 .5 2 1 3.02 1.5.2.1.26-.57.06-.67l-3.02-1.5c-.2-.1-.26.57-.06.67"/><path id="Fill-189" fill="#000" d="M125.97 343.55c8.3-1.15 16.65-2.23 24.9-3.68.14-.03.1-.55-.02-.54-8.3 1.1-16.62 2.6-24.9 4-.04.02-.03.22.02.22"/><path id="Fill-191" fill="#000" d="M152.87 342.58c-.43 6.95-.6 14.72.76 21.58.2.96.57-.35.48-.8-1.27-6.4-1.07-13.87-.67-20.4.04-.62-.5-1.43-.56-.38"/><path id="Fill-193" fill="#000" d="M150.56 339.4c-.6 7.64-2.1 16.38-.34 24.12.3 1.32.8-.3.75-.86-.44-4.58.2-9.45.33-14.05.1-3.18-.03-6.65-.13-9-.03-.68-.53-1.2-.6-.2"/><path id="Fill-195" fill="#C5ECF9" d="M32.98 352.84s62.62-5.7 90.25-9.47c0 0 9.25 1.2 15.18-.78 5.95-2 6.5 4.16 5.74 5.12s-22.12 4-23.43 4.97c-1.3.96 19.26-.13 21.56-.18s-.47 3.56-.62 5.56c-.16 2 .63 6.17.63 6.17L29.92 368.3l-.52-14.45 3.58-1z"/><path id="Fill-197" fill="#000" d="M33.91 369.15c39.84-.24 80.38-.97 119.97-5.5.14-.03.12-.55-.02-.54-40 1.85-79.92 3.76-119.98 4.37-.46 0-.43 1.7.04 1.68"/><path id="Fill-199" fill="#ECEFE4" d="M53.5 463.23H29.1l.53-27.96s9.9.06 22.43 1.84c12.53 1.8 16.83 1.06 16.83 1.06s12.57 3.58 17.13 3.23c4.55-.37 18.14-6.13 18.14-6.13s12.77-3.95 15.8-6.75l.67 28.9s-55.52 5.8-67.1 5.8"/><path id="Fill-201" fill="#000" d="M34.7 465.3c28.83-.62 58.33-2.47 86.75-7.48.22-.04.2-.8-.02-.78-28.96 1.92-57.77 4.47-86.8 5.55-.76.02-.7 2.72.06 2.7"/><path id="Fill-203" fill="#000" d="M46 368.6c2.95 31.46 5.94 62.96 9.2 94.4.07.7.6.4.55-.2-2.24-31.54-5.4-63.2-9.26-94.58-.13-.92-.55-.18-.5.37"/><path id="Fill-205" fill="#000" d="M64.16 369.46c3.34 7.82 2.6 16.84 2.87 25.2.2 7 .43 14 .65 21 .45 14.45.74 28.93 1.46 43.4.06 1.2.92 1.2.9-.04-.34-16.8-1.2-33.6-1.85-50.4-.32-7.92-.62-15.85-.94-23.8-.22-5.63-.5-10.75-2.9-15.95-.17-.38-.27.4-.2.6"/><path id="Fill-207" fill="#000" d="M87.5 364.67c-.5 31.87-2.05 64-.92 95.86.03.78.75 1.33.8.23 1.64-31.93.57-64.15.58-96.1 0-.78-.46-.77-.47 0"/><path id="Fill-209" fill="#000" d="M104.45 367.7c-.1 25.84-.24 51.6-1.68 77.42-.05 1.02.88 2.23 1 .6 1.7-25.9 2.56-52.1 1.32-78.04-.06-1.03-.65-1.03-.65 0"/><path id="Fill-211" fill="#000" d="M46.62 257.4c5.1-.6 10.25-.94 15.34-1.62.25-.03.2-.92-.02-.9-5.12.4-10.23 1.12-15.35 1.6-.26.03-.2.94.02.9"/><path id="Fill-213" fill="#000" d="M90.78 258.1c-.5 2.83.1 5.86.3 8.7.23 3.23.32 6.5.7 9.7.07.6.54.6.57 0 .18-3.4-.02-6.83-.27-10.23-.2-2.67-.02-5.77-1.1-8.23-.07-.17-.17-.06-.2.07"/><path id="Fill-215" fill="#000" d="M92.15 303.6c-.84 2.2-.57 4.8-.68 7.13-.16 3.4-.44 6.8-.38 10.17 0 .4.43 1.05.55.33.54-3.25.68-6.56.83-9.85.1-2.52.5-5.24-.13-7.7-.03-.14-.13-.25-.2-.07"/><path id="Fill-217" fill="#000" d="M28.62 327.6c5.2 0 10.7.33 15.83-.6.27-.05.25-.9-.03-.93-5.2-.25-10.62.5-15.8.94-.2.03-.18.6 0 .6"/><path id="Fill-219" fill="#E6E7E8" d="M61.74 261.26c1.37 3.8 2.85 7.52 4.5 11.2.2.4.4.83.48 1.28.35 1.97-1.2 4.1-1.9 5.85-1.23 3.2-2.65 6.5-2.68 9.97-.04 5.1 1.8 10.38 5.03 14.33 3.52 4.28 12.13 6.5 13.38 12.18.4 1.73-22.15 2.3-22.15 2.3v4.2s-.25 2.44 2.6 2.38c2.84-.07 29.15-3.3 29.15-3.3s2.8-2.42 1.16-6.6l-.75-.87s-2.46-1.62-3.06-2.1c-3.7.13-4.6-1.16-4.88-1.95-.28-.78-.3-3.4-1.37-4.4-1.08-1-4.54-.66-11.57-6.1-7.04-5.45-3.43-15.8-1.4-19.1 1.56-2.56 5.14-5.32 3.33-8.64-.3-.56-.74-1.05-1.16-1.55-3.08-3.7-5.07-8.2-7.18-12.5l-2.62.42 1.1 3z"/><path id="Fill-221" fill="#000" d="M59.2 325.8c12.68-.86 25.62-1.9 38.05-4.6.42-.1.36-1.43-.03-1.4-12.7 1.3-25.35 3.57-38.03 5.1-.28.02-.25.9 0 .9"/><path id="Fill-223" fill="#000" d="M58.52 327.5c-.33 8.06-.6 16.3-.12 24.34.04.76.73 1.3.8.22.47-8.06.22-16.32-.1-24.4-.04-.55-.54-.96-.58-.15"/><path id="Fill-225" fill="#000" d="M44.27 329.2c.3 8.1.96 16.4 2.63 24.34.14.7.48.17.43-.28-.9-8.04-1.93-16-2.52-24.08-.04-.74-.56-.76-.53 0"/><path id="Fill-227" fill="#000" d="M41.4 314.13c3.95-1.18 8.03-1.28 12.13-.97.28.02.3-1-.03-1.04-4.22-.58-8.17.2-12.14 1.64-.1.03-.05.4.03.37"/><path id="Fill-229" fill="#000" d="M46.44 320.14c.04 1.15.6 2.36 1.63 2.93 1.1.6 2.36.57 3.24-.34.16-.16.15-1-.18-.9-1.48.5-4.04.07-4.32-1.8-.07-.5-.37-.28-.36.1"/><path id="Fill-231" fill="#000" d="M118.44 342.35c2.38-.08 4.64-.58 6.83-1.5.18-.08.12-.76-.1-.67-2.16.92-4.4 1.42-6.75 1.5-.2.02-.17.68.02.67"/><path id="Fill-233" fill="#000" d="M112.14 340.9c1.27 3 5.23 4.4 7.84 2.22.15-.12.13-.83-.1-.7-2.58 1.4-6.24.63-7.47-2.2-.2-.46-.35.44-.26.67"/><path id="Fill-235" fill="#000" d="M33.92 261.08c9.77-.65 19.65-1.26 29.36-2.57.37-.04.32-1.32-.03-1.3-9.8.52-19.63 1.78-29.36 2.97-.27.04-.23.92.02.9"/><path id="Fill-237" fill="#000" d="M69.78 257.46c2.1-.06 4.3-.1 6.38-.5.2-.03.17-.65 0-.65-2.13 0-4.3.38-6.4.7-.12.03-.1.47.02.46"/><path id="Fill-239" fill="#000" d="M69.78 259.48c2.1-.06 4.3-.1 6.38-.5.2-.03.17-.65 0-.65-2.13 0-4.3.37-6.4.7-.12.02-.1.46.02.45"/><path id="Fill-241" fill="#000" d="M78.82 255.88c2.85-.3 5.8-.9 8.66-.8.3 0 .3-1.1-.03-1.1-2.87-.12-5.8.5-8.66.8-.33.03-.28 1.13.02 1.1"/><path id="Fill-243" fill="#000" d="M88.3 254.6c.66 5.3 1.3 10.6 1.98 15.9.12.95.6.22.54-.38-.65-5.3-1.38-10.57-2.07-15.85-.1-.78-.5-.17-.44.32"/><path id="Fill-245" fill="#000" d="M42.97 312.83c3.64-1.5 7.42-1.9 11.32-1.46.17.02.17-.6-.03-.63-3.93-.67-7.74-.1-11.4 1.46-.17.08-.1.72.1.63"/><path id="Fill-247" fill="#000" d="M42.88 351.94c5.25-1.57 10.47-1.85 15.9-2.05.3-.03.3-1.08-.02-1.12-5.47-.68-10.84.58-15.93 2.52-.16.06-.1.7.05.64"/><path id="Fill-249" fill="#000" d="M121.35 459.93c3.2 2.25 6.3 4.77 9.83 6.48.37.2.35-.88.17-1.05-3-2.75-6.47-4.9-9.82-7.2-.46-.32-.65 1.44-.18 1.78"/><path id="Fill-251" fill="#000" d="M69.83 473.54c3.1 2.56 6.4 4.8 10.08 6.4.4.17.46-1.06.13-1.24-3.54-1.9-6.94-3.98-10.07-6.5-.3-.25-.47 1.06-.13 1.34"/><path id="Fill-253" fill="#000" d="M119.88 448.35c3.1 2.56 6.4 4.8 10.08 6.4.4.17.45-1.06.12-1.24-3.54-1.9-6.95-3.97-10.07-6.5-.28-.24-.46 1.07-.12 1.35"/><path id="Fill-255" fill="#000" d="M71.64 485.05c3.47 1.15 6.63 2.8 9.7 4.76.33.2.4-.9.12-1.1-2.94-2.14-6.25-3.66-9.72-4.76-.38-.13-.42 1-.1 1.1"/><path id="Fill-257" fill="#000" d="M51.98 483.6c7.24 5.66 14.4 11.47 21.84 16.87.34.24.46-1.1.13-1.35-7.13-5.7-14.55-11-21.88-16.44-.22-.16-.32.74-.1.92"/><path id="Fill-259" fill="#E6E7E8" d="M119.18 406.55s6.94 10.55 18.54 12.54c11.6 2 99.24-6.77 125.22-9.5 25.97-2.76 48.2-10.67 57.75-10.63 9.52.04 18.07-5.23 22.82-6.16 4.74-.9 9.65-2.34 9.65-2.34l5.14-2.2-.3 14.3s-88.8 14.34-92.8 13.94c-3.98-.4-145.03 22-145.03 22l-1-31.95z"/><path id="Fill-261" fill="#E0E2DC" d="M379 335.4c-1.1-1.15-3.9-.97-3.1-2.8.82-1.86 4.18-3.87 2.82-5.6-1.37-1.72-6.24-3.73-3.92-5.05 2.32-1.33 6.23 1.56 7.03-.75.57-1.62.34-6.62.16-9.5l-21.62-10.8-2.4 100.82L378.35 416c.43-20.94 1.54-79.64.65-80.6"/><path id="Fill-263" fill="#000" d="M385.5 311.87c-.85 17.5-1.58 35.03-2.25 52.55-.64 16.67-2.12 33.55-1.77 50.23.02.67.6 1.1.7.2 1.65-16.95 1.4-34.25 2.02-51.26.62-17.17 1.18-34.32 1.64-51.5 0-.37-.32-.88-.35-.23"/><path id="Fill-265" fill="#000" d="M465.35 304.4c-2.5 27.94-5.07 55.8-8.3 83.7-.07.56.4 1.18.54.32 4.02-27.7 6.92-55.8 8.1-83.78 0-.4-.3-.93-.35-.25"/><path id="Fill-267" fill="#000" d="M455.7 411.64v.76c0 .02.03.02.03 0v-.76c0-.02-.02-.02-.02 0"/><path id="Fill-269" fill="#000" d="M378.74 418.5c14.3-.48 28.56-1.64 42.77-3.1 13.88-1.45 29.17-2.12 42.52-6.28.3-.1.3-1.2-.03-1.2-14.05.13-28.55 3.56-42.55 5.02-14.22 1.5-28.5 2.44-42.76 3.37-.6.05-.54 2.2.04 2.2"/><path id="Fill-271" fill="#000" d="M394.18 315.94c-1.5 6.35-1.97 12.97-2 19.48-.02.44.37.76.4.13.2-6.36.63-12.83 1.96-19.06.06-.32-.2-1.26-.36-.56"/><path id="Fill-273" fill="#000" d="M392.98 320.17c-1.85 13.07-2.7 26.2-2.32 39.4.02.38.27.38.27 0-.22-13.12.44-26.12 2.25-39.1.02-.17-.14-.66-.2-.3"/><path id="Fill-275" fill="#BCBEC0" d="M403.64 331.2s.14 6.62-.2 7.6c-.33.97.06 6.1 0 7.5-.05 1.4-.57 22.74-.57 22.74l-9.3 1.47s-1.44-22.72 1.6-34.62l.96-3.3 7.5-1.38z"/><path id="Fill-277" fill="#BCBEC0" d="M422.5 328.96s1.16 5.46.86 6.45c-2.06 6.84-1.38 11.83-1.44 13.22s-1.73 18.7-1.73 18.7l-9.65.52s1.1-23.35 4.16-35.25c.96-3.3.3-2.25.3-2.25l7.5-1.4z"/><path id="Fill-279" fill="#000" d="M396.34 329.9c-3.93 13.35-4.37 28.15-2.88 41.92.07.67.5.36.47-.17-.92-14.17.34-27.54 2.52-41.54 0-.05-.06-.4-.1-.2"/><path id="Fill-281" fill="#000" d="M396.14 332.8c4-.82 8-1.58 11.96-2.54.27-.06.18-.94-.02-.9-4 .9-7.97 2-11.95 3.02-.12.03-.1.43 0 .4"/><path id="Fill-283" fill="#000" d="M407.25 329.95c-.94 10.54-1.8 21.1-2.4 31.68-.04.64.5 1.44.58.4 1-10.55 1.7-21.14 2.36-31.7.03-.6-.46-1.4-.55-.38"/><path id="Fill-285" fill="#000" d="M413.97 330.26c-1.15 11.97-2.95 23.9-3.7 35.9-.05.64.47 1.44.57.4 1.17-11.98 2.88-23.92 3.67-35.92.05-.6-.44-1.4-.53-.38"/><path id="Fill-287" fill="#000" d="M392.78 355.84c3.73-4.8 7.9-9.22 11.82-13.88.14-.17 0-1.06-.18-.9-4.5 4.13-8.26 9.17-11.82 14.1-.1.17 0 .92.18.68"/><path id="Fill-289" fill="#000" d="M393.66 359.16c4.52-4.83 9.1-9.62 13.3-14.75.2-.22 0-1.36-.22-1.15-4.68 4.7-8.95 9.82-13.3 14.83-.2.23.04 1.28.22 1.08"/><path id="Fill-291" fill="#000" d="M414.22 330.7c2.77-.25 5.53-.5 8.3-.88.28-.04.24-1.08-.04-1.07-2.77.17-5.53.47-8.3.76-.32.05-.27 1.23.04 1.2"/><path id="Fill-293" fill="#000" d="M410.5 351.7l7.53-5.35c.18-.13.07-.87-.1-.75-2.52 1.74-5.04 3.5-7.56 5.23-.22.15-.08 1 .12.87"/><path id="Fill-295" fill="#000" d="M412.37 357.6c.92-4.96 5.2-8.53 10.17-8.93.52-.04.46-1.87-.05-1.85-5.5.28-9.92 4.65-10.67 10.02-.06.43.36 1.77.54.77"/><path id="Fill-297" fill="#BCBEC0" d="M420.6 367.33s2.64-10.97 14.67-33.5c0 0 .2-1.64 3.48-1.95 3.3-.32 4.18.38 4.18.38s-3.98 9.45-4.8 11.44c-.8 1.98.1 2.42 0 3.5s-7.75 19.16-7.75 19.16l-9.8.97z"/><path id="Fill-299" fill="#000" d="M438.1 329.07c-7.92 11.15-13.78 24.05-17.95 37.05-.05.15.08.83.2.5 4.86-13.04 10.96-25.16 17.83-37.23.04-.08 0-.44-.08-.33"/><path id="Fill-301" fill="#000" d="M436.8 332.76c1.98-.7 4.03-.84 6.1-.5.24.03.28-1.06-.04-1.12-2.12-.43-4.13-.16-6.13.65-.23.1-.1 1.02.08.96"/><path id="Fill-303" fill="#000" d="M445.46 326.2c-.96 12.66-2.8 25.18-3.95 37.8-.02.3.3 1.1.42.4 2.3-12.44 3.05-25.33 3.88-37.94.03-.4-.3-.9-.34-.25"/><path id="Fill-305" fill="#000" d="M444.4 328.5c4.04-.3 8.06-.6 12.08-.92.3-.02.25-1.17-.03-1.15l-12.06.93c-.32.03-.27 1.18 0 1.15"/><path id="Fill-307" fill="#000" d="M455.5 325.6c.23 12.5-1.45 25.08-2.62 37.5-.07.72.53 1.65.64.44 1.2-12.57 2.77-25.3 2.42-37.95-.02-.73-.46-.73-.45 0"/><path id="Fill-309" fill="#000" d="M441.26 349.44c3.92-4.23 8.57-6.7 13.2-9.95.26-.2.24-1.52-.1-1.42-5.26 1.47-9.88 6.15-13.3 10.2-.22.25.02 1.36.2 1.16"/><path id="Fill-311" fill="#000" d="M442.93 349.76c3.04-2.6 6.34-4.84 9.9-6.7.4-.2.2-1.87-.22-1.65-3.55 1.86-6.84 4.1-9.88 6.7-.38.33-.1 1.92.2 1.66"/><path id="Fill-313" fill="#000" d="M423.3 354.62c4-2.14 8.3-3.57 12.8-4.18.4-.06.3-1.45-.03-1.4-4.68.73-8.88 2.3-12.86 4.87-.16.12-.1.83.1.72"/><path id="Fill-315" fill="#000" d="M424.74 355.3c4.28-1.35 8.42-1.42 12.86-1.1.3.03.3-1.1-.03-1.18-4.36-.84-8.78-.02-12.88 1.57-.2.05-.1.76.04.7"/><path id="Fill-317" fill="#000" d="M442.8 340.93c-3.5 6.83-6.62 13.83-9.25 21.04-.14.4.2 2.04.5 1.2 2.68-7.2 5.63-14.25 9.02-21.15.14-.28-.08-1.47-.27-1.1"/><path id="Fill-319" fill="#BCBEC0" d="M391.96 382.6s4.66-3.65 7.65-4.22c3-.57 2.1 9.9 1.57 10.4-.52.53-1.26 4.23-.97 5.33.3 1.1 1.03 13.25 1.03 13.25l-9.7 1.52.43-26.26z"/><path id="Fill-321" fill="#000" d="M391.6 380.44c-.58 8.14-.72 16.26-.32 24.42.05.96.73.96.7-.02-.24-7.98-.16-15.96.36-23.93.05-.78-.66-1.73-.75-.46"/><path id="Fill-323" fill="#000" d="M446.1 376.73c-1 8.78-2.07 17.58-2.78 26.4-.06.73.56 1.58.7.43 1.08-8.8 1.8-17.67 2.6-26.5.06-.56-.42-1.23-.52-.33"/><path id="Fill-325" fill="#000" d="M389.3 384.7c4.08-3.88 8.88-5.56 14.35-6.46.3-.05.28-1.07-.02-1.07-5.5.1-10.7 3.1-14.4 7-.12.1-.04.65.07.54"/><path id="Fill-327" fill="#000" d="M403.3 378.95c-.5 9.5-1.7 19.67-.33 29.12.14 1 .7.24.6-.4-1.34-9.24-.26-19.16.2-28.42.03-.5-.42-1.1-.46-.3"/><path id="Fill-329" fill="#000" d="M390.6 399.8c4.37-4.15 8.76-8.25 12.94-12.57.3-.3.1-1.64-.2-1.38-4.42 4.2-8.62 8.6-12.87 12.96-.2.23-.05 1.18.14 1"/><path id="Fill-331" fill="#000" d="M393.64 402.73c1.72-4.12 4.75-7.24 8.6-9.42.22-.1.14-.9-.1-.78-4.04 2-7.05 5.53-8.73 9.7-.07.17.1.87.24.5"/><path id="Fill-333" fill="#BCBEC0" d="M405.3 378.36l4.72-2.8s6.24 7.73 7.3 12.3c1.04 4.56 7.98 14.6 7.98 14.6l-10 2.35-10-26.44z"/><path id="Fill-335" fill="#000" d="M403.3 381.9c3.44 7.82 6.76 15.82 10.75 23.38.32.6.47-.6.36-.88-3.2-7.9-7.08-15.56-10.82-23.2-.23-.48-.37.47-.27.7"/><path id="Fill-337" fill="#000" d="M404.53 379.15c2.52-1.33 4.85-3 7.37-4.33.17-.1.1-.72-.08-.63-2.52 1.3-4.86 2.96-7.38 4.28-.17.1-.1.77.1.67"/><path id="Fill-339" fill="#000" d="M414.1 374.3c3.87 9.58 7.37 19.44 11.87 28.76.26.54.45-.48.37-.7-3.47-9.8-7.88-19.32-11.93-28.9-.22-.54-.4.56-.3.83"/><path id="Fill-341" fill="#000" d="M414.9 386.45c-1 2.02-2 4.05-3 6.08-.1.2.05.96.25.57 1-1.97 2-3.94 3-5.92.13-.25-.02-1.2-.25-.73"/><path id="Fill-343" fill="#000" d="M416.67 389.07c-3.32 3.9-5.7 9.05-6.35 14.15-.03.2.23 1.07.4.53 1.72-4.98 3.4-9.43 6.14-13.98.1-.15.04-.97-.2-.7"/><path id="Fill-345" fill="#000" d="M428.04 376.4c-2.34 9.03-4.78 18.23-6.13 27.45-.05.44.37 1.42.6.55 2.48-8.88 4.13-18.07 6.23-27.05.13-.57-.4-2.12-.7-.94"/><path id="Fill-347" fill="#000" d="M429.26 375.7c3.5-.85 7.1-1.18 10.6-1.93.4-.1.37-1.37-.02-1.36-3.6.1-7.22 1.25-10.6 2.4-.26.1-.2.97.02.9"/><path id="Fill-349" fill="#000" d="M441.1 376.68c-2.94 8.44-4.58 17.27-7.5 25.7-.04.1.05.45.1.27 2.96-8.38 4.63-17.16 7.58-25.54.05-.14-.1-.72-.2-.42"/><path id="Fill-351" fill="#000" d="M427.1 396.5c1.2-.55 2.4-.7 3.73-.7.3 0 .3-.64.3-.8 0-1.56-.18-3.07-.53-4.6-.04.43-.07.86-.1 1.28 1.07-1.46 2.3-2.9 3.2-4.46.15-.27.04-1.9-.3-1.53-.6.6-1.04 1.25-1.53 1.92-.54.76-1.48 1.68-1.85 2.55-.13.3-.14.63-.1.97.1 1.3.54 2.53.56 3.87.1-.25.2-.5.3-.77-1.4-.3-2.64-.02-3.93.6-.45.2-.28 1.93.24 1.68"/><path id="Fill-353" fill="#000" d="M434.7 382.6c.27-.8.53-1.62.74-2.45.05-.18-.12-1-.3-.54-.3.72-.56 1.44-.8 2.17-.1.23-.13.63 0 .84.13.17.28.27.36 0"/><path id="Fill-355" fill="#000" d="M447.42 401.95c.07 0 .06-.23 0-.23s-.08.23 0 .23"/><path id="Fill-357" fill="#000" d="M452.7 371.15c.15 0 .15-.53 0-.53-.16 0-.15.53 0 .53"/><path id="Fill-359" fill="#000" d="M464.02 307.7c.12 0 .12-.44 0-.44s-.12.45 0 .45"/><path id="Fill-361" fill="#000" d="M463.82 307.35c-1.93 24.16-4.24 48.27-6.4 72.4-.05.53.4 1.12.5.3 2.66-24.06 4.57-48.27 6.27-72.43.02-.43-.32-1-.38-.27"/><path id="Fill-363" fill="#000" d="M360.2 301.86c-2.48 33.44.48 67.1-2.45 100.54-.05.52.4 1.1.5.3 3.43-33.36.08-67.13 2.32-100.57.03-.43-.32-1-.38-.27"/><path id="Fill-365" fill="#000" d="M457.23 386.83c.06 0 .06-.2 0-.2-.07 0-.06.2 0 .2"/><path id="Fill-367" fill="#000" d="M456.47 409.4s0-.04 0-.04 0 .04 0 .04"/><path id="Fill-369" fill="#000" d="M461.7 408.42c2.64 2.17 5.75 3.88 9.12 4.54.3.05.33-1 .04-1.1-3.32-1-6.33-2.35-9.05-4.55-.24-.2-.38.9-.1 1.12"/><path id="Fill-371" fill="#000" d="M455.7 415.92c1.5.8 3 1.6 4.5 2.42.38.2.53-1.15.12-1.35-1.5-.75-3-1.5-4.5-2.24-.36-.17-.44.98-.12 1.16"/><path id="Fill-373" fill="#000" d="M414.98 419.6c4.8 3.5 10.02 6.97 15.73 8.74.6.18.63-1.4.18-1.63-5.32-2.67-10.74-4.92-15.8-8.1-.3-.18-.35.8-.1 1"/><path id="Fill-375" fill="#000" d="M430.13 424.02c2.45 1.4 4.87 2.95 7.44 4.1.5.22.53-1.2.15-1.43-2.37-1.46-4.98-2.57-7.47-3.8-.36-.17-.42.94-.12 1.12"/><path id="Fill-377" fill="#000" d="M441.12 424.93c1.73 3.05 4.4 5.3 7.73 6.45.7.24.8-1.74.2-1.94-3.04-1.05-5.62-2.9-7.63-5.42-.3-.4-.42.7-.3.9"/><path id="Fill-379" fill="#E0E2DC" d="M431.76 289.52s5.92 5.5 8.1 6.57-25.15 4.5-26.2 4.8c-1.06.3-1.9 1.95.54 3.6 2.43 1.68 33.58-2.14 33.58-2.14s3.54.62 3.4 2.57c-.12 1.96-20.6 3.15-22 4.1-1.38.95 2.58 2.35 2.58 2.35s-20.28 3.33-37.4 4l-3.82-.22-26.4-13.17s-.26-2.5 9.1-3.95c9.35-1.46 58.52-8.53 58.52-8.53"/><path id="Fill-381" fill="#000" d="M363.1 301.78c9.1 5.44 18.4 10.45 28.27 14.4.38.17.46-1.2.1-1.34-9.72-4.1-19.1-8.68-28.32-13.82-.2-.1-.25.65-.06.76"/><path id="Fill-383" fill="#000" d="M434.77 289.4c9.12 5.45 18.42 10.46 28.3 14.42.37.15.44-1.2.1-1.35-9.73-4.1-19.1-8.7-28.34-13.82-.18-.1-.25.65-.06.76"/><path id="Fill-385" fill="#000" d="M360.25 302c0 14.76-.05 29.53.03 44.3 0 .3.2.28.2 0 .08-14.78.03-29.54.03-44.3 0-.4-.25-.4-.25 0"/><path id="Fill-387" fill="#000" d="M357.97 402.83c6.84 4.7 13.65 9.5 20.55 14.1.16.12.22-.5.06-.62-6.8-4.75-13.7-9.35-20.56-14.03-.13-.1-.2.46-.05.56"/><path id="Fill-389" fill="#000" d="M364.2 398.97c0-10.38.06-20.76 0-31.13 0-.66-.46-.65-.46 0-.06 10.38 0 20.76 0 31.14 0 .6.45.6.45 0"/><path id="Fill-391" fill="#000" d="M370.18 406.3c.42-12.52.1-24.98-1.18-37.42-.08-.8-.52-.2-.48.32 1.08 12.3 1.55 24.6 1.22 36.96 0 .45.42.72.44.13"/><path id="Fill-393" fill="#000" d="M376.3 408.54c-.78-13.17-1.57-26.34-2.4-39.5-.05-.85-.66-.86-.6 0 .77 13.18 1.58 26.34 2.4 39.5.05.83.66.84.6 0"/><path id="Fill-395" fill="#000" d="M368.84 299c21.8-3.88 43.92-5.58 65.7-9.6.2-.05.13-.75-.03-.73-21.8 3.9-43.9 5.92-65.66 9.96-.1.02-.08.4 0 .38"/><path id="Fill-397" fill="#000" d="M361.5 305.6v17.95c0 .24.16.23.16 0v-17.97c0-.24-.16-.24-.16 0"/><path id="Fill-399" fill="#000" d="M367.14 334.93c1.95 4.4 3.85 8.84 5.9 13.2.3.7.55-.66.4-1-1.9-4.45-3.92-8.83-5.9-13.22-.3-.7-.56.67-.4 1.03"/><path id="Fill-401" fill="#000" d="M367 348.2c1.85 3.58 4.4 7.12 6.9 10.28.32.4.43-.76.3-.97-1-1.72-2.1-3.38-3.22-5.04-1.18-1.76-2.26-3.7-3.66-5.3-.4-.42-.43.85-.32 1.05"/><path id="Fill-403" fill="#F1F2F2" d="M125.3 327.2s10-.62 11.62.8-17.95 1.5-17.95 1.5 6.5 1.95 12 1.96c5.52 0 9.43-2.8 9.43-2.8s-4.08-4.7-15.1-1.46"/><path id="Fill-405" fill="#E6E7E8" d="M134.8 332.73c.22 1.14.37 2.4 0 3.53-.3 1-1.76 1.7-1.86 2.6-.17 1.63 3.14 1.77 3.5 3.36.27 1.3 0 2.96 0 2.96s-7.96 1.52-10.87 1.32c-2.9-.2-4.48-1.17-5.18-4.28-.7-3.12-2.33-12.06-2.33-12.06l16.47 1.25.26 1.33"/><path id="Fill-407" fill="#000" d="M117.5 328.18c.8 5.84 1.8 11.86 3.87 17.4.15.4.28-.35.24-.5-1.36-5.75-2.82-11.4-3.62-17.26-.13-.9-.55-.2-.47.36"/><path id="Fill-409" fill="#000" d="M118.05 329.32c7.42 3.42 15.7 3.36 23-.4.26-.13.17-1-.04-1.15-5.73-4.36-15.62-2.4-21.83-.1-.23.1-.2.92.02.88 6.82-1.32 15.62-4.6 21.72.38 0-.38-.02-.77-.03-1.15-7.33 3.78-15.17 4.23-22.8 1.1-.14-.06-.16.4-.05.44"/><path id="Fill-411" fill="#000" d="M137.63 331.4c.34 4.94-.05 9.76-.4 14.67 0 .22.2.8.3.3 1.14-4.9.95-10.1.38-15.07-.03-.43-.3-.23-.27.1"/><path id="Fill-413" fill="#000" d="M120.6 345.57c5.9 2.3 12.72 2.48 18.38-.66.2-.1.13-.97-.07-.9-6.18 2.1-11.9 2.84-18.28.95-.13-.04-.17.56-.02.62"/><path id="Fill-415" fill="#000" d="M138.6 330.5c.04 5.12.18 10.2.1 15.33 0 .8.7 1.36.77.23.27-5.15.2-10.55-.63-15.65-.06-.36-.24-.18-.23.1"/><path id="Fill-417" fill="#000" d="M139.27 335.98c-.14-1.53 1.3-2.6 2.7-2.7 1.58-.1 2.6 1.17 2.85 2.63.6 3.48-2.9 4.72-5.6 5.23-.3.05-.27 1 0 1 3.78.04 7.37-3.58 5.72-7.4-1.34-3.07-6.13-2.04-5.8 1.34.04.22.14.04.13-.1"/><path id="Fill-419" fill="#000" d="M121.17 342.74c-.58-3-.67-6.02-1.12-9.03-.07-.48-.4-.5-.44.02-.24 3.23.42 6.6 1.13 9.72.2.87.5-.32.44-.7"/><path id="Fill-421" fill="#000" d="M120.73 334.98c.07 2 .03 4.08.46 6.04.12.6.53.25.56-.2.16-2-.14-4.08-.34-6.1-.1-.95-.7-.5-.7.26"/><path id="Fill-423" fill="#000" d="M125.37 323.57c-2.53-5.67 5-10.8 4.98-16.34 0-2.6-1-5.25-3.7-5.9-.33-.1-.34 1.22-.05 1.36 7.28 3.55-.92 11.18-2.17 15.58-.65 2.3-.5 4.32.5 6.46.35.78.6-.78.44-1.17"/><path id="Fill-425" fill="#000" d="M128.74 322.1c.2-1.47.98-2.78 1.94-3.87.24-.27.03-1.7-.28-1.42-1.43 1.27-2.13 2.96-2.38 4.82-.1.8.55 1.68.72.47"/><path id="Fill-427" fill="#000" d="M133.9 320.37c4.7-6.62 5.9-15.24 2.66-22.76-.24-.54-.37.6-.3.83 2.52 7.22 1.72 14.53-2.66 20.8-.2.3.02 1.54.3 1.14"/><path id="Fill-429" fill="#000" d="M117.7 342.76c1.05.78 2.1 1.56 3.14 2.34 1 .75 1.98 1.64 3.14 2.13.4.17.34-1.03.17-1.2-1.78-1.9-4.2-3.27-6.3-4.78-.34-.23-.5 1.23-.14 1.5"/><path id="Fill-431" fill="#000" d="M122.35 342.2c.6.74 1.22 1.47 1.84 2.2.17.2.25-.5.12-.64-.6-.74-1.22-1.5-1.83-2.23-.2-.22-.3.5-.15.68"/><path id="Fill-433" fill="#000" d="M127.9 343.25c.65.4 1.3.8 1.94 1.2.17.1.25-.6.06-.72-.64-.4-1.3-.8-1.93-1.2-.17-.1-.25.6-.06.72"/><path id="Fill-435" fill="#000" d="M130.1 341.45c.63 1.12 1.64 2 2.9 2.33.18.04.2-.7.02-.77-1.18-.5-2.13-1.23-2.76-2.37-.1-.2-.23.1-.26.18-.06.2 0 .48.1.65"/><path id="Fill-437" fill="#000" d="M126.3 340c.1 0 .1-.3 0-.3s-.07.3 0 .3"/><path id="Fill-439" fill="#000" d="M137.94 342.97c1.74-1.18 3.47-2.36 5.2-3.54.1-.07.04-.42-.05-.36-1.74 1.2-3.47 2.4-5.2 3.58-.08.06-.04.37.04.32"/><path id="Fill-441" fill="#000" d="M61.64 247.77c3.55 9.22 7 18.5 10.96 27.55.2.45.4-.37.32-.58-3.42-9.25-7.28-18.34-11.1-27.44-.12-.32-.24.3-.18.47"/><path id="Fill-443" fill="#000" d="M62.1 248.9c3.36-2.1 6.88-2.88 10.73-3.53.23-.04.2-.73 0-.74-3.9-.14-7.68 1.53-10.82 3.7-.12.1-.06.66.1.56"/><path id="Fill-445" fill="#000" d="M73.55 245.32c2.88 9.97 5.67 19.97 8.7 29.9.2.66.48-.22.4-.55-2.82-9.96-5.85-19.85-8.8-29.77-.15-.5-.37.17-.3.42"/><path id="Fill-447" fill="#000" d="M66.37 247.52c1.56-2.65 3.5-3.3 5.87-2 1.88 1.83 3.1 4 3.64 6.5.82 2.56 1.52 5.15 2.28 7.72 1.63 5.48 3.22 10.96 4.97 16.4.2.56.42-.18.34-.46-1.64-5.9-3.45-11.75-5.24-17.6-1.06-3.5-1.7-7.9-3.78-10.96-2.13-3.1-7.03-4.2-8.27.15-.05.16.1.55.2.25"/><path id="Fill-449" fill="#000" d="M85.05 270.04c11.13 8.5 12.9 24.42 4.3 35.4-.24.3-.03 1.64.35 1.18 9.42-11.04 7.02-28.7-4.6-37.17-.13-.1-.2.48-.05.6"/><path id="Fill-451" fill="#000" d="M68.63 279.55C61.7 290 67.58 304.88 80.76 305.6c.35.02.35-1.1-.03-1.14-11.65-1.65-18.84-13.37-11.9-24.24.1-.18-.03-.93-.2-.67"/><path id="Fill-453" fill="#000" d="M82.48 272.52c5.45 2.36 8.83 6.83 10.8 12.38 2.9 8.16 1.56 20.8-9.58 20.15-.33-.02-.33 1.03.02 1.07 8.9 1 12.48-7.92 11.6-15.4-.96-7.94-5.18-15.88-12.76-19.08-.28-.12-.33.77-.08.88"/><path id="Fill-455" fill="#000" d="M64.73 286.9c.07 13.07 12.44 23.22 25.15 17.8.26-.1.18-1.03-.08-.96-11.94 3.45-24.4-3.54-24.57-16.85-.02-.67-.5-.66-.5 0"/><path id="Fill-457" fill="#000" d="M83.68 272.7c8.38 5.78 12.03 16.02 9 25.8-.1.3.25 1.3.43.72 3.27-10.15-.43-21.25-9.35-27.2-.18-.1-.25.56-.07.7"/><path id="Fill-459" fill="#000" d="M89.6 306.35c2.78 2.75 3.75 6.47 2.4 10.2-.1.27.12 1.38.38.8 1.8-4 .72-9-2.66-11.8-.2-.16-.3.65-.13.8"/><path id="Fill-461" fill="#000" d="M89.93 314.26c3.76 4.46 8.97 11.26 3.25 16.48-.33.3-.2 1.82.23 1.5 7.2-5.24 1.17-14.5-3.18-19.2-.4-.43-.55.92-.3 1.22"/><path id="Fill-463" fill="#000" d="M94.17 321.75c1.44 7.28-4.76 13.4-11.77 13.52-.4 0-.38 1.2.03 1.23 7.72.54 13.6-7.74 12.04-14.94-.1-.46-.37-.12-.3.2"/><path id="Fill-465" fill="#000" d="M85.98 334.24c-6.8.8-11.62 7.02-11.17 13.76.07.9.8.92.73-.02-.38-6.22 4.4-11.75 10.47-12.67.36-.05.3-1.1-.02-1.06"/><path id="Fill-467" fill="#000" d="M77.44 336.66c-2.57 3.03-5.8 7.3-4.1 11.54 1.2 2.98 5.4 5.17 7.7 2.16.26-.33.07-1.76-.37-1.27-1.6 1.8-4.65.96-6.03-.78-2.74-3.48.92-7.93 3.1-10.64.22-.27.04-1.4-.3-1.02"/><path id="Fill-469" fill="#000" d="M73.2 342.24c.6 3.67 4.1 6.94 7.98 5.93.26-.06.27-.86-.02-.86-3.34.04-6.8-1.9-7.4-5.4-.13-.86-.65-.24-.55.34"/><path id="Fill-471" fill="#000" d="M80 348.1c.1 0 .08-.23 0-.23-.07 0-.06.23 0 .23"/><path id="Fill-473" fill="#000" d="M59.7 248.8c2.26 7.9 5.58 15.38 10.36 22.1.3.43.46-.85.27-1.15-4.3-6.77-7.84-13.8-10.27-21.46-.2-.62-.45.2-.36.5"/><path id="Fill-475" fill="#000" d="M59.62 248.96c3.1-1.18 8.7-3.87 12.14-3.35 3.23.5 3.92 7.3 4.86 9.86 2.24 6.06 4.97 12 8.4 17.48.3.5.54-.87.37-1.17-4.77-8.57-9.64-17.7-11.55-27.42-.02-.13-.1-.54-.32-.52-4.97.5-9.54 1.95-14.1 3.95-.3.14-.22 1.34.2 1.18"/><path id="Fill-477" fill="#000" d="M70.16 276.8c-3.3 5.26-4.54 11.28-3.38 17.4.1.48.37.12.32-.22-.83-5.78.23-11.3 3.33-16.27.16-.25-.05-1.26-.27-.9"/><path id="Fill-479" fill="#000" d="M81.2 271.76c6.4 3.58 10.93 9.5 12.75 16.6.1.45.32-.13.27-.36-1.7-7.4-6.3-13.5-12.92-17.2-.28-.15-.38.8-.1.96"/><path id="Fill-481" fill="#000" d="M90.66 281.24c4.7 6.1 4.5 13.77.4 20.07-.1.13-.02.7.13.5 4.86-6.12 4.3-15.05-.42-21.06-.14-.18-.22.37-.12.5"/><path id="Fill-483" fill="#000" d="M83.66 307.68c2.5-.98 4.58-2.62 6.03-4.9.08-.15 0-.8-.18-.57-1.56 2.07-3.6 3.67-6 4.6-.25.1-.17 1 .14.88"/><path id="Fill-485" fill="#000" d="M90.8 305.96c-.42 1.6-.9 3.2-1.23 4.8-.03.16.1.57.2.25.5-1.54.88-3.14 1.3-4.72.07-.22-.16-.73-.27-.32"/><path id="Fill-487" fill="#000" d="M82.24 308.3c-.63 3.1 4.1 5.5 5.8 2.57.07-.13-.03-.65-.14-.46-1.32 2.12-5.93.9-5.4-1.77.06-.22-.18-.74-.26-.33"/><path id="Fill-489" fill="#000" d="M86.13 308.43c-1.07 2.14 1.28 5.06 3.6 4.05.1-.05.07-.45-.07-.4-1.87.8-4.35-1.4-3.38-3.33.06-.12-.04-.54-.15-.32"/><path id="Fill-491" fill="#000" d="M406.98 472.45c11-3.32 21.24-7.96 31.05-13.93.22-.13.13-.97-.12-.83-9.8 5.5-20.2 9.86-30.96 13.15-.52.16-.34 1.7.04 1.6"/><path id="Fill-493" fill="#000" d="M441.32 460.1c8.38 4.32 17.17 6.12 26.6 5.53.23 0 .2-.75 0-.74-9.23.27-18.16-1.58-26.55-5.4-.18-.1-.22.5-.05.6"/><path id="Fill-495" fill="#D9ECFF" d="M449.8 463.18s-5.1-1.83-5.83-2.15c-.72-.33-4.77-.65-4.77 1.55s-6 3.85-9.17 4.57c-3.18.7-3.18 4.47-4.73 5.44-1.54.96-11.87 1.15-12.52 2.48-.65 1.32-1.44 8.42-4.72 8.43 0 0 12.3 5.53 26.05 4.1l25.5-22.5s-5.03-.2-9.8-1.92"/><path id="Fill-497" fill="#000" d="M404.5 482.3c11.02 5.17 22.67 6.84 34.7 4.92.2-.03.16-.6 0-.57-12 1.8-23.62.1-34.62-5.1-.23-.12-.3.64-.07.75"/><path id="Fill-499" fill="#000" d="M451.4 472.27c6.78-5.25 13.56-10.5 20.34-15.76.3-.22.12-1.4-.18-1.17l-20.4 15.33c-.43.32-.15 1.92.24 1.6"/><path id="Fill-501" fill="#000" d="M469.9 457.72c4.04 4.87 9.64 7.8 16 8 .3.02.3-1-.03-1.02-6.18-.57-11.74-3.3-15.72-8.1-.33-.37-.5.84-.26 1.12"/><path id="Fill-503" fill="#000" d="M448.64 484.82c5.54 6.8 12.44 12 20.5 15.48.27.12.32-.73.08-.83-8-3.4-14.9-8.54-20.44-15.26-.18-.2-.27.46-.14.62"/><path id="Fill-505" fill="#000" d="M468.1 496.06c11.9-4.6 21.77-12.52 28.64-23.26.1-.17 0-.84-.17-.6-7.1 10.42-16.84 18.3-28.62 22.84-.3.1-.2 1.17.16 1.02"/><path id="Fill-507" fill="#000" d="M424.93 479.54c5.5.74 11.08 1.77 16.64 2.05.33 0 .3-1-.03-1.08-5.46-1.1-11.1-1.53-16.64-2.2-.35-.05-.38 1.17.03 1.22"/><path id="Fill-509" fill="#000" d="M431.8 475.3c2.42 2.08 5.47 2.9 8.57 2.16.16-.04.13-.52 0-.5-3.05.6-6.13-.12-8.5-2.1-.1-.08-.16.34-.06.43"/><path id="Fill-511" fill="#000" d="M445.13 471.6c1.2.4 2.4.8 3.58 1.2.16.06.18-.4.05-.43-1.2-.4-2.4-.8-3.58-1.22-.15-.05-.17.4-.04.44"/><path id="Fill-513" fill="#000" d="M446.38 471.63c1.2-.02 2.4-.04 3.6-.06.15 0 .14-.54-.03-.54-1.2-.02-2.4-.04-3.6-.06-.2 0-.18.66.03.66"/><path id="Fill-515" fill="#000" d="M438 478.73c1.6 0 3.2-.03 4.78-.04.13 0 .12-.42 0-.42-1.6-.02-3.2-.03-4.8-.04-.15 0-.14.5 0 .5"/><path id="Fill-517" fill="#000" d="M441.6 475.24l4.78.04c.24 0 .23-.78-.02-.78-1.6 0-3.2.03-4.8.04-.2 0-.2.7.03.7"/><path id="Fill-519" fill="#000" d="M442.8 473.03c2 0 3.98-.07 5.97-.16.23-.02.22-.73-.02-.74-2-.1-4-.15-6-.17-.32 0-.3 1.07.04 1.07"/><path id="Fill-521" fill="#000" d="M435.57 485.98l24.1-21.4c.2-.17.04-.98-.14-.82l-24.1 21.4c-.2.18-.05 1 .14.82"/><path id="Fill-523" fill="#000" d="M445.4 479.94c5.78 9.14 15.28 14.76 26.13 15.08.52 0 .5-1.66-.04-1.7-10.52-.48-19.96-5.58-25.9-14.3-.22-.36-.37.67-.2.92"/><path id="Fill-525" fill="#000" d="M483.58 488.4c4.8-5.17 9.62-10.35 14.42-15.53.15-.16.03-.86-.18-.63-4.82 5.15-9.63 10.3-14.44 15.46-.17.18-.04.97.2.7"/><path id="Fill-527" fill="#000" d="M473.93 465.65c8.56 1.28 16.83 3.42 25.02 6.23.28.1.32-.75.08-.83-8.14-3-16.55-5.02-25.12-6.3-.24-.04-.27.85.03.9"/><path id="Fill-529" fill="#000" d="M406.7 439.03c-1.3-.04-2.28.65-3.22 1.5-.03.02 0 .14.02.1.92-.83 1.92-1.54 3.2-1.52.03 0 .03-.07 0-.07"/><path id="Fill-531" fill="#000" d="M410.3 439.14c.75-.54.82-1.6.6-2.42-.45-1.53-1.83-1.82-3.24-1.86-.26 0-.35.52-.36.68-.08 2.5-.16 5-.24 7.5.1-.2.2-.4.32-.6-.63 0-1.05-.3-1.26-.94-.1-.43-.33-.24-.32.1.03 1.1.47 2.05 1.52 2.46.3.12.4-.4.4-.6.12-2.47.23-4.96.34-7.45-.12.24-.24.47-.36.7.38.02 3.4.36 2.46 1.33-.2.2-.15 1.33.15 1.1"/><path id="Fill-533" fill="#000" d="M402.9 441c-1.82 2.13-1.55 5.14-.2 7.47 1.96 3.35 6.4 4.77 10.04 5.14.2.04.2-.65.02-.7-2.2-.8-4.53-1.23-6.6-2.35-1.08-.58-2.1-1.33-2.86-2.32-1.5-1.98-1.9-4.9-.34-7 .05-.05 0-.32-.07-.23"/><path id="Fill-535" fill="#000" d="M413.48 442.5c.02 0 .02-.08 0-.08s-.02.08 0 .08"/><path id="Fill-537" fill="#000" d="M417.34 438.36c-.5 1.4.64 2.3 2 2.5.65.1 1.3-.04 1.95.06 2.45.37.86 2.38-.12 3.36-1.5 1.5-3 2.9-4.47 4.43-.16.2-.04 1.04.13.87 1.63-1.5 3.22-3.03 4.76-4.62.74-.8 1.63-1.68 1.64-2.85 0-.72-.3-1.35-.93-1.7-.9-.53-5.42.3-4.82-1.8.02-.08-.07-.44-.14-.24"/><path id="Fill-539" fill="#000" d="M409.36 454.93c3.22-1.5 6.55-3.86 8.42-6.96.13-.2.08-1.3-.25-.95-2.57 2.78-4.86 5.2-8.3 6.88-.3.14-.2 1.18.13 1.03"/><path id="Fill-541" fill="#000" d="M411.64 441.98c-.97 1.48-1.27 3.24-.83 4.95.15.55.4-.1.37-.38-.2-1.3.02-2.53.72-3.65.13-.24-.04-1.26-.26-.92"/><path id="Fill-543" fill="#000" d="M410.74 436.53c-.02 1.98.76 4.56 2.65 5.52.2.12.18-.58.1-.68-1.32-1.43-2.35-2.8-2.33-4.85 0-.6-.42-.6-.43 0"/><path id="Fill-545" fill="#000" d="M414.3 439.33c.42-.33.97-.96 1.45-1.15.56-.22 1.1.34 1.5.68.94.82 1.64 1.84 2.12 2.98.14.33.26-.33.2-.5-.74-1.72-1.94-3.1-3.55-4.06-.03 0-.05 0-.08 0-.57.46-1.15.92-1.73 1.38-.15.13-.04.78.1.67"/><path id="Fill-547" fill="#000" d="M403.13 442.35c-2.4.96-2.6 4.06-1.72 6.17 1.52 3.65 6.13 4 9.53 3.68.3-.03.27-.96-.03-1-2.5-.2-5.2-.13-7.4-1.52-2.24-1.4-3.08-5.12-.23-6.35.27-.1.18-1.1-.14-.98"/><path id="Fill-549" fill="#000" d="M408.72 448.64c2.6-1.36 5.3-2.53 7.88-3.94.2-.1.14-.9-.12-.8-2.68 1.08-5.27 2.42-7.93 3.55-.34.15-.18 1.37.17 1.2"/><path id="Fill-551" fill="#000" d="M408.37 444.3c.28.27.56.55.85.82.08.1.1-.2.05-.25-.28-.28-.56-.57-.84-.86-.1-.08-.13.23-.06.3"/><path id="Fill-553" fill="#000" d="M455.7 477.3c4.47 1.32 8.96 2.8 13.5 3.86.25.06.28-.88.02-.97-4.37-1.58-8.94-2.77-13.4-4.06-.4-.12-.44 1.05-.1 1.15"/><path id="Fill-555" fill="#000" d="M464.13 474.37c3.3 1.77 6.6 3.6 9.95 5.3.23.1.28-.65.07-.77-3.27-1.84-6.63-3.53-9.95-5.28-.22-.12-.28.64-.07.75"/><path id="Fill-557" fill="#000" d="M467.92 472.66c2.6 1.54 5.36 2.4 8.38 2.55.15 0 .15-.48 0-.5-2.95-.2-5.76-1-8.34-2.44-.1-.06-.15.34-.04.4"/><g id="Group-561" transform="translate(-60 -2608) translate(60 2608)"><mask id="mask-2"><use xlink:href="#path-1"/></mask><path id="Fill-559" fill="#000" d="M311.26 1.85c5.98.34 11.98.27 17.96.1.27 0 .26-1.1-.02-1.1-6-.17-11.98-.25-17.96.1-.22 0-.2.9.02.9" mask="url(#mask-2)"/></g><path id="Fill-562" fill="#000" d="M526.76 31.85c-13.27 15.1-25.4 38.66-9.56 56.54.3.34.44-.83.22-1.08-15.18-17.63-3.23-39.92 9.43-54.84.12-.14 0-.73-.1-.63"/><path id="Fill-564" fill="#000" d="M505.88 71c1.58 15.4 12.8 28.15 28.1 31.1.2.02.23-.74 0-.8-14.7-3.23-26.13-15.48-27.73-30.56-.08-.67-.42-.15-.37.27"/><path id="Fill-566" fill="#000" d="M554.18 102.13c11.62-2.6 20.12-12.2 21.4-24.02.06-.5-.36-1.1-.47-.3-1.52 11.3-9.93 20.63-20.94 23.43-.27.07-.2.95.02.9"/><path id="Fill-568" fill="#000" d="M510.65 45.97c9.82-8.34 21.7-12.66 34.55-12.9.38 0 .36-1.46-.03-1.46-13 .05-24.86 4.65-34.68 13.15-.3.24-.08 1.4.15 1.22"/><path id="Fill-570" fill="#000" d="M537.1 31.9c31.24-.16 51.12 31.92 36.65 60-.1.23.04 1.16.2.86 15.7-27.92-4.84-62.53-36.88-62.22-.35 0-.33 1.35.03 1.35"/><path id="Fill-572" fill="#F3F4EF" d="M515.62 41.4s4.23-2.48 4.8-2.55c.54-.07-8.28 14.4-9.26 19.86-.97 5.5 3.6 26.9 14.13 31.67 10.5 4.76 19.7 4.07 26.03 2.7 6.33-1.35 1.95 3.87 2.84 4.77.88.9 3.84 1.78 3.17 2.95-.68 1.15-13.56 8.33-35.4-3.48-21.83-11.82-18.83-32.6-17.37-38.57s3.04-12.87 11.05-17.36"/><path id="Fill-574" fill="#000" d="M505.9 72.17c2.25 14.28 11.87 27.18 26.03 31.47 14.96 4.53 32.18-1.67 41.12-14.37.2-.28.05-1.66-.32-1.23-8.93 10.48-22.07 16.4-35.93 14.08-15.26-2.56-27.66-15.2-30.43-30.3-.16-.85-.55-.2-.47.35"/><path id="Fill-576" fill="#000" d="M515.54 83.65c7.08 7.27 16.42 11.34 26.6 10.82.33-.02.3-1.1 0-1.1-10.04 0-19.35-3.45-26.48-10.55-.14-.14-.28.66-.12.83"/><path id="Fill-578" fill="#000" d="M528.76 63.55c4.36 3.45 8.8 6.82 13.4 9.94.32.2.44-1.1.12-1.36-4.35-3.34-8.87-6.5-13.45-9.5-.22-.15-.28.75-.07.9"/><path id="Fill-580" fill="#000" d="M542.3 73.3c5.3-5.16 11.85-8.8 17.1-14.04.22-.22.04-1.2-.14-1.02-5.3 5.15-11.83 8.88-17.1 14.08-.22.22-.04 1.16.13 1"/><path id="Fill-582" fill="#000" d="M542.1 72.8c3.38 4.1 6.77 8.17 10.27 12.17.24.27.34-.64.18-.84-3.4-3.97-6.87-7.87-10.37-11.74-.12-.14-.16.3-.08.4"/><path id="Fill-584" fill="#000" d="M539.94 41.57c-.02 2.03-.03 4.05 0 6.07 0 .58.37.57.38 0 .03-2.03.02-4.05 0-6.08 0-.58-.37-.57-.38 0"/><path id="Fill-586" fill="#000" d="M568.43 70.03c1-.35 2.02-.7 3.03-1.07.1-.03.06-.35 0-.33-1.02.33-2.03.66-3.04 1-.13.04-.07.43 0 .4"/><path id="Fill-588" fill="#000" d="M524.96 72.23c-1.05.34-2.3.55-3.07 1.38-.12.13-.2.7 0 .76 1 .32 2.16-.33 3.1-.65.44-.15.27-1.57-.04-1.47"/><path id="Fill-590" fill="#000" d="M543.15 93.43c.6 2.07 1.08 4.2 1.87 6.2.24.58.4-.52.36-.7-.44-2.1-1.15-4.15-1.77-6.2-.25-.84-.57.3-.45.7"/><path id="Fill-592" fill="#000" d="M517.8 55.6c1.68.66 3.36 1.33 5.07 1.9.48.18.52-1.36.13-1.54-1.66-.76-3.35-1.44-5.05-2.12-.5-.2-.6 1.56-.15 1.75"/><path id="Fill-594" fill="#000" d="M559.35 46.97c.2 0 .2-.7 0-.7s-.2.7 0 .7"/><path id="Fill-596" fill="#000" d="M529.58 87.53c-.38 1.07-.73 2.12-1 3.2-.08.27.17 1.4.42.77.4-.98.7-1.98 1-3 .1-.28.15-.7 0-.98-.14-.2-.32-.28-.42 0"/><path id="Fill-598" fill="#000" d="M562.3 84.44c.35.35.7.7 1.05 1.05.14.13.27-.7.08-.88-.33-.32-.65-.65-.97-.97-.25-.25-.34.6-.17.8"/><path id="Fill-600" fill="#000" d="M560.13 45.74c-.7 1.1-1.36 2.2-1.94 3.35-.14.24-.16.55-.1.82.02.08.15.55.32.37.8-.88 1.47-1.82 2.16-2.8.25-.35.2-1 .1-1.4-.06-.23-.3-.75-.55-.36"/><path id="Fill-602" fill="#000" d="M348.32 398.64l3.5-1.75c.1-.06 0-.4 0-.38-1.18.58-2.35 1.17-3.5 1.75-.1.05-.03.38 0 .37"/><path id="Fill-604" fill="#000" d="M460.2 382.5c8.2-1 16.38-2.1 24.53-3.42.12-.02.1-.54 0-.53-8.22.83-16.38 1.9-24.55 3.05-.2.03-.14.92.03.9"/><path id="Fill-606" fill="#000" d="M530.28 386.34c5.16-1.78 10.38-2.2 15.8-1.5.05.02.07-.34-.02-.36-5.4-.9-10.65-.3-15.78 1.57-.08.03-.03.3 0 .3"/><path id="Fill-608" fill="#000" d="M145.43 454.52c14.58-1 29.17-2.02 43.74-3.25.15 0 .1-.75-.02-.74-14.6 1.17-29.16 2.55-43.73 3.95 0 0 0 .04 0 .04"/><path id="Fill-610" fill="#000" d="M233.14 444.23c33.84-2.02 66.87-6.66 100.12-13.16.1-.02.05-.5-.02-.5-32.95 6.68-66.6 10.42-100.12 12.88-.16 0-.13.8.02.78"/><path id="Fill-612" fill="#000" d="M468.98 405.48c22.6-5.04 45.32-7.85 68.27-10.6.07 0 .05-.37 0-.37-23 .85-45.96 5.1-68.28 10.5-.1.02-.05.5 0 .48"/><path id="Fill-614" fill="#000" d="M579.42 402.3c1.16-.57 2.32-1.16 3.48-1.74.03-.02 0-.13 0-.13-1.16.6-2.32 1.2-3.5 1.8 0 0 0 .08.02.08"/><path id="Fill-616" fill="#000" d="M0 480.7c23.7 29.44 56.14 55.16 90.07 71.7 33.98 16.56 74.03 24.18 110.84 12.8.2-.04.1-.8 0-.77-38.25 10.38-77.87 4.05-112.93-13.7-34.26-17.35-60.82-43.6-87.96-70.1 0 0 0 .06 0 .08"/><path id="Fill-618" fill="#000" d="M238.17 566.9c12.1-.58 23.05 2.1 33.06 9.15.12.1.3-.98.05-1.15-9.6-7.08-21.26-10.48-33.13-8.72-.15.02-.1.74.02.73"/><path id="Fill-620" fill="#000" d="M332.2 579.05c49.7 14.77 101.53 3.42 152.28 7.3 48.64 3.73 94.98 21.32 135.08 48.84.07.04.2-.72.03-.84-38.52-28.36-85.13-45.27-132.76-49.2-51.52-4.23-104.13 8.03-154.67-6.68-.05-.02-.12.53.02.57"/><path id="Fill-622" fill="#000" d="M600.38 410.5c23.43 5.74 46.52 12.5 69.7 19.1.12.04.25-1.05-.02-1.14-22.9-7.44-46.32-13.44-69.7-19.1-.13-.03-.25 1.08.02 1.15"/><path id="Fill-624" fill="#000" d="M719.3 440.96c16.9 3.65 33.76 7.3 50.64 10.94.1.02.18-.82-.02-.86-16.88-3.7-33.75-7.37-50.63-11.06-.1-.02-.2.94 0 .98"/><path id="Fill-626" fill="#000" d="M824.4 460.47c22.95 9.38 46.58 17.3 69.06 27.84 23.08 10.83 43 24.98 60.15 43.83.04.03.22-.75.05-.95C920 492.8 871.1 476.4 824.37 459.8c-.03 0-.13.6.02.67"/><path id="Fill-628" fill="#000" d="M636.37 615.43c50.28 20.05 106.76 18.88 159.9 15.6.26 0 .2-1.47-.03-1.47-54.03 1.6-108.34 4.64-159.9-14.9-.03-.03-.16.7.03.77"/><g id="Group-632" transform="translate(-60 -2608) translate(60 2608)"><mask id="mask-4"><use xlink:href="#path-3"/></mask><path id="Fill-630" fill="#000" d="M922.16 594.92c12.97 6.08 27.77 1.52 37.9-7.9 11.12-10.36 16.63-25.6 21.44-39.63.12-.35-.12-1.86-.24-1.53-5.13 14.03-10.17 29.04-21.35 39.56-10 9.43-24.8 14.2-37.76 8.34-.04-.02-.25 1.02.02 1.15" mask="url(#mask-4)"/></g><path id="Fill-633" fill="#000" d="M933.8 621.03c2 0 3.9.18 5.53 1.6 1.67 1.44 2.7 7.5 1.96 9.44-1.13 2.92-5.38 4.77-8.23 5.26-7.1 1.23-13.4-3.6-18.98-7.25-.12-.07-.27 1.02-.05 1.2 7.28 5.7 22.9 13.3 28.04.64 2.4-5.9-1.98-11.8-8.3-11.6-.13 0-.1.7 0 .7"/><path id="Fill-635" fill="#000" d="M16.06 75.3c1.74 24.3.74 48.7.47 73.04 0 .5.4.85.42.15.76-24.53 1.52-49.18-.32-73.67-.1-1.2-.62-.22-.57.48"/><path id="Fill-637" fill="#000" d="M29 31.65c.8 33.07-1.37 66.07-2.74 99.1-.03.54.43 1.27.47.34 1.54-33.14 3.5-66.27 2.58-99.45 0-.55-.32-.55-.3 0"/><path id="Fill-639" fill="#000" d="M80.6 151.9c.6 9.95 1.18 19.92 2 29.86.06.6.37.3.34-.15-.56-9.92-1.38-19.86-2.18-29.77-.03-.28-.17-.14-.15.07"/><path id="Fill-641" fill="#000" d="M47.53 187.92c13.94-1.06 28.07-2.22 41.9-4.33.2-.04.17-.88-.02-.87-13.96.75-28.03 2.5-41.9 4.3-.2.02-.17.9.03.9"/><path id="Fill-643" fill="#000" d="M96.44 183.44c.03 0 .03-.1 0-.1-.02 0-.02.1 0 .1"/><path id="Fill-645" fill="#000" d="M183.95 134.67c5.27-3.38 9.94-7.48 14-12.24.1-.12 0-.6-.06-.56-4.07 4.77-8.75 8.86-14 12.25-.14.08-.05.62.05.55"/><path id="Fill-647" fill="#000" d="M180.5 146.75c-2.68 1.92-5.53 3.5-8.34 5.22-.26.17-.1 1.33.14 1.18 12.83-7.88 25.6-16.46 37.12-26.17.24-.2.07-1.33-.13-1.18-7.12 5.23-14.05 10.7-21.3 15.72-3.48 2.4-6.98 4.75-10.5 7.04-1.5.97-2.85 1.3-3.15 3 .25-1.42 5.15-4.02 6.16-4.7.04-.02.02-.12 0-.1"/><path id="Fill-649" fill="#000" d="M199.9 148.4c0-2.06 1.45-3.86 3.3-4.6.33-.13.12-1.22-.02-1.16-2.35 1-3.64 3.26-3.63 5.76 0 .6.33.6.34 0"/><path id="Fill-651" fill="#000" d="M470.86 208.3c31.26.55 62.55.2 93.82-.05.16 0 .15-.74-.02-.74-31.27-.23-62.56-.6-93.82-.03-.18 0-.17.82.02.82"/><path id="Fill-653" fill="#000" d="M516.3 214.86c-1.26 8.2-.16 16.17 3.3 23.73.16.35.36-1.03.2-1.37-3.18-6.93-4.26-14.28-3.2-21.84.04-.28-.18-1.2-.3-.54"/><path id="Fill-655" fill="#000" d="M119.24 378.33c.83-3.95.2-8.5.14-1.4-.07 9.28-.14 18.57-.12 27.86.05 18.58.4 37.16.98 55.73.04 1.24.98 1.23.94-.02-.53-16.7-.87-33.43-1.03-50.15-.07-7.9-.1-15.8-.1-23.7.03-4.78 1.02-10.74-.07-15.45-.12-.52-.5-.53-.6 0-.36 2.32-.24 4.73-.26 7.05 0 .1.1.25.12.08"/><path id="Fill-657" fill="#000" d="M28.88 340.28c-.67 19.45.3 39 .24 58.48-.06 20.32-.94 40.7-.47 61 .02.83.76 1.37.85.24 1.54-19.86 1.25-39.98 1.22-59.9-.03-19.86.45-40.03-1.2-59.84-.07-.74-.6-.72-.64.02"/><path id="Fill-659" fill="#000" d="M30.92 353.7c30.17-1.72 61.65-3.83 91.27-10.02.13-.03.1-.55-.02-.54-15.2 1.34-30.34 3.96-45.54 5.53-15.23 1.57-30.5 2.58-45.76 3.58-.4.03-.34 1.46.04 1.44"/><path id="Fill-661" fill="#000" d="M383.92 309.17c11.42.6 23.07-1.56 34.42-2.7 11.44-1.17 22.9-2.2 34.3-3.67.23-.03.2-.9-.02-.88-11.46.96-22.88 2.35-34.3 3.62-11.33 1.26-23.02 3.37-34.42 2.8-.2 0-.2.82.02.83"/><path id="Fill-663" fill="#000" d="M390.02 409.6c13.45-1.85 26.86-4 40.02-7.34.33-.1.26-1.12-.02-1.07-13.34 2.53-26.6 5.3-40.02 7.37-.33.05-.27 1.07.02 1.03"/><path id="Fill-665" fill="#000" d="M515.85 38.15c-17.15 15.8-16.8 43.3 1.7 58 .28.2.4-1.03.12-1.28-17.16-14.9-18.32-39.98-1.7-55.82.2-.18.04-1.05-.12-.9"/><path id="Fill-667" fill="#E1F9FF" d="M314.55 104.94h47.74l-4.43 82.56s-5.26-1.75-4.7-16.56c.56-14.8.16-36.7 0-42.66-.16-5.98-8.2-.8-13.6 0-5.43.8-4-5.98 6.68-9.9 10.68-3.9-1.78-6.37-15.32-6.56-13.53-.2-16.38-6.88-16.38-6.88"/><path id="Fill-669" fill="#E1F9FF" d="M371.53 104.94h51.08l-11.7 86.1s-4.04-5.3-3.48-20.1c.55-14.8 2.88-36.7 2.73-42.66-.16-5.98-8.2-.8-13.6 0-5.43.8-4-5.98 6.67-9.9 10.7-3.9-1.78-6.37-15.3-6.56-13.54-.2-16.4-6.88-16.4-6.88"/><path id="Fill-671" fill="#000" d="M362.04 111.63c-2.1 27.1-3.5 54.53-4.26 81.7 0 .2.16.32.18.06 2.2-27 3.74-54.32 4.6-81.4 0-.57-.44-1.35-.52-.37"/><path id="Fill-673" fill="#000" d="M419.44 115.8c-3.95 24.86-7.5 49.98-8.7 75.14 0 .3.23.67.3.18 3.08-24.8 5.42-49.67 8.98-74.42.08-.5-.4-2.04-.58-.9"/><path id="Fill-675" fill="#C5ECF9" d="M86.03 286.34c-.4-.9-1-1.75-1.52-2.42-1.27-1.62-3.05-2.9-5.17-3-.42-.02-.84 0-1.26.07-5.32.85-5.8 5.95-5.98 8.68-.18 2.73 3.85 11.03 10.2 9.96 4.34-.82-1.6-3.17-2.3-5.55-.72-2.4 2.82 1.3 5.08 2.1 2.27.84-2.7-4.26-3.83-7.3-.53-1.4.58-.88 1.36-.44.73.4 2.9 2.15 3.65 1.2.14-.2.2-.42.25-.64.16-.87-.07-1.8-.47-2.68"/><path id="Fill-677" fill="#000" d="M74.75 281.5c-5.38 5.53-3.1 16.08 4.15 18.84.48.18.55-1.2.14-1.4-6.54-2.85-8.7-11.35-4.13-16.93.1-.12.04-.7-.15-.5"/><path id="Fill-679" fill="#000" d="M72.72 279.94c3.63-3.5 10.67-1.57 11.72 3.5.1.4.32.12.28-.16-.94-5.43-8.16-7.9-12.15-4-.15.13 0 .8.15.66"/><path id="Fill-681" fill="#000" d="M73.36 284.38c1.1-2.05 3.27-3 5.54-2.93 2.3.1 3.73 1.06 5.34 2.57.35.33.32-.63.26-.78-2.04-4.88-9.4-3.34-11.32.77-.07.14.04.64.18.38"/><path id="Fill-683" fill="#000" d="M73.9 283.33v4.8c0 .3.25.3.25 0v-4.8c0-.32-.25-.32-.25 0"/><path id="Fill-685" fill="#000" d="M58.15 316.15c-.13 3.07-.1 6.13-.1 9.2 0 1.2.9 1.18.9-.02 0-3 .04-6-.1-8.98-.02-.68-.66-1.15-.7-.2"/><path id="Fill-687" fill="#000" d="M59.95 320c-.54 1.5-1.07 3-1.6 4.5-.04.1.05.4.1.24l1.6-4.5c.04-.08-.05-.4-.1-.23"/><path id="Fill-689" fill="#E5E1DF" d="M61.15 78.5c2.85-1.07 4.5 2.14 5.55 8.55 1.06 6.4 3.4 17.64 17.02 17.37 13.6-.28 19.3 5.5 19.3 5.5H67.25c-3-.02-12.05-2.3-13.58 1.27-.4.93-.34 2-.26 3.02l.7 9.2c.3 3.8.1 6.76-1.85 10.05-1.83 3.1-3.93 5.08-3.94 8.95 0 .55-.08 7.7.3 7.7-2.16 0-4.32 0-6.48.02-.55 0-1.1-18.07-1.15-19.33-.35-7.47-4.2-13.28-4.2-20.9h11.8c2.23-1.6 7.5-3.45 8.77-5.64 1.2-2.07.26-7.8.32-10.23 0-3.77-1.3-13.72 3.5-15.53"/><path id="Fill-691" fill="#000" d="M24.72 110.38c27.92 1.06 56.06.8 84 .4.4-.02.37-1.73-.05-1.74-27.93-.4-56.06-.67-83.97.4-.23 0-.22.93.02.94"/><path id="Fill-693" fill="#000" d="M60.84 76.96c1.16 11.63 2.15 23.3 3.6 34.9.12.87.46.15.43-.35-.9-11.7-2.23-23.4-3.4-35.07-.14-1.32-.7-.25-.62.53"/><path id="Fill-695" fill="#000" d="M44.35 111.7c.44 12.8.8 25.63 1.4 38.44.04.62.36.62.35 0-.3-12.83-.9-25.64-1.37-38.45-.03-.72-.4-.72-.38 0"/><path id="Fill-697" fill="#000" d="M24.77 153.16c28.56-2.18 57.2-4.27 85.7-7.4.4-.04.3-1.78-.05-1.76-28.6 1.82-57.18 4.7-85.7 7.47-.38.04-.3 1.72.05 1.7"/><path id="Fill-699" fill="#E5E1DF" d="M489.87 172.64s1.55 2.46 3.7 5.56 3.08 20.2 4.74 21.38.72-14.95 2.62-17.1 2.37-5.45 7.36-6.16c5-.72 27.57-.48 29.1-.48s3.23 20.68 7.24 22.7c0 0 .74-1.84 0-8.95-.73-7.1 1.17-12.8 2.83-14 1.67-1.18 8.92-6.03 8.92-6.03s-37.66 5.1-66.5 3.07"/><path id="Fill-701" fill="#000" d="M489.05 170.98c-.08-.16-.15-.32-.23-.48 0-.02-.03-.04-.05-.04-.96.13-.67-.08-1.1.76-.1.17-.1.56.05.7 3.04 3.25 11.38 1.92 15.5 2 6.24.14 12.47-.02 18.7-.33 13.33-.7 26.64-2.38 39.8-4.58.13-.03.1-.6-.02-.58-12.34 1.94-24.67 3.1-37.15 3.6-6.23.26-12.46.3-18.7.28-2.43 0-15.95 1.18-16.9-.74.08.17.16-.46.1-.6"/><path id="Fill-703" fill="#000" d="M497.54 178.2c.42 8.17.75 16.34 1.35 24.5 0 .3.16.15.15-.08-.27-8.14-.82-16.3-1.28-24.42-.02-.43-.25-.43-.23 0"/><path id="Fill-705" fill="#000" d="M525.46 153.38c-.77 4.56-.73 9.07.02 13.63.16 1 .46-.4.4-.78-.68-4.1-.7-8.2-.13-12.3.04-.28-.18-1.22-.3-.54"/><path id="Fill-707" fill="#000" d="M542.3 177.93c-1.26 8.2-.16 16.18 3.3 23.73.16.36.36-1 .2-1.35-3.18-6.92-4.26-14.28-3.2-21.83.04-.27-.2-1.2-.3-.54"/><path id="Fill-709" fill="#000" d="M117.53 440.32c80.43-10.64 160.07-26.5 240.48-37.36.2-.02.14-.84-.02-.82-80.6 8.83-159.9 27.23-240.5 36.3-.45.04-.32 1.93.05 1.88"/><path id="Fill-711" fill="#C5E3FC" d="M202.4 484.04c-.23.4-.4.8-.54 1.2-.44 1.35-.3 2.8-.06 4.2 2.55 15.24 11.77 15 24.15 19.65 7.83 2.93 16.94.08 24.96-.64 11.93-1.07 23.9-.5 35.8-1.55 1.4-.12 2.97-.35 3.87-1.44.6-.74.8-1.74.82-2.7.24-6.44-5.3-9.53-9.2-13.7-4.24-4.52-8.2-8.9-14.6-10.05-5.1-.9-9.32-.93-13.95-3.44-5.02-2.72-9.22-5.8-15.2-3.78-2.14.72-4.13 1.92-6.36 2.25-5.2.76-9.02-4.08-14.1-1.88-4.22 1.83-12.97 7.1-15.6 11.9"/><path id="Fill-713" fill="#000" d="M217.46 493.44c8.7 5.53 17.52 10.84 26.65 15.6.62.3.8-1.8.2-2.12-9-4.9-17.94-9.87-26.68-15.23-.44-.28-.62 1.45-.16 1.74"/><path id="Fill-715" fill="#000" d="M245.53 503.7c1.48 1 2.96 2 4.5 2.92.33.2.38-1 .1-1.22-1.45-1.14-2.95-2.2-4.45-3.28-.36-.26-.58 1.3-.15 1.58"/><path id="Fill-717" fill="#000" d="M245.77 474.42c7.13 5.57 14.12 11.38 21.55 16.54.36.25.47-1.2.13-1.48-6.94-5.65-14.36-10.74-21.6-16-.2-.16-.3.76-.08.94"/><path id="Fill-719" fill="#000" d="M250.35 492.5c3.74 2.65 7.3 5.55 10.78 8.5.34.3.54-1.33.15-1.68-3.35-3.03-6.97-5.62-10.83-7.97-.3-.2-.38.96-.1 1.16"/><path id="Fill-721" fill="#000" d="M588.42 331c2.53.06 5.02.1 7.55-.04.33 0 .3-1.17-.03-1.2-2.53-.1-5.02-.08-7.55-.03-.36 0-.34 1.27.02 1.28"/><path id="Fill-723" fill="#ECEFE4" d="M394.36 315.37l62.1-6.46-.7 14.4s-3.23-3.7-3.04-7.1c.18-3.37-3.25 5.97-9.05 4.12-2.32-.74.76-4.9 1.35-5.75.58-.85-35.85 3.53-50.66.8"/><path id="Fill-725" fill="#ECEFE4" d="M392.2 370.92l62.1-6.46-3.1 15.46s-.83-4.77-.64-8.16c.2-3.38-3.24 5.96-9.05 4.1-2.3-.73.77-4.9 1.36-5.75.6-.83-35.85 3.55-50.66.82"/><path id="Fill-727" fill="#000" d="M391.44 315.95c20.65-.87 41.36-3.4 61.77-6.55.22-.03.17-.77 0-.74-20.46 2.92-41.13 5.56-61.78 6.43-.24 0-.2.86.02.85"/><path id="Fill-729" fill="#000" d="M398.36 312.22c17.7.84 35.32-.15 52.84-2.86.18-.03.14-.68 0-.66-17.52 2.7-35.15 3.67-52.85 2.98-.13 0-.14.54 0 .54"/><path id="Fill-731" fill="#000" d="M425.58 329.07c-2.02 12.32-3.77 24.7-4.83 37.13-.05.52.4 1.15.48.3 1.4-12.35 2.8-24.7 4.64-37 .04-.24-.2-.98-.3-.43"/><path id="Fill-733" fill="#000" d="M391.52 370.72c21.02-2.2 42.6-2.64 63.46-6 .32-.04.3-1.17-.03-1.17-21 .2-42.63 4-63.44 6.76-.1.02-.1.43.02.42"/><path id="Fill-735" fill="#000" d="M445.73 374.66c.2 10.22-1.27 19.85-3.22 29.84-.07.38.26 1.44.5.63 2.87-9.8 3.5-20.32 3.16-30.48-.02-.63-.44-.62-.43 0"/><path id="Fill-737" fill="#000" d="M451.18 370.83c-.4 7.84-1.45 15.6-2.97 23.3-.04.24.18.85.3.38 1.73-7.78 2.63-15.57 2.87-23.55 0-.2-.17-.46-.2-.12"/><path id="Fill-739" fill="#000" d="M451.65 370.84c-.8 11.3-2.23 22.52-3.2 33.8-.05.43.45 1.52.6.57 2-11.23 2.55-22.92 2.72-34.33 0-.12-.1-.2-.12-.03"/><path id="Fill-1065" fill="#000" d="M818.7 628.4c18.36 11.03 38.7 20.64 60.47 21.44 6.67.24 18.07 1.07 21.95-5.98 2.3-4.2 0-8.05-2.5-11.56-.17-.23-.28.43-.16.6 2.23 3.1 3.67 8.12 1.5 11.8-1.4 2.3-5.28 3.28-7.7 3.8-3.05.68-6.32.7-9.4.74-7.83.08-15.57-1.05-23.14-2.95-14.6-3.66-28.12-10.3-41-17.97-.02 0-.03.06 0 .08"/><path id="Fill-741" fill="#000" d="M558.8 327.72c2.02-1.04 4.8-.5 6.84.06.38.1 1.2-.45.6-.62-2.37-.64-5.53-1.15-7.85.06-.63.32-.07.75.4.5"/><g id="meditation" class="floating"><path id="Fill-743" fill="#A97C50" d="M198.16 196.78l-4.12-14.7s-.18-1.48 1.68-2.43l1.5-1s-2.66-1.66-2.8-3c0 0 4.8.47 5.65.34.84-.14.12-2.92.94-3.33.84-.4 8.3-1.36 10-1.3 1.7.03 6.48 0 6.48 0v-6.27s4.4 1.18 7.16 2.94c2.75 1.76 5.3 4.2 5.3 4.2s-.3-3.92.16-4.78c0 0 5.5 4.34 6.08 6.08l.92-1.27 1.18-1.27.53 5.86.26 1.58s2.54-2.58 2.8-2.76c.27-.18 1.3.76-.73 5.5-2 4.76-3.3 6-4.95 6 0 0-1.6.87-2.32 1.45-.7.58-2.18.86-1.87-.47.3-1.33-.3-2.94-.3-2.94l-2.54 5.83-2.8-2.72s-3.94 1.84-7.93-1.3c-2.56-.54-3.25.87-6.5-2.85l-2.4-2.8s.3 3.13-.46 4.46l-1.17-.97s.7 1.4.8 2.65-.56 8.13-2.63 10.57c-2.07 2.43-3.45 3.55-3.45 3.55l-.57.42-.28.18s-.8-5.56-3.6-5.47"/><path id="Fill-745" fill="#F0D0B4" d="M254.8 307.85c1.3-.45 5.9-6.25 5.9-6.25s-2.46-1.06-4.83-18.3c-.12-.9-.58-15.35-.73-20.52-5 .2-10.28 2.2-10.28 2.2s1.32 2.26 1.66 5.35-1.76 6.17-.74 10.5c1.03 4.32.32 11.2 1.07 11.57.75.37.86.85 1.86 3.67s.58 7.67.58 7.67 4.2 4.56 5.5 4.1"/><path id="Fill-747" fill="#F9ED32" d="M248.7 296.07c-1-2.82-1.1-3.3-1.85-3.67-.75-.36-.04-7.25-1.07-11.58-1.02-4.32 1.08-7.4.74-10.5s-1.66-5.33-1.66-5.33 6.9-2.02 11.92-2.22c-.02-.66-.88-2-.9-2.3-.1-2.68-.1-3.46-.64-4.38s.53-7.27-.1-10.7c-.63-3.45-8.73-9.1-11.42-9.58-18.08-3.3-14.78-1.6-14.78-1.6s-1.33.06-1.6 1.22c-.3 1.16-.7.56.1 4.42.56 2.62-10.86 2.98-10.86 2.98s-2.5-.55-3.02-.52c-1.9.1-4.1-2.34-4.84-4.16-.74-1.8-.88-5-.88-5l-3.8.46s-16.25 7.48-18.47 9.93c-2.22 2.46-4.48 6-4.54 12.77-.02 2.83.24 9.06.58 15.57 1.18-.88 3.94-2.78 6.72-3.65 3.67-1.15 6.3-1.25 6.3-1.25s1.38 3.77 1.94 4.72c.56.96 1.7 5.96 1.27 8.76-.44 2.8-.86 6.13-.86 7.5 0 1.33 3.73 9.1 8.95 16.96.07-.03.15-.07.22-.1.52-.18.86-.4 1.08-.6.05 1.1.46 2.6 2.56 5.3 3.64 4.67 14.14 17.58 17 16.87 2.87-.7 8.35-1.46 8.62-.2.28 1.23-.87 3.6-.87 3.6s5.02-3.2 10.7-5.1 9.68-1.08 9.04-2.02-4.43-9.95-5.08-12.6c-.67-2.65.07-6.34.07-6.34s.43-4.85-.57-7.67"/><path id="Fill-749" fill="#F0D0B4" d="M235.76 186.85s-3.46 4.73-3.85-1.12c-.06-1.16-1.14 2.26-1.3 2.28-3.74.53-8.48.5-13.44-1.1-2.97-.96-5.56-1.83-7.6-4.83l-.5 3.77-1.4-1.4s1.2 2.37 1.27 5.35c.1 2.96-.6 7.63-5.3 11.16-4.72 3.53-.5-2.6-5.47-4.18 0 0-3.8-1.4-5.83.85-2.03 2.26-2.06 5.52-1.23 7.38.83 1.86 6.06 6.13 10.4 8.67 0 0 2.3 7.27 8.3 12.64 0 0 .05 3.26-1.34 4.8 0 0-.94 1.95-.7 4.04.23 2.1 1.58 4.33 4.5 6.33.3.2.53.42.76.64 2.22.6 9.43 2.08 14.43-2.24-.36-1.34-.77-2.62-.74-3.23.08-1.2.33-3 2.24-2.4 0 0-.94-2.95-3.1-3.68l.13-2.07s3.7-.03 6.57-3.36c2.86-3.33 3.53-7.4 3.58-10.17.05-2.77-.36-28.1-.36-28.1"/><path id="Fill-751" fill="#ECC19C" d="M219.95 227.6s.34 2.22 1.8 3.67c1.48 1.44 3.5 2.7 3.5 4.12-.02.84.1 5.17-4.45 5.47-1.18.08-3-.32-4.18-.24-2.34.17-3.43-.37-5.77-.72-.3-.04-.6-.1-.9-.18-3.37-1 4.2 4.32 9.46 3.1 5.3-1.24 8.18-2.92 8.18-2.92s-1.3-3.3-.25-4.46c1.04-1.17 1.6-1.08 1.28-2.02-.32-.93-2.82-2.12-2.76-3.02.08-1.16.04-1.45.1-1.48.57-.25.03-.44.03-.44s-3.83.1-6.02-.88"/><path id="Fill-753" fill="#000" d="M235.34 188.78c.1 10.42 1.56 21.4-.6 31.66-.05.27.2 1.54.47.84 1.4-3.7 1.4-7.58 1.3-11.5-.16-7-.42-14.02-.75-21-.02-.6-.4-.6-.4 0"/><path id="Fill-755" fill="#000" d="M233.24 223.97c-3.95 4.74-9.42 4.6-14.68 2.54-.23-.08-.2.58-.06.7 4.4 3.54 11.73 1.5 14.85-2.8.08-.1.02-.58-.1-.43"/><path id="Fill-757" fill="#F9ED32" d="M191.16 313.7l-.48 1.98s1.4 2.96 1.7 6.1c.3 3.15.78 9.92 1.8 11.87s2.45 3.46 2.45 3.46 4-4.76 6.97-5.4c2.97-.63 7.87-.15 7.76-.65-.1-.5-10.36-8.33-12.38-11.14-2.02-2.8-3.57-4.2-3.57-4.7 0 0-.37.8-1.23.84-.86.04-2.2.36-3-2.33"/><path id="Fill-759" fill="#000" d="M195.14 315.6c5.16 6.98 11.44 13.15 19 17.46.64.36.8-1.95.22-2.33-7.12-4.66-13.57-9.95-18.9-16.65-.4-.52-.6 1.15-.32 1.52"/><path id="Fill-761" fill="#F0D0B4" d="M197.87 310.54s5.43-4.34 9.1-5.33c0 0 8.9 14.98 18 21 0 0 7.6-1.87 8.93-1.23s1.1 3.38 1.1 3.38.64 3.97.4 5.54-4.15-.8-4.15-.8 4.42 4.86 7.03 6.97c2.62 2.1 2.97 2.75 2.97 2.75s-3.07 1.8-5 .73c1.12 1.2 1.63 1.3 1.4 1.93-.2.64-2.5 1.12-5.24-.82-2.73-1.94-4.64-3.12-4.64-3.12s-1.28-.33-.75.76c.54 1.08 5.5 5.58 6.04 6.07.55.5.7 3.6-3.8.53-4.5-3.07-7.5-5.46-7.5-5.46s-2.76-1.12-4.5-2.83c-1.74-1.7-2.66-3.3-2.63-5.97.03-2.67-2.63-4.17-2.63-4.17s-11.42-8.13-15.87-14.5c0 0-1.15-1.42 1.77-5.42"/><path id="Fill-763" fill="#000" d="M231.2 333.55c1.27.83 2.53 1.56 3.9 2.2.16.1.3-.07.34-.22.6-1.82.55-4.05-.54-5.7-.26-.4-.33.73-.26.9.48 1.2.67 2.35.26 3.62.12-.07.23-.14.35-.22-1.32-.6-2.62-1.08-4-1.47-.25-.07-.2.78-.04.9"/><path id="Fill-765" fill="#000" d="M214.37 333.97c-.27 1.82.32 3.46 1.45 4.9 1.8 2.28 4.4 4.28 6.75 5.95.36.25.36-1 .2-1.2-2.54-2.96-7.52-5.46-7.9-9.66-.05-.56-.42-.48-.5 0"/><path id="Fill-767" fill="#000" d="M221.25 343.55c2.65 2.35 5.47 4.66 8.54 6.45.4.24.5-1.2.13-1.43-2.94-1.9-5.86-3.77-8.6-5.97-.2-.18-.3.75-.08.95"/><path id="Fill-769" fill="#000" d="M227.23 340.38c-1.3.46-.67 2.37-.16 3.2.72 1.2 2 2.14 3 3.1 1.16 1.08 2.33 2.2 3.6 3.13.44.33.5-1.24.25-1.5-1.1-1.2-2.34-2.27-3.57-3.33-.48-.42-4.08-3.02-2.98-3.64.24-.13.2-1.06-.14-.95"/><path id="Fill-771" fill="#000" d="M231.02 340.68c1.27 1 2.63 1.9 3.88 2.92.9.76 2 2.3 3.2 2.58.28.06.17-.73.12-.85-.6-1.37-1.84-2.34-2.98-3.28-1.27-1.04-2.58-2.03-4.1-2.64-.45-.17-.38 1.08-.12 1.28"/><path id="Fill-773" fill="#000" d="M227.16 341.7c2.14 1.55 4.27 3.1 6.47 4.55.36.24.47-1.12.13-1.37-2.12-1.6-4.3-3.1-6.46-4.6-.35-.25-.5 1.16-.14 1.42"/><path id="Fill-775" fill="#000" d="M230.4 333.17c1.64 1.86 3.76 3.27 5.48 5.04 1 1.04 2.02 2.06 3.08 3.05.67.62 1.6 1.3 2.07 2.1.04-.42.08-.83.12-1.24-1.83 1.23-3.86 1.46-5.92.7-.5-.2-.56 1.3-.14 1.46 2.18.86 4.32.6 6.26-.73.37-.26.24-1.03.04-1.35-1.08-1.77-3.4-3.3-5.05-4.48-2-1.42-4.18-3.12-5.84-4.95-.12-.15-.17.32-.08.42"/><path id="Fill-777" fill="#000" d="M248.62 301.63c2.83 7.3 7.2 13.62 13.53 18.3.37.27.5-1.32.14-1.63-5.65-4.85-10.34-10.67-13.37-17.5-.25-.55-.4.57-.3.83"/><path id="Fill-779" fill="#6CCDEF" d="M262.82 326.2s-2.1 2.08-1.4 4.46c.7 2.38 7 7.17 8.3 8.67s-5.58-1.4-6.03.58c-.46 2 11 4.05 11.65 7.36.67 3.3-5.83 4.9-9.85 3.16-4-1.72-15.68-2.52-15.58-1.26.1 1.27 15.38 7.82 19.56 7.8 4.18-.04 8.07.44 8.82 2.54s7.93-1.65 9.1-5.94c1.16-4.3-2.54-13.06-4.78-16.36"/><path id="Fill-781" fill="#F0D0B4" d="M250 304.3s10.4 15.05 16.96 19.7c0 0-1.28 2.24-1.04 4.56s9.43 9.53 10.24 10.2c.8.66 3.17 1.3 2.3-2.25 0 0 2.8 2.24 4.72 2.95 1.9.7 3.6-.7 2.3-3.2-1.3-2.46-3.27-4.77-3.27-4.77s2.36.76 3.07-.75c.7-1.5-1.84-3.1-1.84-3.1s2.6-1.84 1.6-6.1-8.9-4.12-10.42-3.33c0 0-6.88-6.26-10.03-10.8-3.15-4.5-3.88-5.8-3.88-5.8s-5.9 1.18-10.7 2.7"/><path id="Fill-783" fill="#000" d="M261.5 304.62c4.77 6.1 9.93 12.1 15.96 17 .28.22.36-.97.17-1.17-5.26-5.77-10.76-11.3-15.83-17.25-.4-.48-.56 1.1-.3 1.42"/><path id="Fill-785" fill="#000" d="M273.13 319.25c2.3-.22 4.83-.65 7.12-.14 1.12.25 2.24.77 3.12 1.5 1.17 1 1.38 3.4.9 4.77-.25.7-1.04 1.3-1.56 1.76-.74.68-1.6 1.25-2.46 1.78-.3.2-2.24 1.3-1.87 1.47-.44-.2 0-2 .08-2.23.45-1.42 1.44-2.36 2.37-3.47.1-.12.12-.8-.15-.7-3.15 1.1-4 5.07-2.9 7.94.06.2.23.37.44.27 3.96-1.88 8.55-5 7.6-10.03-1.16-6.04-8.16-5.77-12.7-4.42-.45.13-.44 1.57.03 1.53"/><path id="Fill-787" fill="#000" d="M275.5 326.78c-.97-.3-2-.43-2.87-1.03-.88-.6-1.17-1.5-1.88-2.2-.1-.1-.12.1-.12.16.15 2.22 2.63 4.36 4.86 3.83.2-.04.22-.7.02-.75"/><path id="Fill-789" fill="#000" d="M276.76 326.93c-.78-1.55 1.56-2.77 2.76-2 .28.2.4-.86.1-1.05-1.9-1.24-4.02 1.73-2.98 3.44.1.16.17-.3.12-.4"/><path id="Fill-791" fill="#000" d="M266.63 324.3c-1.7.5-1.52 3.06-1.18 4.45.76 3.1 3.86 5.04 6.12 6.97 1.24 1.05 5.3 6.1 7.02 4.27 1.15-1.26.03-4.26-.5-5.5-.18-.43-.33.36-.3.53.8 1.4.44 2.5-1.1 3.33-.6-.53-1.2-1.05-1.8-1.58-.9-.8-1.8-1.6-2.7-2.38-2.96-2.6-6.95-4.9-5.44-9.5.02-.08.07-.65-.13-.6"/><path id="Fill-793" fill="#000" d="M275.3 334.28c1.52 1.8 8.2 8.85 10.56 5.37 2-2.97-2.02-8.06-4.12-9.83-.4-.35-.47 1.28-.25 1.56.97 1.22 1.98 2.4 2.76 3.76.28.48 1.08 1.62 1.04 2.2-.1 1.64-1.73 1.06-2.55.74-2.63-1.04-5.2-3-7.2-4.94-.4-.4-.5.87-.26 1.14"/><path id="Fill-795" fill="#000" d="M283.2 328.27c.8.38 1.74 1.26 1.7 2.24.05-.16.1-.33.16-.5-.68.73-2.03.7-2.76.08-.22-.18-.36.34-.38.44-.05.3-.03.68.16.92.46.6 1.1.97 1.88.9.7-.08 1.53-.55 1.66-1.3.3-1.64-.76-3.47-2.3-4.04-.44-.16-.48 1.1-.13 1.27"/><path id="Fill-797" fill="#000" d="M190.14 315.23c1.53 4.43 1.8 8.72 2.34 13.34.36 3.06 1.03 5.94 2.94 8.42.45.58.63-1.12.44-1.44-2.46-4.2-2.38-8.63-2.87-13.3-.3-2.66-.72-5.65-2.6-7.67-.27-.3-.3.5-.26.63"/><path id="Fill-799" fill="#000" d="M188.65 305.3c.53-3.4 3.05-5.85 6.17-7.03.53-.2.35-2.23-.17-2.1-3.9 1.04-6.3 4.62-6.68 8.5-.05.48.52 1.65.68.63"/><path id="Fill-801" fill="#EBD432" d="M243.35 257.2s-5.03 6.88-6.25 10.14c-1.22 3.25 2.33 2.4 2.9 4.06.57 1.68-4.28 9.65-6.18 12.68-1.9 3.03 2 4.8 5.83.15 3.85-4.67-1.6 10.17-.3 12.1 1.3 1.92 5.52 6.42 5.4 10.04-.1 3.62 4.08 17.28 4.08 17.28s3.5-1.15 5.44-.97c1.94.18-.6-1.9-.6-1.9s-2.52-3.04-3.43-6.83c-.9-3.78-.72-6.54-1.2-9.03s-2.95-7.63-2.95-7.63-1.12-2.46.9-3.6c2-1.12.32-.8-.9-1.66-1.23-.87-2.32-1.76-2.38-3.38-.05-1.6.78-2.8 2-2.48 1.2.3 1.38-1.74.52-4.1-.86-2.35-1.96-5.02-.68-8.26s2.2-3.16 2.02-4.27c-.2-1.1-2.76-3.63-3.14-5.92-.4-2.3-.44-6.42-.44-6.42h-.65z"/><path id="Fill-803" fill="#000" d="M249.03 307.86c-.06 3.4.48 7.52 2.84 10.16.4.45.42-.88.33-1.1-1.43-2.97-2.76-5.68-2.8-9.07 0-.52-.36-.5-.37 0"/><path id="Fill-805" fill="#000" d="M253.06 319.68c.08 1.12.53 2.42 1.67 2.85.45.18.4-1.07.12-1.27-.52-.38-1.1-.9-1.12-1.6 0-.2-.06-.76-.35-.75-.3.02-.33.6-.32.78"/><path id="Fill-807" fill="#000" d="M249.66 322.92c1.95 0 3.9.08 5.85 0 .17 0 .17-.52 0-.54-1.95-.16-3.9-.2-5.86-.28-.24 0-.24.82.02.82"/><path id="Fill-809" fill="#6CCDEF" d="M188.7 343.34s.5 4.08 3.68 6.16c4.3 2.8.54-4.72 2.37-7.5 1.83-2.8 2.9 2 2.84 4.68-.08 2.66 1.9 7.58 7.7 7.23 5.8-.35 4.27 2.07 2.08 2.98-2.18.9 2.45 3.5 7.68 1.02 5.23-2.5 19-11.2 23-10.73s-2.95 1.84-2.25 4.16c.72 2.32 10.72-.93 10.72-.93s-11.98 3.84-15.5 5.55-12.22 4.5-14.16 5.97c-1.94 1.5-11.27-.4-15.53-1.8-4.26-1.43-12.1-3.7-12.62-16.78"/><path id="Fill-811" fill="#000" d="M210.74 330.68c-11.77-3.15-20.02 9.84-14.82 19.97.33.65.52-.62.4-.94-4.34-10.18 4.43-18.87 14.45-17.7.38.04.36-1.22-.03-1.32"/><path id="Fill-813" fill="#000" d="M192.57 332.22c1.53-2.1 3.84-3.32 6.42-3.58.38-.03.35-1.27-.05-1.3-2.94-.27-5.5 1.5-6.64 4.16-.06.15.04 1.04.27.72"/><path id="Fill-815" fill="#000" d="M199.5 329.08c-.26.5-.5 1-.76 1.48-.06.1.06.6.15.43.25-.48.52-.94.78-1.4.1-.2-.02-.84-.2-.52"/><path id="Fill-817" fill="#000" d="M194.5 335.4c1.8-1.96 4.05-3.38 6.6-4.17.25-.08.16-.83 0-.77-2.64.82-4.92 2.26-6.8 4.3-.13.14-.02.88.2.65"/><path id="Fill-819" fill="#000" d="M190.64 340.44c-4.42 8.26 1.1 18.6 10.8 18.54.4 0 .4-1.35-.04-1.37-8.75-.3-14.7-8.5-10.66-16.93.04-.08-.02-.4-.1-.23"/><path id="Fill-821" fill="#000" d="M191.52 351.76c2.5 9.3 12.38 11.36 20.82 10.3.42-.06.4-1.35-.04-1.36-7.64-.17-17.74-.6-20.46-9.4-.17-.53-.4.2-.32.46"/><path id="Fill-823" fill="#000" d="M241.56 346.46c6.52-.4 12.7.35 19.07 1.6.35.06.4-1.23-.03-1.32-6.24-1.38-12.73-1.3-19.04-.45-.05 0-.04.16 0 .16"/><path id="Fill-825" fill="#000" d="M248.83 350.38c7.47 5.44 16.1 8.28 25.36 7.36.53-.06.48-1.7-.05-1.7-9.07.1-17.63-2-25.17-7.14-.38-.26-.52 1.2-.14 1.48"/><path id="Fill-827" fill="#000" d="M271.24 355.88c3.12-.98 5.92-2.55 8.36-4.73.3-.26.08-1.38-.17-1.16-2.4 2.15-5.15 3.75-8.22 4.73-.37.12-.24 1.24.04 1.15"/><path id="Fill-829" fill="#000" d="M282.98 340.6c2.5 6.43-1.63 12.48-7.5 14.97-.36.15-.27 1.54.13 1.45 7.1-1.6 10.1-10.5 7.54-16.8-.1-.28-.2.25-.16.38"/><path id="Fill-831" fill="#000" d="M286.15 345.03c.08 4.82-3.03 8.4-7.05 10.6-.33.18-.26 1.5.1 1.4 5.06-1.55 7.73-7 7.54-12-.03-.82-.6-.82-.6 0"/><path id="Fill-833" fill="#000" d="M283.46 338.8c3.58 6 6.57 14.16-.64 18.62-2.85 1.76-6.15 2.26-9.14 3.65-.48.22-.46 2 .17 1.98 5.4-.1 12.04-3.48 13.86-8.83 1.94-5.7-1.17-11.3-4.1-16-.14-.2-.23.42-.14.57"/><path id="Fill-835" fill="#77D6F8" d="M253.2 355.37s10.68 7.95 13.13 12.17c2.45 4.2 6.26 2.45 8.5-.46s3.12-6.66 3.02-7.6c-.1-.95-2.83-1.7-3.64.37-.8 2.07-3.57 5.03-5.33 4.9-1.76-.15-1.44-1.5.17-3.63 1.6-2.13-.8-3.07-2.83-.5-1.5 1.93-8.43-6.23-13-5.25"/><path id="Fill-837" fill="#000" d="M245.3 325.18c5.6-1.88 10.98-1.9 16.8-1.76.35 0 .3-1.02-.03-1.1-5.66-1.22-11.55-.05-16.9 1.9-.27.1-.2 1.08.14.96"/><path id="Fill-839" fill="#000" d="M214.47 203.96c2.55 1.14 5.02 1 7.48-.3.22-.13.17-1.1-.1-1.03-2.33.64-5 .4-7.2-.63-.57-.26-.73 1.72-.18 1.96"/><path id="Fill-841" fill="#000" d="M228.23 203.1c1.68 2.28 5.17 2.5 7.02.3.22-.25.04-1.6-.27-1.33-1.88 1.68-4.7 1.77-6.6.03-.23-.2-.28.83-.15 1"/><path id="Fill-843" fill="#000" d="M217.88 218.53c3.97.32 7.8.1 11.7-.8.36-.07.32-1.2-.03-1.18-3.9.37-7.8.53-11.7.37-.47 0-.47 1.56.03 1.6"/><path id="Fill-845" fill="#000" d="M227.58 358.18c6.54-3.2 13.35-5.5 20.36-7.35.36-.1.26-1.3-.03-1.23-7.2 1.48-13.96 4.14-20.46 7.55-.25.13-.15 1.17.14 1.03"/><path id="Fill-847" fill="#000" d="M194.45 337.6c-1.97 2.77-3.37 6.15-3.37 9.6 0 .27.33.75.4.23.55-3.33 1.28-6.23 3.18-9.1.12-.18 0-1-.2-.73"/><path id="Fill-849" fill="#000" d="M192.64 341.23c-1.04 3.18-1.04 6.46.14 9.6.13.35.3-.3.25-.47-.92-2.8-1-5.63-.08-8.44.1-.25-.15-1.17-.3-.7"/><path id="Fill-851" fill="#000" d="M192.63 341.34c-.46 2.5-.66 5-.56 7.54.02.48.37.48.36 0-.05-2.4.12-4.73.56-7.07.05-.28-.26-1.05-.37-.46"/><path id="Fill-853" fill="#000" d="M188.8 344c.1 3.4.85 6.65 2.3 9.73.2.42.36-.4.25-.62-1.35-2.88-2.08-5.9-2.18-9.1 0-.5-.38-.5-.37 0"/><path id="Fill-855" fill="#000" d="M192.97 339.53c-.98 3.03-1.56 6.15-1.6 9.33 0 .5.48.82.5.14.15-2.97.57-5.85 1.46-8.7.1-.27-.18-1.32-.36-.77"/><path id="Fill-857" fill="#000" d="M188 346.47c-.13 3.4 1.13 7 4.07 8.92.32.2.38-.88.17-1.06-2.3-2.06-3.78-4.53-3.67-7.7.02-.6-.54-.94-.57-.17"/><path id="Fill-859" fill="#000" d="M193.45 355.55s0-.04 0-.04c-.02 0-.02.05 0 .05"/><path id="Fill-861" fill="#000" d="M285.46 339s-.52-.27-1.22-.76-1.57-1.2-2.38-2-1.56-1.6-2.07-2.3c-.52-.68-.8-1.2-.8-1.2s.5.3 1.2.77c.7.5 1.58 1.22 2.4 2s1.54 1.63 2.06 2.3c.5.7.8 1.2.8 1.2"/><path id="Fill-863" fill="#77D6F8" d="M213.44 362.58s-3.7 2.32-6.3 1.78c-2.58-.54-6.65-2.4-6.82-1.4-.17 1 2.2 3.02 2.26 4.7.05 1.65-5.27-1.02-5.36-4.33-.1-3.3-2.3-1.62-2.42 1.93-.1 3.56 2.06 7.7 6.13 9.8 4.07 2.1 4.62-1.14 8.8-6.73 2.5-3.33 5.2-4.92 5.2-4.92l-1.5-.82z"/><path id="Fill-865" fill="#000" d="M195.14 359.83c-2.52 7 1.16 16.05 9.02 17.22.43.07.44-1.38.06-1.5-5.83-1.92-10.5-8.13-8.45-14.38.16-.48-.3-2.3-.63-1.34"/><path id="Fill-867" fill="#000" d="M209.96 364.3c7.14-.3 13.78-2.5 19.57-6.7.25-.2.1-1.13-.14-.95-5.83 4.12-12.32 6.5-19.45 6.93-.23 0-.2.72 0 .7"/><path id="Fill-869" fill="#000" d="M204.55 372.28c4.34-5.5 9.82-9.07 16-12.17.3-.14.23-1.23-.16-1.1-6.58 2.22-12 7.06-16.05 12.57-.13.2 0 .98.2.7"/><path id="Fill-871" fill="#000" d="M207.5 371.68c4.68-6.33 10.9-10.73 18.3-13.35.4-.15.3-1.66-.23-1.48-7.48 2.67-13.72 7.64-18.26 14.13-.12.18 0 .97.2.7"/><path id="Fill-873" fill="#000" d="M257.7 359.18c4.8 3 8.5 7.04 11.46 11.85.26.43.46-.8.33-1.05-2.7-5.05-6.8-9.14-11.66-12.12-.36-.22-.5 1.1-.13 1.32"/><path id="Fill-875" fill="#000" d="M272.8 368.85c2.65-1.14 4.56-3.47 5.16-6.3.08-.4-.3-1.37-.48-.6-.63 2.66-2.36 4.82-4.82 6-.25.13-.18 1.03.13.9"/><path id="Fill-877" fill="#000" d="M277 356.93c1.24 4.27-.83 8.4-4.27 10.95-.37.27-.27 1.86.24 1.58 4.67-2.56 6.2-8.5 4.64-13.37-.32-1.03-.75.32-.6.83"/><path id="Fill-879" fill="#000" d="M275.38 366.45c1.3-1.38 2.6-2.77 3.88-4.15.32-.35.05-1.92-.4-1.4-1.3 1.42-2.57 2.85-3.85 4.28-.27.32-.05 1.74.38 1.27"/><path id="Fill-881" fill="#000" d="M248.67 353.52c8.7 4.02 15.17 10.65 19.8 18.94.54.96.84-.93.6-1.4-4.08-8.58-11.54-14.84-20.33-18.18-.22-.08-.24.56-.07.64"/><path id="Fill-883" fill="#000" d="M272.9 368.3l.76-.7c.23-.2.07-1.08-.13-.9l-.77.7c-.22.2-.06 1.07.14.9"/><path id="Fill-885" fill="#000" d="M274.37 358.74c-.88 2.27-2.37 4.15-4.36 5.55-.3.2-.1 1.3.17 1.1 2.07-1.54 3.6-3.6 4.5-6 .1-.24-.12-1.12-.3-.66"/><path id="Fill-887" fill="#000" d="M195.02 259.18c.1 1.1.2 2.18.32 3.27 0 .1.26 4.4-.64 3.57-.44-.4-.42 1.6-.26 1.86.96 1.6 1.82 3.4 3.05 4.8.4.46.4-.98.3-1.18-.8-1.88-1.96-3.6-3-5.38-.1.62-.18 1.24-.26 1.86.96.92 1.7-.85 1.83-1.63.4-2.35-.48-5.27-.77-7.6-.13-1.1-.65-.24-.58.43"/><path id="Fill-889" fill="#000" d="M212.22 241.8c4.87 2.4 10.64 1.5 15.08-1.3.2-.13.1-.8-.08-.7-4.38 2.8-10.1 3.7-14.92 1.33-.2-.1-.27.58-.08.67"/><path id="Fill-891" fill="#000" d="M214.95 245.53c2.8 1.35 6.16 1.05 8.87-.36.18-.1.12-.78-.1-.68-2.63 1.38-5.93 1.67-8.68.36-.2-.1-.28.58-.1.67"/><path id="Fill-893" fill="#EBD432" d="M195.36 259.37s.9 6.2.57 6.84c-.33.65-1.3.8-1.3.8l2.45 4.12s.37 2.7.6 4.54c.2 1.83-.03 9.54-.54 11.56-.52 2.02.75 7.2.75 7.2s2.28-.87 3.2-.1c.95.78 1.43 2.06 1.68 3.04s5.9 4.07 3.4 5.28c-1.05.5.78 2.57.78 2.57s13.07 17.83 16.64 19.66c3.58 1.84 7.3-.1 8.44-.34 1.14-.23-4.1-1.34-6.9-2.28-2.78-.95-.85-5.12-1.06-5.92-.22-.8-2.14 2.83-2.68 2.9-.53.1-8.88-7.6-8.12-11.06.76-3.45 12.6-4.95 14-6.86 1.43-1.9-7.88.35-11 .8-3.1.46-3.14-4.1-1.97-7.6 1.17-3.5-5.3-.23-6.4 1.64-1.07 1.88-4.75-6.1-6.23-6.34-1.5-.24-2.75-7.37-.97-9.22 1.77-1.86 4.37 2.1 7.94 2.07 3.57-.05-.44-3.13-2.57-5.48-2.12-2.34-4.2-5.75-3.46-7.88.74-2.14-2.56-2.46-3.96-.83s-.7-8.9-3.28-9.1"/><path id="Fill-895" fill="#000" d="M223.94 327.9c2.63-.58 5.25-1.25 7.9-1.76.66-.13 2.3-.54 2.85.05.94 1-1.05 2.42-1.6 3.2-.12.17-.23 1.4.2 1.3 2.07-.43 3.36-3.6 2.4-5.47-.73-1.4-2.25-1.38-3.6-1.08-2.76.6-5.48 1.45-8.2 2.17-.48.13-.36 1.68.04 1.6"/><path id="Fill-897" fill="#000" d="M201.64 201.5c-.24-2.56-1.32-4.92-3.88-5.82-2.7-.95-5.42.32-6.67 2.8-4.14 8.18 5.24 13.97 11.45 16.35.43.16.5-1.25.13-1.4-2.27-1-4.57-1.97-6.64-3.33-3.34-2.2-7.1-6.9-4.1-11.12 2.94-4.08 8.78-1.88 9.36 2.75.07.62.38.14.34-.24"/><path id="Fill-899" fill="#000" d="M203.48 233.5c-7.08 3.24-17.68 5.92-21.17 13.5-.1.26.04 1.6.3 1.17 4.2-7.03 14-9.8 21.07-13.14.37-.18.22-1.72-.2-1.53"/><path id="Fill-901" fill="#000" d="M201.12 173.8c-.78-.87 2.2-1.16 2.5-1.18.94-.1 1.9-.18 2.83-.27 1.78-.16 3.54-.27 5.28-.67.22-.06.22-.76-.02-.77-1.9-.08-3.78.17-5.68.34-1.3.12-3.36-.05-4.56.56-1.15.58-1.45 2.03-.57 3 .3.33.45-.77.22-1"/><path id="Fill-903" fill="#000" d="M217.7 171.07c.3-1.97.16-4 .13-5.98-.1.26-.22.53-.33.8 4.6 1.13 8.47 3.6 12.15 6.5.35.27.46-1.2.14-1.5-3.5-3.22-7.77-5.15-12.25-6.58-.38-.12-.4.57-.4.78-.04 1.94-.18 3.93.12 5.85.05.3.34.57.42.12"/><path id="Fill-905" fill="#000" d="M230.03 171.9c-.12-1.4 0-2.74.34-4.1-.1.1-.22.22-.33.33 2.28 1.4 4.13 3.25 5.93 5.2.3.33.3-.66.2-.85-1.46-2.42-3.6-4.25-6-5.7-.2-.1-.3.2-.34.34-.4 1.67-.45 3.35-.2 5.05.1.67.44.15.4-.27"/><path id="Fill-907" fill="#000" d="M236.1 174.9c.46-.85.95-1.68 1.32-2.56.08-.2-.06-1.18-.3-.8-.5.78-.9 1.65-1.33 2.5-.13.23.1 1.2.3.85"/><path id="Fill-909" fill="#000" d="M193.54 181.22c1.44 4.97 3.05 9.9 4.74 14.8.2.56.4-.2.32-.47-1.37-5-3.12-9.9-4.73-14.82-.2-.58-.4.2-.33.5"/><path id="Fill-911" fill="#000" d="M193.8 181.6c1.04-.52 1.9-1.32 2.9-1.92.28-.17.2-1.3-.16-1.15-1.05.5-1.92 1.25-2.92 1.82-.33.18-.2 1.45.17 1.26"/><path id="Fill-913" fill="#000" d="M197.03 177.65c-1.13-.5-1.9-1.26-2.54-2.32-.03.24-.05.48-.07.72 1.2.04 2.37.1 3.55.05.13 0 .12-.43 0-.45-1.2-.18-2.38-.27-3.57-.37-.22-.02-.13.63-.05.72.7.8 1.68 1.45 2.67 1.8.05.03.06-.13.02-.15"/><path id="Fill-915" fill="#000" d="M238.22 170.62c.12 2.26.27 4.5.48 6.74.04.42.34.23.32-.1-.18-2.23-.4-4.45-.7-6.67 0-.15-.1-.1-.1.02"/><path id="Fill-917" fill="#000" d="M235.15 187.3c4.04 4.45 7.22-8.16 7.84-10.02.08-.28-.14-1.44-.4-.83-.9 2.03-1.7 4.1-2.5 6.17-.63 1.58-2.46 5.54-4.6 3.16-.47-.53-.7 1.15-.35 1.53"/><path id="Fill-919" fill="#000" d="M238.9 179.24c.66-.66 1.35-1.3 1.92-2.04.12-.16.08-1.05-.18-.86-.7.52-1.3 1.18-1.9 1.8-.27.25-.06 1.3.15 1.1"/><path id="Fill-921" fill="#000" d="M201.4 203c6.18-3.48 8.95-10.77 7.25-17.56-.22-.85-.67.14-.58.6 1.25 6.33-1.48 12.4-6.8 15.97-.25.18-.16 1.17.14 1"/><path id="Fill-923" fill="#000" d="M204.65 183.72c1.5.87 3 1.73 4.35 2.82.13.1.27-.1.3-.2.7-2.24.2-4.07-.38-6.26-.13.34-.27.68-.4 1.02 1.35 1.82 2.93 3.67 4.52 5.3.43.44.4-.93.27-1.18-1.17-1.98-2.76-4.04-4.57-5.48-.35-.27-.43 1.12-.2 1.36 1.06 1.2.66 3.02.26 4.38.1-.12.22-.23.33-.34-1.37-1.05-2.77-1.87-4.45-2.3-.24-.07-.2.77-.03.88"/><path id="Fill-925" fill="#000" d="M213.17 182c2.95 4.3 7.9 10.12 13.77 7.3.42-.2.3-1.82-.14-1.7-5.94 1.78-9.92-2.6-13.36-6.82-.36-.44-.47.92-.27 1.2"/><path id="Fill-927" fill="#000" d="M223.83 185.37c1.36 2.46 3.1 4.58 5.26 6.38.07.06.2 0 .24-.08 1.13-2.08 2-4.2 2.6-6.5.1-.27-.24-1.34-.44-.73-.7 2.1-1.55 4.15-2.58 6.1.1-.06.2-.13.3-.2-2.04-1.65-3.7-3.62-5-5.9-.36-.62-.56.6-.4.93"/><path id="Fill-929" fill="#000" d="M232.54 185.2c-.2.7-1.95 5.6.58 4.74.95-.32 1.86-1.64 2.4-2.42.76-1.14 1.33-2.47 1.63-3.82.05-.2-.15-1.13-.37-.6-.66 1.57-1.44 3.05-2.57 4.35-.33.38-1.67 2-2.04.93-.1-.27.2-.94.25-1.25.13-.55.24-1.1.35-1.66.03-.17-.12-.6-.2-.27"/><path id="Fill-931" fill="#000" d="M201.78 201.82c2.4.6 4.87 1 7.35 1.24.25.03.23-.8-.02-.86-2.4-.63-4.88-.73-7.34-1-.18-.02-.17.57.02.62"/><path id="Fill-933" fill="#000" d="M215.52 193.6c-6.32 1.2-6.8 10.72-4.2 15.33 3.42 6.1 12.1 6.24 14.3-.83.12-.35-.28-1.64-.54-.9-1.53 4.34-6.7 5.58-10.4 3.15-5.4-3.53-5.1-12.9.94-15.58.27-.12.22-1.23-.1-1.17"/><path id="Fill-935" fill="#000" d="M225.1 202.98c.16-.04.35-.04.52 0 .3.06.3.2.53.33.36.2.8.06.96-.28.1-.22.12-.68-.06-.87-.2-.22-.6-.18-.88-.17-.1 0-.17.12-.2.2-.05.1-.76.05-.92.12-.17.07-.12.73.06.68"/><path id="Fill-937" fill="#000" d="M227.37 197.46c-2.2 3.4-1.9 8.06.44 11.35 3.07 4.34 9.07 4.58 13.03 1.42.3-.24.18-1.5-.2-1.26-7.24 4.7-16.92-2.23-12.96-10.67.1-.2-.07-1.2-.3-.84"/><path id="Fill-939" fill="#000" d="M228.54 198.62c1.57-2.68 5.18-3.35 7.98-2.35 5.02 1.77 4.65 7.97 2.47 11.86-.12.2 0 1.04.2.74 2.43-3.55 2.45-8.9-.6-12.1-2.96-3.13-8.27-2.66-10.3 1.2-.08.18.08.92.24.65"/><path id="Fill-941" fill="#000" d="M216.48 195.5c4.66-.72 9.08 2.83 8.6 7.7-.05.46.33.97.43.28.8-5.35-3.62-9.92-9.03-8.5-.16.03-.14.55 0 .53"/><path id="Fill-943" fill="#000" d="M207.45 233.2c-4.27-.13-8.43 1-11.56 4.03-.26.25-.3 1.7.2 1.42 3.67-1.97 7.2-3.77 11.38-4.44.32-.04.3-1-.03-1"/><path id="Fill-945" fill="#000" d="M183.2 245.25c-2.77 1.27-3.07 4.1-3.35 6.87-.53 5.4-.9 10.9-.68 16.32.02.45.42.76.47.13.25-3.36.32-6.73.5-10.1.2-3.58-.4-10.2 3.2-12.35.2-.13.15-1-.13-.87"/><path id="Fill-947" fill="#000" d="M178.65 273.37c1.57-2.44 3.65-4.42 6.25-5.74 2.74-1.4 5.45-1.4 8.35-2.06.3-.07.32-.96.03-1.05-5.67-1.83-12.17 2.9-15.04 7.44-.24.4.06 1.95.4 1.4"/><path id="Fill-949" fill="#000" d="M196.47 266.4c-.75-3.4-.74-6.66-.42-10.1.04-.45-.47-1.57-.65-.6-.72 3.7-.32 7.52.8 11.1.14.5.33-.17.27-.4"/><path id="Fill-951" fill="#000" d="M180.16 270.34c-.06 7.77 1.23 15.58 3.43 23 .17.6.4-.18.34-.47-1.9-7.48-2.9-14.86-3.46-22.54-.04-.43-.3-.44-.32 0"/><path id="Fill-953" fill="#000" d="M195.08 316.47c-4.73-5.96-8.48-10.78-10.45-18.38-2.06-7.92-2.76-16.04-3.7-24.13-.1-.87-.72-.48-.7.22.3 9.24 1.68 18.94 4.48 27.8 1.63 5.12 4.6 13.02 10.38 14.5 0 0 0-.03 0-.03"/><path id="Fill-955" fill="#000" d="M194.66 267.56c3.2 7.74 3.44 15.35 1.12 23.34-.08.27.2 1.3.43.72 3.05-8.12 2.5-17.08-1.22-24.88-.27-.55-.43.56-.32.82"/><path id="Fill-957" fill="#000" d="M244.44 262.72c2.18-.87 4.37-1.58 6.7-1.82 2.12-.2 4.12.1 6.2.18.2 0 .18-.6.04-.64-4.4-1.7-8.96-.7-13.1 1.17-.3.14-.2 1.26.16 1.12"/><path id="Fill-959" fill="#000" d="M244.9 265.3c2.23-.86 4.52-1.6 6.87-1.98 2.16-.36 4.37-.2 6.5-.58.23-.04.2-.66 0-.7-4.6-.78-9.36.7-13.45 2.65-.16.07-.1.66.08.6"/><path id="Fill-961" fill="#000" d="M225.54 233.95c4.54.4 9 1.18 13.4 2.4 5 1.37 13.5 3.54 14.93 9.52.13.52.38-.1.34-.36-1.85-10.8-20.14-12.5-28.7-12.87-.35 0-.36 1.3.04 1.32"/><path id="Fill-963" fill="#000" d="M253.8 242.47c1.35 7.36 2.58 14.85 4.47 22.1.2.8.6-.15.55-.56-1.17-7.36-2.97-14.7-4.64-21.96-.14-.62-.45.1-.4.43"/><path id="Fill-965" fill="#000" d="M255.14 263.22c.17 9.55.02 19.3 1.58 28.75.13.76.52.17.47-.3-.85-9.48-.95-18.98-1.7-28.46-.05-.47-.37-.48-.36.02"/><path id="Fill-967" fill="#000" d="M256.44 291.03c1.54 5.9 4.12 11.5 7.86 16.3.25.33.37-.56.26-.74-3.23-5.1-5.86-10.28-7.8-16-.18-.5-.38.18-.32.43"/><path id="Fill-969" fill="#000" d="M247.86 299.7c3.77 7.86 8.43 15.65 14.72 21.75.35.33.4-.67.23-.9-5.4-6.84-10.62-13.57-14.73-21.34-.18-.33-.3.34-.2.5"/><path id="Fill-971" fill="#F0D0B4" d="M197.83 280.47c.44-2.8-.7-7.8-1.27-8.75-.56-.95-1.94-4.72-1.94-4.72s-2.63.1-6.3 1.25c-2.78.87-5.54 2.77-6.7 3.64.43 8.34 1 17.13 1.28 19.8.83 3.68 2.3 9.8 3.82 14.2 1.68 4.92 5.93 8.02 8.08 9.33 2.95 1.7 2.55-.76 3.03-3.23 0 0 5.38-4.64 8.33-5.82-6.95-7.83-9.2-16.87-9.2-18.2 0-1.37.43-4.7.87-7.5"/><path id="Fill-973" fill="#000" d="M208.86 229.4c-1.6 2.2-1.92 4.92-1.2 7.53.32 1.17.83 2.23 1.62 3.16.62.72 1.4 1.18 2.12 1.78 1.73 1.42 2.3 2.5 3.02 4.67.28.83.54-.18.5-.56-.18-1.75-.6-3.38-1.78-4.73-2.82-3.2-7.1-4.73-3.9-10.38.17-.34 0-2.05-.38-1.5"/><path id="Fill-975" fill="#000" d="M225.5 230.83c1.56.9 2.62 2.02 3.33 3.72l.15-.77c-1.38-.6-1.4 1.55-1.38 2.45.06 3.38.78 6.38-.53 9.67-.07.17.06.9.22.53.57-1.3.78-2.8.96-4.2.12-.97.18-7.8.65-7.56.28.13.2-.67.15-.77-.72-1.84-1.73-3.02-3.5-3.94-.2-.1-.28.75-.06.87"/><path id="Fill-977" fill="#000" d="M181.1 251.14c-1.07 17.7.08 35.8 4.36 53.05.25 1 .7-.2.62-.67-2.6-17.46-5.16-34.47-4.7-52.2 0-.3-.24-.7-.27-.2"/><path id="Fill-979" fill="#000" d="M196 271.8c2.8 5.06.76 12.44 1.42 18.04.7 5.97 3.12 11.35 7.23 15.77.63.7.76-1.53.43-1.98-3.8-5.1-6.52-10.1-6.88-16.57-.17-2.88.13-5.77.02-8.66-.1-2.53-.3-4.92-2.2-6.76-.02-.03-.02.13 0 .15"/><path id="Fill-981" fill="#000" d="M204.72 305.27c5.35 9 12.92 16.4 21.27 22.62.35.26.46-1.27.12-1.56-7.7-6.9-15.62-13.5-21.12-22.38-.28-.46-.48.97-.28 1.3"/><path id="Fill-983" fill="#000" d="M244.6 254.27c-.8 2.36-1.23 4.72-1 7.22.1 1.18.3 2.42.7 3.55.46 1.4 2.16 3.25 2.18 4.47.03 2.3-1.78 4.83-1.75 7.44.03 2.5.68 4.73 2 6.86.28.46.44-.92.32-1.17-1.78-3.6-1.4-9.1.7-12.45.18-.3.2-1.02-.04-1.3-2.94-3.43-3.87-8.6-2.47-13.02.16-.5-.27-2.7-.64-1.6"/><path id="Fill-985" fill="#000" d="M246.54 284.33h-.18c-.15 0-.22.25-.24.36-.72 3.24-.65 7.2 1.18 10.1.23.38.33-.6.3-.73-.58-1.87-1.2-3.7-1.23-5.66-.03-1.35.44-2.7.18-4.04 0 0 0-.03 0-.03"/><path id="Fill-987" fill="#000" d="M246.5 293.9c2.2 2.66 4.43 6.8.76 9.3-.26.2-.2 1.3.16 1.1 1.77-.86 2.44-2.9 2.34-4.78-.12-2.4-1.58-4.32-3.2-6-.1-.13-.15.3-.07.38"/><path id="Fill-989" fill="#000" d="M234.7 316.66c3.76-4.7 8.25-8.55 13.18-11.98.2-.14.12-1-.12-.84-5.25 3.06-9.6 7.35-13.24 12.2-.1.16 0 .84.17.62"/><path id="Fill-991" fill="#000" d="M242 312.68c.94-2.44 2.7-4.08 4.9-5.36.18-.1.14-.83-.1-.74-2.4.94-4.17 3.14-5.06 5.5-.08.22.12 1 .27.6"/><path id="Fill-993" fill="#000" d="M209.8 309.8c.16 0 .15-.55-.03-.55-.17 0-.16.56.02.56"/><path id="Fill-995" fill="#000" d="M197.95 290.95c.18 0 .17-.56 0-.56-.18 0-.17.55 0 .55"/><path id="Fill-997" fill="#000" d="M208.77 227.72c-.02 2.02-.04 4.04-.04 6.06 0 .8.57.78.57-.02 0-2.02 0-4.03-.03-6.05 0-.7-.5-.7-.5.02"/><path id="Fill-999" fill="#000" d="M201.53 212.9c.54.88.57 2.63.95 3.65.56 1.47 1.28 2.86 2.15 4.18 1.85 2.8 4.6 5.5 7.76 6.77.4.16.4-1 .1-1.16-2.84-1.8-5.37-3.6-7.4-6.35-.94-1.3-1.72-2.7-2.32-4.2-.35-.88-.55-2.3-1.2-3.1-.06-.07-.07.14-.05.2"/><path id="Fill-1001" fill="#000" d="M243.2 278.32c.02 0 .02-.07 0-.07s-.02.07 0 .07"/><path id="Fill-1003" fill="#27AAE1" d="M239 276.12c-1.4.94-2.8 1.88-4.2 2.82-.2.13-.42.28-.5.5-.05.2 0 .42.07.62 1.17 3.6 4.23 6.33 5.5 9.9.23.62.25 1.53-.4 1.7-.34.1-.7-.13-1-.33-2.4-1.7-4.82-3.37-7.23-5.05-.2-.13-.38-.26-.6-.3-.66-.1-1.07.7-1.3 1.32-1.22 3.33-3.05 6.45-5.37 9.14-.52.6-1.23 1.23-2 1.04-.97-.24-1.16-1.5-1.15-2.5.02-3.2.04-6.4.06-9.58 0-1.15-.02-2.4-.74-3.3-.83-1.03-2.3-1.25-3.63-1.38-1.23-.14-2.46-.27-3.7-.4-.25-.02-.5-.06-.68-.24-.37-.4.02-1 .4-1.37 2.77-2.6 6.37-4.55 8-7.97 1.26-2.66 1.14-5.85 2.64-8.38.46-.78 1.27-1.55 2.15-1.32.44.1.78.44 1.07.78 1.44 1.68 2.32 3.75 3.36 5.7 1.05 1.93 2.38 3.85 4.35 4.83 2.08 1.04 4.8 1 6.3 2.78"/><path id="Fill-1005" fill="#000" d="M184.8 302.15c4.92 12.86 15.06 21.76 26.1 29.44.52.34.66-1.45.2-1.8-10.57-8.37-19.57-16.2-26.1-28.16-.2-.35-.27.35-.2.5"/><path id="Fill-1007" fill="#000" d="M264.95 315.06c3.67.95 3.6 5.9 2.38 8.64-.03.08.03.46.12.32 1.74-2.74 1.33-8.37-2.5-9.15-.05 0-.06.18 0 .2"/><path id="Fill-1009" fill="#000" d="M263.75 315.4c1.5-.2 2.77.37 3.57 1.7 1.6 2.65.6 5.52-1.8 7.16-.08.06-.04.4.06.35 2-1.13 3.1-3.4 2.65-5.68-.46-2.24-2.06-4.07-4.5-3.65-.03 0-.02.14.02.13"/><path id="Fill-1011" fill="#fff" d="M266.6 315.32s1.77-1.27 2.06-1.42c.3-.14 1.5 1.7 1.92 2.1s.47.94.47.94l-2.67 2.47s-.48-3-1.77-4.08"/><path id="Fill-1013" fill="#000" d="M267.65 315.44c.57.78.93 1.82 1.15 2.62l1.45-1.34c-.03-.07-.1-.15-.15-.2-.16-.16-.42-.5-.7-.87-.2-.25-.52-.66-.75-.9-.25.16-.6.4-1 .7zm.24 5.37l-.22-1.28c-.12-.77-.63-2.92-1.52-3.66l-.7-.58.74-.53c.55-.4 1.84-1.32 2.15-1.48.7-.35 1.25.36 2.15 1.53.23.3.44.58.57.7.57.54.67 1.27.68 1.36l.04.35-3.9 3.6z"/><path id="Fill-1015" fill="#000" d="M267.42 320.42c1.34-2.12 3.2-3.67 5.37-4.9.1-.06.06-.42-.06-.37-2.3 1.03-4.1 2.86-5.4 4.98-.06.08 0 .4.08.3"/><path id="Fill-1017" fill="#000" d="M263.14 315.93c-2.14.63-3.57 2.52-3.6 4.73 0 .13.1.2.12.04.17-2.1 1.52-3.9 3.5-4.63.02 0 0-.14-.02-.14"/><path id="Fill-1019" fill="#000" d="M267.1 316.75c.1.47.23.95.35 1.42 0 .03.02 0 0-.02-.1-.48-.22-.95-.34-1.42 0-.03 0 0 0 .02"/><path id="Fill-1021" fill="#000" d="M259.28 318.65c1.5-1.93 3.62-2.9 6-3.18.1 0 .1-.27 0-.27-2.45-.03-4.64 1.28-6.06 3.23-.05.05 0 .3.06.22"/><path id="Fill-1023" fill="#fff" d="M259.73 319.67s-.23-1.4 1.33-2.22 1.74-1.32 2.68-1.1 3.04.68 3.6 2.1c.57 1.4 1.23 2.98.2 4-1 1.02-1.2 2.22-2.8 2.46-1.6.26-2.13.38-3.37-.83-1.55-1.5-1.8-1.7-1.64-4.4"/><path id="Fill-1025" fill="#000" d="M263.35 317c-.2 0-.37.1-.8.38-.3.18-.66.42-1.16.7-1.12.58-.98 1.47-.98 1.48v.16c-.14 2.33-.05 2.4 1.35 3.76 1.05 1.02 1.3.98 2.75.76.92-.14 1.2-.55 1.67-1.2.22-.35.5-.72.85-1.1.63-.6.26-1.7-.32-3.15-.45-1.13-2.22-1.55-3.07-1.75-.13-.03-.23-.05-.32-.05m.03 8.77c-.84 0-1.53-.27-2.5-1.2-1.67-1.62-2.02-2.06-1.84-4.88-.04-.42-.04-1.94 1.7-2.87.46-.25.8-.46 1.06-.64.67-.44 1.16-.76 2.1-.53 1.16.27 3.4.8 4.1 2.52.63 1.56 1.37 3.42.04 4.74-.27.28-.5.6-.7.9-.52.72-1.1 1.55-2.5 1.77-.56.1-1.04.17-1.47.17"/><path id="Fill-1027" fill="#000" d="M193.96 203.3c-.94-2.6 2.12-3.13 3.6-2.08 1.64 1.14 1.7 3.3 1.83 5.1 0 .18.13.18.13 0-.04-2.3-.38-5.44-3.08-6.07-2.04-.48-3.3 1.5-2.63 3.3.08.2.18-.16.14-.26"/><path id="Fill-1029" fill="#000" d="M199.05 205.1c-1.36-.25-2.46.93-2.32 2.26.14 1.3 1.48 2.15 2.7 1.73.14-.05.1-.53-.03-.5-.84.26-1.8-.08-2.24-.87-.65-1.2.78-2.38 1.9-2.34.08 0 .07-.27 0-.3"/><path id="Fill-1031" fill="#000" d="M266 315.42c1.2-1.15 2.5-2.02 3.93-2.82.07-.03.05-.27-.03-.24-1.48.68-2.78 1.7-3.92 2.86-.04.05 0 .24.03.2"/><path id="Fill-1033" fill="#000" d="M266.22 315.8c1.2-1.16 2.55-1.87 4.08-2.45.06-.02.04-.24-.02-.23-1.57.4-2.95 1.37-4.08 2.5-.04.04 0 .2.02.17"/><path id="Fill-1035" fill="#000" d="M261.4 317.57c1.1-1.22 2.8-1.2 4.2-.46.7.4 1.3.92 1.72 1.62 1.1 1.8.64 3.52-.4 5.14-.05.07-.02.4.07.3 1.55-1.92 1.68-4.67-.08-6.52-1.45-1.52-4.13-1.94-5.56-.2-.03.03 0 .18.04.13"/><path id="Fill-1037" fill="#000" d="M261.5 316.83c-3.42 2.13-2.78 7.53 1.27 8.47.12.02.13-.42 0-.46-3.45-1.2-4.4-5.46-1.24-7.7.08-.06.04-.36-.04-.3"/><path id="Fill-1039" fill="#000" d="M259.83 320.3c-.07 3.9 4.33 6.15 7.27 3.36.06-.05.02-.3-.04-.26-2.72 2.4-7.12.72-7.1-3.1.02-.2-.13-.2-.13 0"/><path id="Fill-1041" fill="#000" d="M259.15 319.95c.14 3.87 4.08 6.53 7.6 4.47.1-.05.06-.36-.04-.3-3.3 1.53-7.24-.27-7.4-4.17-.02-.2-.16-.2-.15 0"/><path id="Fill-1043" fill="#000" d="M267.4 320.73c1.53-2 3.38-3.44 5.43-4.83.07-.05.05-.3-.03-.26-2.17 1.12-4 2.95-5.45 4.9-.04.04 0 .27.06.2"/><path id="Fill-1045" fill="#000" d="M179.5 275.53c4.25-5.74 11.4-7.43 18-8.65.35-.06.33-1.1-.02-1.1-6.58-.3-14.43 3.68-18.17 9.08-.1.18 0 .93.2.67"/><path id="Fill-1047" fill="#000" d="M223.4 284.38c2.93-2.17 6-4 9.18-5.76.15-.1.1-.7-.1-.6-3.24 1.55-6.28 3.57-9.16 5.73-.15.12-.05.74.1.63"/><path id="Fill-1049" fill="#000" d="M226.12 279.75c.6-.72 1.36-1.22 2.18-1.66.14-.1.1-.68-.05-.63-.94.33-1.67.96-2.28 1.74-.1.14 0 .74.15.55"/><path id="Fill-1051" fill="#000" d="M250.8 288.98c-.46.77-1.08 1.36-1.7 2-.07.05-.07.4.03.33.78-.44 1.33-1.22 1.77-2 .05-.08 0-.44-.1-.32"/><path id="Fill-1053" fill="#000" d="M251 289.62c-.35.37-.7.74-1.06 1.1-.08.1-.02.48.06.4.35-.34.7-.68 1.07-1.03.1-.1 0-.56-.06-.48"/><path id="Fill-1055" fill="#000" d="M195.75 296.3c1.15-2.18 1.93-4.43 2.24-6.87.02-.23-.2-.77-.32-.3-.5 2.24-1.17 4.4-2.18 6.46-.1.18.1.97.25.7"/><path id="Fill-1057" fill="#000" d="M255.73 278.65c.13 3.44-.78 6.47-2.34 9.5-.05.07 0 .42.07.3 1.87-2.9 2.54-6.4 2.37-9.8 0-.18-.12-.18-.1 0"/><path id="Fill-1059" fill="#000" d="M255.06 285.7c.46 2.3 1.1 4.53 1.94 6.72.13.32.26-.32.2-.5-.83-2.1-1.5-4.26-1.97-6.46-.07-.32-.2.1-.17.25"/><path id="Fill-1061" fill="#6CCDEF" d="M242.82 342.58l15.12-10.76c1.44-1.03 1.5-.95 1.74-.24.25.72-6 4.42-6.9 5.54-.92 1.13 4.23-.85 5 .4.77 1.23-4.2 1.08-7.3 2.1-3.13 1.06 1.62.97 2.3 1.53 1.86 1.52-9.96 1.43-9.96 1.43"/><path id="Fill-1063" fill="#000" d="M241.66 343.9c5.93-4.18 12.02-8.2 17.8-12.6.23-.2.13-1.2-.15-1-6.06 4-11.86 8.46-17.77 12.7-.23.18-.1 1.06.13.9"/><path id="Fill-1067" fill="#000" d="M234.86 331.05l-1.42-.54 1.1-.7.7.62-.38.63z"/><path id="Fill-1069" fill="#000" d="M233.1 329.4s-2.97.63-2.84 1.02c.13.4 3.2.1 3.2.1l-.35-1.13z"/></g></g></g></g></svg>