<?xml version="1.0" encoding="UTF-8"?>
<svg width="27px" height="29px" viewBox="0 0 27 29" version="1.1" xmlns="http://www.w3.org/2000/svg" xmlns:xlink="http://www.w3.org/1999/xlink">
    <!-- Generator: Sketch 44 (41411) - http://www.bohemiancoding.com/sketch -->
    <title>Page-1</title>
    <desc>Created with Sketch.</desc>
    <defs>
        <polygon id="path-1" points="0.000652173913 28.6956522 26.0869565 28.6956522 26.0869565 0.841695652 0.000652173913 0.841695652"/>
    </defs>
    <g id="Update---Enterprise" stroke="none" stroke-width="1" fill="none" fill-rule="evenodd">
        <g id="Enterprise_update_security" transform="translate(-762.000000, -3467.000000)">
            <g id="Page-1" transform="translate(762.000000, 3466.000000)">
                <g id="Group-3" transform="translate(0.000000, 0.463174)">
                    <g id="Fill-1-Clipped">
                        <mask id="mask-2" fill="white">
                            <use xlink:href="#path-1"/>
                        </mask>
                        <g id="path-7"/>
                        <path d="M24.4415217,21.5208261 C24.4415217,21.9747391 24.0723913,22.3438696 23.6184783,22.3438696 L18.7206522,22.3438696 L18.7206522,12.839087 L21.2341304,12.839087 C21.6880435,12.839087 22.0558696,12.4712609 22.0558696,12.0160435 C22.0558696,11.5621304 21.6880435,11.193 21.2341304,11.193 L18.7206522,11.193 L18.7206522,8.643 L21.2341304,8.643 C21.6880435,8.643 22.0558696,8.27517391 22.0558696,7.81995652 C22.0558696,7.36473913 21.6880435,6.99691304 21.2341304,6.99691304 L18.495,6.99691304 C18.1063043,6.14386957 17.2493478,5.54647826 16.2528261,5.54647826 L9.01108696,5.54647826 L9.01108696,3.30952174 C9.01108696,2.8556087 9.38021739,2.48647826 9.83413043,2.48647826 L23.6184783,2.48647826 C24.0723913,2.48647826 24.4415217,2.8556087 24.4415217,3.30952174 L24.4415217,21.5208261 Z M17.0758696,8.643 L17.0758696,11.193 L17.0758696,12.0160435 L17.0758696,12.839087 L17.0758696,15.5077826 L17.0758696,16.9177826 L17.0758696,22.3438696 L17.0758696,23.166913 L17.0758696,23.9899565 L17.0758696,26.226913 C17.0758696,26.6808261 16.7067391,27.0499565 16.2528261,27.0499565 L2.46847826,27.0499565 C2.01456522,27.0499565 1.64543478,26.6808261 1.64543478,26.226913 L1.64543478,8.0156087 C1.64543478,7.56169565 2.01456522,7.19256522 2.46847826,7.19256522 L7.365,7.19256522 L8.18804348,7.19256522 L9.01108696,7.19256522 L11.4697826,7.19256522 L16.2528261,7.19256522 C16.6376087,7.19256522 16.9454348,7.46386957 17.0354348,7.81995652 C17.0523913,7.88386957 17.0758696,7.94647826 17.0758696,8.0156087 L17.0758696,8.643 Z M23.6184783,0.841695652 L9.83413043,0.841695652 C8.4723913,0.841695652 7.365,1.94778261 7.365,3.30952174 L7.365,5.54647826 L2.46847826,5.54647826 C1.10673913,5.54647826 0.000652173913,6.65517391 0.000652173913,8.0156087 L0.000652173913,26.226913 C0.000652173913,27.5873478 1.10673913,28.6960435 2.46847826,28.6960435 L16.2528261,28.6960435 C17.6145652,28.6960435 18.7206522,27.5873478 18.7206522,26.226913 L18.7206522,23.9899565 L23.6184783,23.9899565 C24.9802174,23.9899565 26.0876087,22.8825652 26.0876087,21.5208261 L26.0876087,3.30952174 C26.0876087,1.94778261 24.9802174,0.841695652 23.6184783,0.841695652 L23.6184783,0.841695652 Z" id="Fill-1" fill="#4C4C51" fill-rule="nonzero" mask="url(#mask-2)"/>
                    </g>
                </g>
                <path d="M13.5386087,12.1237826 L11.2507826,12.1237826 L9.01121739,12.1237826 L8.18817391,12.1237826 L7.36513043,12.1237826 L4.28947826,12.1237826 C3.83556522,12.1237826 3.46643478,12.4916087 3.46643478,12.9468261 C3.46643478,13.4007391 3.83556522,13.7698696 4.28947826,13.7698696 L7.36513043,13.7698696 L8.18817391,13.7698696 L9.01121739,13.7698696 L13.5386087,13.7698696 C13.8646957,13.7698696 14.139913,13.5755217 14.2729565,13.3016087 C14.3264348,13.1933478 14.3616522,13.0746522 14.3616522,12.9468261 C14.3616522,12.7694348 14.2938261,12.6142174 14.1986087,12.4785652 C14.049913,12.2685652 13.8164348,12.1237826 13.5386087,12.1237826" id="Fill-4" fill="#4C4C51" fill-rule="nonzero"/>
                <path d="M13.5386087,16.3207826 L11.2507826,16.3207826 L9.01121739,16.3207826 L8.18817391,16.3207826 L7.36513043,16.3207826 L4.28947826,16.3207826 C3.83556522,16.3207826 3.46643478,16.6886087 3.46643478,17.1438261 C3.46643478,17.5977391 3.83556522,17.9668696 4.28947826,17.9668696 L7.36513043,17.9668696 L8.18817391,17.9668696 L9.01121739,17.9668696 L13.5386087,17.9668696 C13.8646957,17.9668696 14.139913,17.7725217 14.2729565,17.4986087 C14.3264348,17.3890435 14.3616522,17.2716522 14.3616522,17.1438261 C14.3616522,16.9651304 14.2938261,16.809913 14.1986087,16.6755652 C14.0486087,16.4655652 13.8164348,16.3207826 13.5386087,16.3207826" id="Fill-6" fill="#4C4C51" fill-rule="nonzero"/>
                <path d="M10.6267826,20.5166087 L9.01069565,20.5166087 L8.18765217,20.5166087 L7.36591304,20.5166087 L4.29026087,20.5166087 C3.83504348,20.5166087 3.46721739,20.8844348 3.46721739,21.3396522 C3.46721739,21.7935652 3.83504348,22.1626957 4.29026087,22.1626957 L7.38286957,22.1626957 L8.20591304,22.1626957 L9.04721739,22.1626957 L10.6267826,22.1626957 C11.082,22.1626957 11.4498261,21.7935652 11.4498261,21.3396522 C11.4498261,20.8844348 11.082,20.5166087 10.6267826,20.5166087" id="Fill-8" fill="#4C4C51" fill-rule="nonzero"/>
            </g>
        </g>
    </g>
</svg>