<?xml version="1.0" encoding="UTF-8"?>
<svg width="45px" height="39px" viewBox="0 0 45 39" version="1.1" xmlns="http://www.w3.org/2000/svg" xmlns:xlink="http://www.w3.org/1999/xlink">
    <!-- Generator: Sketch 42 (36781) - http://www.bohemiancoding.com/sketch -->
    <title>left-quote copy</title>
    <desc>Created with Sketch.</desc>
    <defs></defs>
    <g id="Page-1" stroke="none" stroke-width="1" fill="none" fill-rule="evenodd">
        <g id="left-quote-copy" fill-rule="nonzero" fill="#D6D6D6">
            <path d="M14.3025,17.7854444 C13.201875,17.459963 12.10125,17.2948148 11.030625,17.2948148 C9.37734375,17.2948148 7.9978125,17.6828889 6.928125,18.1581111 C7.959375,14.2802593 10.4367187,7.58911111 15.3717187,6.83559259 C15.82875,6.76577778 16.2032812,6.42633333 16.3279687,5.96940741 L17.4065625,2.00681481 C17.4975,1.6717037 17.4435937,1.313 17.2575,1.02218519 C17.0714062,0.73137037 16.7723437,0.537333333 16.4371875,0.490148148 C16.0729687,0.439111111 15.7017187,0.413111111 15.33375,0.413111111 C9.41015625,0.413111111 3.54375,6.76385185 1.06828125,15.8571111 C-0.38484375,21.1919259 -0.8109375,29.2124444 2.7684375,34.2607778 C4.77140625,37.0856296 7.69359375,38.5941111 11.4539062,38.7448148 C11.469375,38.7452963 11.484375,38.7457778 11.4998437,38.7457778 C16.1395312,38.7457778 20.25375,35.5362222 21.5053125,30.9414444 C22.2529687,28.1945926 21.915,25.3138889 20.5528125,22.828 C19.2051562,20.370037 16.985625,18.5784444 14.3025,17.7854444 Z" id="Shape"></path>
            <path d="M43.3457812,22.8284815 C41.998125,20.370037 39.7785937,18.5784444 37.0954687,17.7854444 C35.9948437,17.459963 34.8942187,17.2948148 33.8240625,17.2948148 C32.1707812,17.2948148 30.7907812,17.6828889 29.7210937,18.1581111 C30.7523437,14.2802593 33.2296875,7.58911111 38.1651562,6.83559259 C38.6221875,6.76577778 38.99625,6.42633333 39.1214062,5.96940741 L40.2,2.00681481 C40.2909375,1.6717037 40.2370312,1.313 40.0509375,1.02218519 C39.8653125,0.73137037 39.56625,0.537333333 39.230625,0.490148148 C38.866875,0.439111111 38.495625,0.413111111 38.1271875,0.413111111 C32.2035937,0.413111111 26.3371875,6.76385185 23.86125,15.8571111 C22.4085937,21.1919259 21.9825,29.2124444 25.5623437,34.2617407 C27.5648437,37.0861111 30.4875,38.5950741 34.2473437,38.7452963 C34.2628125,38.7457778 34.2778125,38.7462593 34.29375,38.7462593 C38.9329687,38.7462593 43.0476562,35.5367037 44.2992187,30.9419259 C45.0459375,28.1950741 44.7075,25.3138889 43.3457812,22.8284815 Z" id="Shape"></path>
        </g>
    </g>
</svg>