<?xml version="1.0" encoding="UTF-8"?>
<svg width="56px" height="48px" viewBox="0 0 56 48" version="1.1" xmlns="http://www.w3.org/2000/svg" xmlns:xlink="http://www.w3.org/1999/xlink">
    <!-- Generator: Sketch 43.2 (39069) - http://www.bohemiancoding.com/sketch -->
    <title>Group 11</title>
    <desc>Created with Sketch.</desc>
    <defs></defs>
    <g id="Page-1" stroke="none" stroke-width="1" fill="none" fill-rule="evenodd">
        <g id="Desktop-HD-Copy" transform="translate(-153.000000, -2435.000000)" fill-rule="nonzero" fill="#6C6EFB">
            <g id="Group-9" transform="translate(153.000000, 2304.000000)">
                <g id="Group-7">
                    <g id="Group-8" transform="translate(0.000000, 126.000000)">
                        <g id="Group-11" transform="translate(0.000000, 5.000000)">
                            <path d="M17.4811047,21.7790518 C16.152557,21.37611 14.8240094,21.1716588 13.5316743,21.1716588 C11.5360237,21.1716588 9.87081261,21.6520893 8.57960915,22.2404082 C9.82441529,17.4396789 12.8147791,9.1561261 18.7717423,8.22328016 C19.3234178,8.13685034 19.7755087,7.71662261 19.9260171,7.15095437 L21.2279712,2.24531721 C21.3377404,1.83045409 21.272671,1.38638365 21.0480401,1.02635876 C20.8234092,0.666333874 20.4624154,0.426118591 20.0578534,0.367703957 C19.6182105,0.304520781 19.1700803,0.272333125 18.7259108,0.272333125 C11.5756312,0.272333125 4.49438172,8.13446607 1.50628117,19.3918006 C-0.247763849,25.9962307 -0.762095113,35.9255264 3.55851383,42.1752963 C5.97626685,45.6724255 9.50359479,47.5399055 14.0426106,47.7264747 C14.0612827,47.7270708 14.079389,47.7276669 14.0980611,47.7276669 C19.6985571,47.7276669 24.6647678,43.7542796 26.1755098,38.0660055 C27.0779942,34.6654393 26.6700373,31.0991663 25.0257615,28.0216688 C23.3990262,24.9787432 20.7198639,22.7607753 17.4811047,21.7790518 Z" id="Shape"></path>
                            <path d="M54.1638984,28.0219163 C52.5371428,24.9784328 49.8579471,22.7604928 46.6191475,21.7787816 C45.2905833,21.3758449 43.9620191,21.1713963 42.6702338,21.1713963 C40.6745583,21.1713963 39.0087606,21.6518208 37.7175411,22.2401322 C38.9623627,17.4394633 41.9527638,9.15601452 47.9103671,8.22318029 C48.4620494,8.13675156 48.9135801,7.71652911 49.0646562,7.15086797 L50.3666265,2.24529243 C50.4763971,1.83043452 50.4113269,1.38636966 50.1866932,1.02634929 C49.9626253,0.666328925 49.601627,0.42611666 49.1964942,0.367702759 C48.7574116,0.304520377 48.3092758,0.272333125 47.864535,0.272333125 C40.7141663,0.272333125 33.6328286,8.13436732 30.644125,19.3915605 C28.890624,25.9959076 28.3762863,35.9250786 32.6975149,42.1759621 C35.1147322,45.6724513 38.6426699,47.540504 43.1811765,47.7264748 C43.1998488,47.7270708 43.2179553,47.7276669 43.2371934,47.7276669 C48.8371934,47.7276669 53.8040317,43.7543295 55.3147926,38.0661269 C56.2161566,34.6656034 55.8076288,31.0987791 54.1638984,28.0219163 Z" id="Shape"></path>
                        </g>
                    </g>
                </g>
            </g>
        </g>
    </g>
</svg>