<?xml version="1.0" encoding="UTF-8"?>
<svg width="30px" height="29px" viewBox="0 0 30 29" version="1.1" xmlns="http://www.w3.org/2000/svg" xmlns:xlink="http://www.w3.org/1999/xlink">
    <!-- Generator: Sketch 44 (41411) - http://www.bohemiancoding.com/sketch -->
    <title>Page-1</title>
    <desc>Created with Sketch.</desc>
    <defs>
        <polygon id="path-1" points="29.9277273 28.6352727 29.9277273 0 0.000818181818 0 0.000818181818 28.6352727"/>
    </defs>
    <g id="Update---Enterprise" stroke="none" stroke-width="1" fill="none" fill-rule="evenodd">
        <g id="Enterprise_update_security" transform="translate(-761.000000, -3247.000000)">
            <g id="Page-1" transform="translate(761.000000, 3247.000000)">
                <path d="M12.1587273,2.90263636 L6.31690909,2.90263636 C5.86418182,2.90263636 5.49736364,3.26945455 5.49736364,3.72218182 C5.49736364,4.17490909 5.86418182,4.54172727 6.31690909,4.54172727 L12.1587273,4.54172727 C12.6114545,4.54172727 12.9796364,4.17490909 12.9796364,3.72218182 C12.9796364,3.26945455 12.6114545,2.90263636 12.1587273,2.90263636" id="Fill-1" fill="#4C4C51" fill-rule="nonzero"/>
                <g id="Group-5">
                    <g id="Fill-3-Clipped">
                        <mask id="mask-2" fill="white">
                            <use xlink:href="#path-1"/>
                        </mask>
                        <g id="path-3"/>
                        <path d="M26.9217273,14.0607273 C26.3080909,14.0607273 25.809,13.5602727 25.809,12.9466364 C25.809,12.333 26.3080909,11.8325455 26.9217273,11.8325455 C27.5353636,11.8325455 28.0344545,12.333 28.0344545,12.9466364 C28.0344545,13.5602727 27.5353636,14.0607273 26.9217273,14.0607273 L26.9217273,14.0607273 Z M22.7530909,14.0607273 C22.1394545,14.0607273 21.6403636,13.5602727 21.6403636,12.9466364 C21.6403636,12.333 22.1394545,11.8325455 22.7530909,11.8325455 C23.3680909,11.8325455 23.8671818,12.333 23.8671818,12.9466364 C23.8671818,13.5602727 23.3680909,14.0607273 22.7530909,14.0607273 L22.7530909,14.0607273 Z M18.5858182,14.0607273 C18.5476364,14.0607273 18.5121818,14.0525455 18.4767273,14.0484545 C18.1344545,14.0143636 17.8358182,13.8289091 17.6558182,13.5561818 C17.5399091,13.3802727 17.4717273,13.1716364 17.4717273,12.9466364 C17.4717273,12.723 17.5399091,12.513 17.6558182,12.3370909 C17.8358182,12.0643636 18.1344545,11.8775455 18.4767273,11.8448182 C18.5121818,11.8407273 18.5476364,11.8325455 18.5858182,11.8325455 C19.1994545,11.8325455 19.6985455,12.333 19.6985455,12.9466364 C19.6985455,13.5602727 19.1994545,14.0607273 18.5858182,14.0607273 L18.5858182,14.0607273 Z M15.5299091,12.9466364 C15.5299091,13.5602727 15.0308182,14.0607273 14.4171818,14.0607273 C13.8035455,14.0607273 13.3044545,13.5602727 13.3044545,12.9466364 C13.3044545,12.333 13.8035455,11.8325455 14.4171818,11.8325455 C15.0308182,11.8325455 15.5299091,12.333 15.5299091,12.9466364 L15.5299091,12.9466364 Z M16.8362727,9.36027273 L11.274,9.36027273 C11.0476364,9.36027273 10.8649091,9.543 10.8649091,9.76936364 L10.8649091,16.6366364 C10.8649091,16.863 11.0476364,17.0457273 11.274,17.0457273 L16.8362727,17.0457273 L16.8362727,20.8393636 L1.63990909,20.8393636 L1.63990909,2.86936364 C1.63990909,2.19163636 2.19081818,1.64072727 2.86990909,1.64072727 L15.6062727,1.64072727 C16.284,1.64072727 16.8362727,2.19163636 16.8362727,2.86936364 L16.8362727,9.36027273 Z M16.8362727,25.7661818 C16.8362727,26.4452727 16.284,26.9961818 15.6062727,26.9961818 L2.86990909,26.9961818 C2.19081818,26.9961818 1.63990909,26.4452727 1.63990909,25.7661818 L1.63990909,22.4784545 L16.8362727,22.4784545 L16.8362727,25.7661818 Z M29.5180909,9.36027273 L18.4767273,9.36027273 L18.4767273,2.86936364 C18.4767273,1.28754545 17.1880909,-0.00109090909 15.6062727,-0.00109090909 L2.86990909,-0.00109090909 C1.28672727,-0.00109090909 0.000818181818,1.28754545 0.000818181818,2.86936364 L0.000818181818,20.8393636 L0.000818181818,22.4784545 L0.000818181818,25.7661818 C0.000818181818,27.348 1.28672727,28.6352727 2.86990909,28.6352727 L15.6062727,28.6352727 C17.1880909,28.6352727 18.4767273,27.348 18.4767273,25.7661818 L18.4767273,22.4784545 L18.4767273,20.8393636 L18.4767273,17.0457273 L29.5180909,17.0457273 C29.7444545,17.0457273 29.9285455,16.863 29.9285455,16.6366364 L29.9285455,9.76936364 C29.9285455,9.543 29.7444545,9.36027273 29.5180909,9.36027273 L29.5180909,9.36027273 Z" id="Fill-3" fill="#4C4C51" fill-rule="nonzero" mask="url(#mask-2)"/>
                    </g>
                </g>
                <path d="M9.39545455,25.6663636 C10.0786364,25.6663636 10.635,25.11 10.635,24.4268182 C10.635,23.7422727 10.0786364,23.1859091 9.39545455,23.1859091 C8.71090909,23.1859091 8.15590909,23.7422727 8.15590909,24.4268182 C8.15590909,25.11 8.71090909,25.6663636 9.39545455,25.6663636" id="Fill-6" fill="#4C4C51" fill-rule="nonzero"/>
            </g>
        </g>
    </g>
</svg>